<?xml version="1.0" encoding="UTF-8"?>
<svg width="26px" height="32px" viewBox="0 0 26 32" version="1.1" xmlns="http://www.w3.org/2000/svg" xmlns:xlink="http://www.w3.org/1999/xlink">
    <!-- Generator: Sketch 60.1 (88133) - https://sketch.com -->
    <title>apple</title>
    <desc>Created with Sketch.</desc>
    <defs>
        <polygon id="path-1" points="0 0.0336725702 25.9609058 0.0336725702 25.9609058 23.9999793 0 23.9999793"></polygon>
    </defs>
    <g id="Page-1" stroke="none" stroke-width="1" fill="none" fill-rule="evenodd">
        <g id="apple">
            <path d="M14.3342324,2.64014173 C16.2717449,0.0128585613 18.9653986,0 18.9653986,0 C18.9653986,0 19.365971,2.47013959 17.4412474,4.84967117 C15.3860194,7.39048301 13.0499208,6.97472286 13.0499208,6.97472286 C13.0499208,6.97472286 12.611321,4.97646257 14.3342324,2.64014173" id="Fill-1" fill="#000000" fill-rule="nonzero"></path>
            <g id="Group-5" transform="translate(0.000000, 8.000000)">
                <g id="Fill-3-Clipped">
                    <mask id="mask-2" fill="white">
                        <use xlink:href="#path-1"></use>
                    </mask>
                    <g id="path-1"></g>
                    <path d="M13.2032237,1.49979784 C14.2796865,1.49979784 16.2773968,0.0336725702 18.877763,0.0336725702 C23.3538435,0.0336725702 25.1146765,3.18959482 25.1146765,3.18959482 C25.1146765,3.18959482 21.6706966,4.93428596 21.6706966,9.16782376 C21.6706966,13.9436683 25.9609058,15.5894566 25.9609058,15.5894566 C25.9609058,15.5894566 22.9618555,23.953638 18.9110346,23.953638 C17.050439,23.953638 15.6040648,22.7112363 13.6436543,22.7112363 C11.6459441,22.7112363 9.66340483,23.9999793 8.37224588,23.9999793 C4.6731835,23.9999793 -1.5694165e-05,16.0658281 -1.5694165e-05,9.68815205 C-1.5694165e-05,3.41326652 3.95559396,0.121586177 7.66569457,0.121586177 C10.0776262,0.121586177 11.9493123,1.49979784 13.2032237,1.49979784" id="Fill-3" fill="#000000" fill-rule="nonzero" mask="url(#mask-2)"></path>
                </g>
            </g>
        </g>
    </g>
</svg>