<?xml version="1.0" encoding="UTF-8"?>
<svg width="70px" height="88px" viewBox="0 0 70 88" version="1.1" xmlns="http://www.w3.org/2000/svg" xmlns:xlink="http://www.w3.org/1999/xlink">
    <!-- Generator: Sketch 60.1 (88133) - https://sketch.com -->
    <title>bulb</title>
    <desc>Created with Sketch.</desc>
    <defs>
        <polygon id="path-1" points="0.252 0.035 2.877 0.035 2.877 9.65 0.252 9.65"></polygon>
        <polygon id="path-3" points="0 0.1743 9.61433333 0.1743 9.61433333 2.7993 0 2.7993"></polygon>
    </defs>
    <g id="Page-1" stroke="none" stroke-width="1" fill="currentColor" fill-rule="evenodd">
        <g id="bulb">
            <path d="M29.2767885,70.0886963 L40.7248661,70.0886963 C41.14844,59.4433062 46.1171604,52.1484108 48.3061771,49.4317485 C48.6453672,49.0524472 48.9283013,48.7330356 49.1913804,48.396988 C49.1946896,48.3919972 49.2013079,48.3836792 49.2079263,48.3753612 C49.2244721,48.3537343 49.2393634,48.3304439 49.2575638,48.3071535 C51.7758431,45.0714473 53.1044753,41.2019088 53.1044753,37.1161019 C53.1044753,27.0779266 44.9821147,18.9113037 35,18.9113037 C25.0178853,18.9113037 16.8955247,27.0779266 16.8955247,37.1161019 C16.8955247,41.2002452 18.2258115,45.0697837 20.7440908,48.3071535 C20.7689095,48.3420891 20.7937283,48.3753612 20.8168925,48.4119604 C21.1163725,48.7796165 21.3761425,49.0740741 21.6392216,49.3652044 C23.8828396,52.1484108 28.8532146,59.448297 29.2767885,70.0886963 M42.1428459,73 L27.8588087,73 C27.0579893,73 26.4110463,72.347868 26.4110463,71.5443481 C26.4110463,61.0436914 21.5399464,53.8635846 19.4468957,51.2650381 C19.1705799,50.9639261 18.8446265,50.5912792 18.5385282,50.2036599 C18.4260164,50.0955258 18.3350142,49.9740828 18.2671762,49.8443219 C15.4725812,46.1428071 14,41.7492339 14,37.1161019 C14,25.4725506 23.4195556,16 35,16 C46.5804444,16 56,25.4725506 56,37.1161019 C56,41.7841695 54.5042546,46.2093512 51.6716042,49.927502 C51.6103845,50.0372997 51.5342736,50.140443 51.4432714,50.2302776 C51.1586826,50.587952 50.8327293,50.9605989 50.5018122,51.328255 C48.4617082,53.861921 43.5906083,61.0403642 43.5906083,71.5443481 C43.5906083,72.347868 42.9436653,73 42.1428459,73" id="Fill-1"></path>
            <g id="Group-5" transform="translate(34.000000, 0.000000)">
                <g id="Fill-3-Clipped">
                    <mask id="mask-2" fill="white">
                        <use xlink:href="#path-1"></use>
                    </mask>
                    <g id="path-1"></g>
                    <path d="M1.5645,9.65 C0.84,9.65 0.252,8.99666667 0.252,8.19166667 L0.252,1.49166667 C0.252,0.686666667 0.84,0.0333333333 1.5645,0.0333333333 C2.289,0.0333333333 2.877,0.686666667 2.877,1.49166667 L2.877,8.19166667 C2.877,8.99666667 2.289,9.65 1.5645,9.65" id="Fill-3" mask="url(#mask-2)"></path>
                </g>
            </g>
            <path d="M15.4754748,17 C15.0852522,17 14.6950296,16.8519325 14.3971364,16.5540555 L9.44618672,11.6016331 C8.85040038,11.0076211 8.85214244,10.0425694 9.44618672,9.44681546 C10.0419731,8.85106151 11.0088193,8.85106151 11.6028636,9.44681546 L16.5538133,14.3974959 C17.1495996,14.9932499 17.1478576,15.9583016 16.5538133,16.5540555 C16.2559201,16.8519325 15.8656975,17 15.4754748,17" id="Fill-6"></path>
            <g id="Group-10" transform="translate(0.000000, 33.000000)">
                <g id="Fill-8-Clipped">
                    <mask id="mask-4" fill="white">
                        <use xlink:href="#path-3"></use>
                    </mask>
                    <g id="path-3"></g>
                    <path d="M8.156,2.7993 L1.45766667,2.7993 C0.652666667,2.7993 -0.000666666667,2.2113 -0.000666666667,1.4868 C-0.000666666667,0.7623 0.652666667,0.1743 1.45766667,0.1743 L8.156,0.1743 C8.961,0.1743 9.61433333,0.7623 9.61433333,1.4868 C9.61433333,2.2113 8.961,2.7993 8.156,2.7993" id="Fill-8" mask="url(#mask-4)"></path>
                </g>
            </g>
            <path d="M54.5245252,17 C54.1343025,17 53.7440799,16.8519325 53.4461867,16.5540555 C52.8521424,15.9583016 52.8504004,14.9932499 53.4461867,14.3974959 L58.3971364,9.44681546 C58.9911807,8.85106151 59.9580269,8.85106151 60.5538133,9.44681546 C61.1478576,10.0425694 61.1495996,11.0076211 60.5538133,11.6016331 L55.6028636,16.5540555 C55.3049704,16.8519325 54.9147478,17 54.5245252,17" id="Fill-11"></path>
            <path d="M68.4832727,36 L61.5167273,36 C60.6794938,36 60,35.328 60,34.5 C60,33.672 60.6794938,33 61.5167273,33 L68.4832727,33 C69.3205062,33 70,33.672 70,34.5 C70,35.328 69.3205062,36 68.4832727,36" id="Fill-13"></path>
            <path d="M42.5587482,80 L27.4412518,80 C26.6456808,80 26,79.328 26,78.5 C26,77.672 26.6456808,77 27.4412518,77 L42.5587482,77 C43.3543192,77 44,77.672 44,78.5 C44,79.328 43.3543192,80 42.5587482,80" id="Fill-15"></path>
            <path d="M40.5855509,88 L30.4144491,88 C29.6336732,88 29,87.328 29,86.5 C29,85.672 29.6336732,85 30.4144491,85 L40.5855509,85 C41.3663268,85 42,85.672 42,86.5 C42,87.328 41.3663268,88 40.5855509,88" id="Fill-17"></path>
        </g>
    </g>
</svg>