<?xml version="1.0" encoding="UTF-8"?>
<svg width="34px" height="33px" viewBox="0 0 34 33" version="1.1" xmlns="http://www.w3.org/2000/svg" xmlns:xlink="http://www.w3.org/1999/xlink">
    <!-- Generator: Sketch 63.1 (92452) - https://sketch.com -->
    <title>Buzz Apps</title>
    <desc>Created with Sketch.</desc>
    <defs>
        <polygon id="path-1" points="0 0.804895961 10.8723 0.804895961 10.8723 8.8418 0 8.8418"></polygon>
    </defs>
    <g id="Page-1" stroke="none" stroke-width="1" fill="currentColor" fill-rule="evenodd">
        <g id="Buzz-Apps">
            <path d="M13.6385,12.611 C13.5645,12.611 13.4905,12.6 13.4155,12.577 C13.0205,12.454 12.7995,12.035 12.9225,11.639 C12.9555,11.53 16.4365,0.711 27.5275,0.675 C27.5545,0.67 29.7195,0.492 31.0905,1.716 C31.7855,2.336 32.1515,3.179 32.1775,4.222 C32.2465,7.028 29.5215,7.927 28.0715,8.011 C28.0825,8.011 25.0585,8.384 23.6755,10.011 C23.4085,10.326 22.9345,10.365 22.6185,10.096 C22.3035,9.828 22.2645,9.355 22.5335,9.039 C24.3025,6.958 27.7945,6.535 27.9425,6.518 C28.0945,6.507 30.7285,6.314 30.6775,4.259 C30.6625,3.639 30.4715,3.173 30.0925,2.836 C29.2145,2.052 27.6125,2.171 27.5965,2.172 C17.5575,2.207 14.4805,11.681 14.3545,12.084 C14.2545,12.405 13.9585,12.611 13.6385,12.611" id="Fill-1"></path>
            <path d="M18.0731,14.3292 C17.9741,14.3292 17.8741,14.3092 17.7781,14.2682 C17.3971,14.1052 17.2211,13.6642 17.3841,13.2832 C19.1121,9.2582 22.3631,8.5362 24.6241,9.1422 C26.5521,9.6592 27.8261,11.0862 27.6531,12.5372 C27.6041,12.9482 27.2331,13.2502 26.8201,13.1922 C26.4081,13.1432 26.1151,12.7702 26.1641,12.3592 C26.2431,11.6902 25.3781,10.8972 24.2361,10.5912 C22.4711,10.1182 20.1101,10.7332 18.7631,13.8752 C18.6411,14.1592 18.3641,14.3292 18.0731,14.3292" id="Fill-3"></path>
            <path d="M23.7621,32.7008 C19.8571,32.7008 16.7881,30.5548 16.3361,30.2208 C15.7701,29.9058 11.4601,27.3388 9.7821,21.5528 C9.6691,21.1438 7.1691,11.7038 13.7801,4.6918 C20.5501,-2.4902 25.1451,0.6738 25.3381,0.8128 C25.6741,1.0548 25.7511,1.5228 25.5091,1.8598 C25.2671,2.1968 24.8001,2.2728 24.4621,2.0308 C24.3171,1.9308 20.6871,-0.4462 14.8721,5.7208 C8.8491,12.1088 11.2001,21.0548 11.2251,21.1448 C12.8071,26.5978 17.0511,28.9028 17.0941,28.9258 L17.2041,28.9978 C17.4811,29.2138 24.0361,34.2118 30.2181,28.4938 C34.4871,24.5458 30.3841,19.1158 30.2071,18.8868 L29.9911,18.6058 L30.0701,18.2588 C30.4941,16.4238 30.3831,14.9868 29.7501,14.1038 C29.1301,13.2408 28.1991,13.1388 28.1591,13.1348 C24.1301,12.9478 23.2521,16.2608 23.2161,16.4018 C23.1131,16.8028 22.7041,17.0468 22.3041,16.9428 C21.9021,16.8408 21.6601,16.4318 21.7621,16.0308 C22.1711,14.4298 24.0501,11.4458 28.2591,11.6388 C28.3501,11.6448 29.9101,11.7838 30.9461,13.1978 C31.8251,14.3978 32.0461,16.0968 31.6061,18.2538 C33.3551,20.7018 35.2971,25.8398 31.2361,29.5958 C28.6991,31.9428 26.0821,32.7008 23.7621,32.7008" id="Fill-5"></path>
            <g id="Group-9" transform="translate(0.000000, 13.700800)">
                <g id="Fill-7-Clipped">
                    <mask id="mask-2" fill="white">
                        <use xlink:href="#path-1"></use>
                    </mask>
                    <g id="path-1"></g>
                    <path d="M3.0853,8.8418 C2.0553,8.8418 0.9173,8.4858 0.3273,7.2658 C-0.0767,6.4288 -0.1077,5.5088 0.2393,4.6038 C0.7493,3.2768 2.0233,2.1148 3.7333,1.4168 C7.2223,-0.0062 10.2303,1.4898 10.3563,1.5548 L9.6753,2.8908 L10.0163,2.2228 L9.6773,2.8918 C9.6523,2.8788 7.1353,1.6498 4.3003,2.8058 C2.9913,3.3398 1.9963,4.2128 1.6403,5.1418 C1.4423,5.6568 1.4553,6.1518 1.6783,6.6128 C2.2733,7.8458 4.2093,7.1438 4.2293,7.1358 C4.4463,7.0738 8.1433,6.0688 10.8723,6.9268 L10.4213,8.3578 C8.1193,7.6318 4.7243,8.5528 4.6903,8.5618 C4.2923,8.7108 3.7093,8.8418 3.0853,8.8418" id="Fill-7" mask="url(#mask-2)"></path>
                </g>
            </g>
        </g>
    </g>
</svg>