<?xml version="1.0" encoding="UTF-8"?>
<svg width="60px" height="35px" viewBox="0 0 60 35" version="1.1" xmlns="http://www.w3.org/2000/svg" xmlns:xlink="http://www.w3.org/1999/xlink">
    <!-- Generator: Sketch 64 (93537) - https://sketch.com -->
    <title>computers</title>
    <desc>Created with Sketch.</desc>
    <defs>
        <polygon id="path-1" points="0 34.5988125 59.388 34.5988125 59.388 0.8745625 0 0.8745625"></polygon>
        <polygon id="path-3" points="0 34.5988125 59.388 34.5988125 59.388 0.8745625 0 0.8745625"></polygon>
        <polygon id="path-5" points="0 34.5988125 59.388 34.5988125 59.388 0.8745625 0 0.8745625"></polygon>
    </defs>
    <g id="Page-1" stroke="none" stroke-width="1" fill="none" fill-rule="evenodd">
        <g id="computers">
            <path d="M28.32065,34.5988125 L13.00815,34.5988125 C12.6459,34.5988125 12.3519,34.3048125 12.3519,33.9425625 C12.3519,33.5803125 12.6459,33.2863125 13.00815,33.2863125 L28.32065,33.2863125 C28.6829,33.2863125 28.9769,33.5803125 28.9769,33.9425625 C28.9769,34.3048125 28.6829,34.5988125 28.32065,34.5988125" id="Fill-1" fill="#00A9E6" fill-rule="nonzero"></path>
            <path d="M25.8674125,34.5988125 C23.9432875,34.5988125 23.3920375,29.9875625 23.2844125,25.8531875 L17.3956625,25.8531875 C17.2880375,29.9875625 16.7367875,34.5988125 14.8126625,34.5988125 L14.8126625,33.2863125 C14.7934125,33.2863125 14.7785375,33.2915625 14.7750375,33.2933125 C15.4164125,32.9678125 16.0341625,29.1799375 16.0962875,25.1873125 C16.1015375,24.8285625 16.3937875,24.5406875 16.7525375,24.5406875 L23.9275375,24.5406875 C24.2862875,24.5406875 24.5785375,24.8285625 24.5837875,25.1873125 C24.6459125,29.1799375 25.2636625,32.9678125 25.9050375,33.2933125 L25.8674125,34.5988125 Z" id="Fill-3" fill="#00A9E6" fill-rule="nonzero"></path>
            <path d="M56.3975625,31.9627 L55.0850625,31.9627 L55.0850625,15.373575 C55.0850625,15.12595 54.8838125,14.9247 54.6361875,14.9247 L31.1091875,14.9247 C30.8615625,14.9247 30.6603125,15.12595 30.6603125,15.373575 L30.6603125,31.9627 L29.3478125,31.9627 L29.3478125,15.373575 C29.3478125,14.402325 30.1379375,13.6122 31.1091875,13.6122 L54.6361875,13.6122 C55.6074375,13.6122 56.3975625,14.402325 56.3975625,15.373575 L56.3975625,31.9627 Z" id="Fill-5" fill="#00A9E6" fill-rule="nonzero"></path>
            <g id="Fill-7-Clipped" transform="translate(0.125000, 0.000000)">
                <mask id="mask-2" fill="white">
                    <use xlink:href="#path-1"></use>
                </mask>
                <g id="path-1"></g>
                <path d="M27.419875,33.2863125 L58.0755,33.2863125 L58.0755,32.3316875 L27.419875,32.3316875 L27.419875,33.2863125 Z M58.73175,34.5988125 L26.763625,34.5988125 C26.401375,34.5988125 26.107375,34.3048125 26.107375,33.9425625 L26.107375,31.6754375 C26.107375,31.3131875 26.401375,31.0191875 26.763625,31.0191875 L58.73175,31.0191875 C59.094,31.0191875 59.388,31.3131875 59.388,31.6754375 L59.388,33.9425625 C59.388,34.3048125 59.094,34.5988125 58.73175,34.5988125 L58.73175,34.5988125 Z" id="Fill-7" fill="#00A9E6" fill-rule="nonzero" mask="url(#mask-2)"></path>
            </g>
            <g id="Fill-9-Clipped" transform="translate(0.125000, 0.000000)">
                <mask id="mask-4" fill="white">
                    <use xlink:href="#path-3"></use>
                </mask>
                <g id="path-1"></g>
                <polygon id="Fill-9" fill="#00A9E6" fill-rule="nonzero" mask="url(#mask-4)" points="0.65625 22.9420625 29.878625 22.9420625 29.878625 21.6295625 0.65625 21.6295625"></polygon>
            </g>
            <g id="Fill-10-Clipped" transform="translate(0.125000, 0.000000)">
                <mask id="mask-6" fill="white">
                    <use xlink:href="#path-5"></use>
                </mask>
                <g id="path-1"></g>
                <path d="M29.8790625,25.8535375 L1.5369375,25.8535375 C0.6899375,25.8535375 0.0004375,25.1640375 0.0004375,24.3170375 L0.0004375,2.4114125 C0.0004375,1.5644125 0.6899375,0.8749125 1.5369375,0.8749125 L39.5425625,0.8749125 C40.3895625,0.8749125 41.0790625,1.5644125 41.0790625,2.4114125 L41.0790625,14.2685375 L39.7665625,14.2685375 L39.7665625,2.4114125 C39.7665625,2.2880375 39.6659375,2.1874125 39.5425625,2.1874125 L1.5369375,2.1874125 C1.4135625,2.1874125 1.3129375,2.2880375 1.3129375,2.4114125 L1.3129375,24.3170375 C1.3129375,24.4404125 1.4135625,24.5410375 1.5369375,24.5410375 L29.8790625,24.5410375 L29.8790625,25.8535375 Z" id="Fill-10" fill="#00A9E6" fill-rule="nonzero" mask="url(#mask-6)"></path>
            </g>
        </g>
    </g>
</svg>