<?xml version="1.0" encoding="UTF-8"?>
<svg width="123px" height="64px" viewBox="0 0 123 64" version="1.1" xmlns="http://www.w3.org/2000/svg" xmlns:xlink="http://www.w3.org/1999/xlink">
    <!-- Generator: Sketch 63.1 (92452) - https://sketch.com -->
    <title>deaf</title>
    <desc>Created with Sketch.</desc>
    <defs>
        <polygon id="path-1" points="0.173302778 0.607934694 41.3000556 0.607934694 41.3000556 57.9273224 0.173302778 57.9273224"></polygon>
    </defs>
    <g id="Page-1" stroke="none" stroke-width="1" fill="currentColor" fill-rule="evenodd">
        <g id="deaf">
            <g id="Group-3">
                <path d="M51.9869362,28.8772741 C51.8465106,29.6654222 51.5691702,31.1765333 51.370234,32.2337185 C51.1701277,33.2932741 50.8881064,34.7676444 50.7441702,35.5107556 C50.610766,36.198163 50.3392766,36.9578667 50.2175745,37.158163 C50.044383,37.446163 49.7389574,37.8017185 49.626617,37.8906074 C49.4686383,38.0174222 48.5933191,38.5709037 47.585766,39.1504593 L46.870766,39.5617185 C46.6671489,39.2666074 46.453,38.9786074 46.2564043,38.7463111 C45.7672553,38.1703111 44.7936383,37.0313481 44.0915106,36.2123852 C43.389383,35.3957926 42.3818298,34.2319407 41.8517234,33.6274963 C41.2771489,32.9720889 40.0215106,31.8117926 38.9928936,30.982163 C38.0028936,30.1869037 36.420766,29.0337185 35.4658723,28.4103111 C34.5472553,27.8129778 33.2471489,26.9537185 32.5789574,26.5009778 C31.8581064,26.0150519 30.9067234,25.4378667 30.4128936,25.1889778 C29.9459787,24.9507556 29.2578936,24.6603852 28.8494894,24.5679407 C28.3310851,24.4506074 27.6149149,24.5205333 27.170234,24.6390519 C26.6155532,24.7848296 25.8923617,25.216237 25.4488511,25.664237 C25.4114043,25.702163 25.3692766,25.7566815 25.3294894,25.8005333 L25.3072553,25.6725333 C25.2464043,25.3146074 25.2265106,25.1949037 20.5831064,19.2784593 C18.0765106,16.0843852 16.4499149,13.9237926 16.1327872,13.4497185 C16.0906596,13.3134222 16.0461915,13.1154963 16.0309787,13.0005333 C16.0064043,12.8073481 15.983,12.5098667 15.9794115,12.3380148 C15.9783191,12.2503111 16.0028936,12.0393481 16.0251277,11.9540148 C16.0450213,11.8805333 16.1327872,11.6672 16.1983191,11.558163 C16.274383,11.4313481 16.439383,11.2203852 16.5177872,11.1397926 C16.6020426,11.0532741 16.7845957,10.9098667 16.8653404,10.8612741 C17.0034255,10.7783111 17.2678936,10.6491259 17.4434255,10.5744593 C17.5253404,10.5412741 17.7406596,10.5057185 17.8295957,10.5116444 C18.0133191,10.5211259 18.3444894,10.5697185 18.5118298,10.6123852 C18.5878936,10.6313481 18.7669362,10.7131259 18.8827872,10.7818667 C19.3204468,11.2772741 21.5204468,14.0636444 24.8298085,18.4132741 C27.1526809,21.4651259 27.9414043,22.400237 29.0308723,21.6298667 C30.1718298,20.8286815 29.4053404,19.5794963 27.5528936,16.5632 C24.6531064,11.840237 22.401617,8.10216296 22.1933191,7.70157037 C21.9662979,7.26423704 21.6585319,6.54838519 21.5181064,6.1394963 C21.4069362,5.8112 21.3671489,5.3229037 21.389383,5.18305185 C21.4221489,4.9709037 21.5719362,4.60112593 21.6632128,4.47075556 C21.7767234,4.30957037 22.0786383,4.02512593 22.253,3.9149037 C22.4308723,3.8034963 22.7877872,3.66838519 22.9328936,3.64705185 C23.0475745,3.62927407 23.4009787,3.65653333 23.589383,3.71816296 C23.8795957,3.81534815 24.2177872,3.98127407 24.3078936,4.04171852 C24.3862979,4.09386667 24.6273617,4.3154963 24.766617,4.49564444 C24.9128936,4.68408889 25.2347021,5.16408889 25.4628936,5.55282963 C25.7027872,5.96053333 26.1544894,6.70364444 26.4669362,7.20734815 C26.7700213,7.69208889 27.3106596,8.59638519 27.6664043,9.21386667 C28.0315106,9.84675556 28.6692766,10.9347556 29.0835319,11.6316444 C29.490766,12.3166815 30.0992766,13.3632 30.4351277,13.9569778 C30.7791702,14.566163 31.3092766,15.4645333 31.6123617,15.9540148 C31.900234,16.4186074 32.3390638,17.1640889 32.5871489,17.6109037 C32.7755532,17.9463111 33.3431064,18.976237 34.3600213,18.6017185 C34.8421489,18.4286815 35.2669362,17.9048296 35.1335319,17.1309037 C35.0562979,16.6793481 34.8058723,15.9954963 34.5987447,15.552237 C34.4103404,15.1492741 33.9691702,14.1620148 33.6181064,13.3572741 C33.2623617,12.5418667 32.7790638,11.4408296 32.5450213,10.9134222 C32.3133191,10.3860148 31.9423617,9.53979259 31.7211915,9.02897778 C31.5070426,8.53357037 31.1711915,7.68971852 30.9745957,7.15638519 C30.7698085,6.59697778 30.5521489,5.91312593 30.4842766,5.64882963 C30.4199149,5.39757037 30.3742766,4.97564444 30.3789574,4.7954963 C30.3824681,4.68527407 30.4655532,4.35579259 30.5533191,4.19105185 C30.6504468,4.00853333 30.8411915,3.76794074 30.910234,3.7074963 C31.0389574,3.60557037 31.3572553,3.39934815 31.5725745,3.28912593 C31.713,3.21801481 31.9610851,3.14571852 32.043,3.13623704 C32.1658723,3.13742222 32.5321489,3.15757037 32.8036383,3.21208889 C32.9768298,3.24527407 33.198,3.34245926 33.2389574,3.36971852 C33.3126809,3.42897778 33.5045957,3.65060741 33.5865106,3.78571852 C33.7714043,4.11164444 35.9795957,8.44586667 38.9741702,14.3812741 C44.2939574,24.9211259 44.5900213,25.0846815 44.9270426,25.2695704 C45.3623617,25.5125333 45.9299149,25.5990519 46.3699149,25.4912 C46.8532128,25.3714963 47.3025745,24.9957926 47.5389574,24.710163 C47.9988511,24.1578667 48.1053404,22.9916444 48.1264043,22.3457185 C48.1533191,21.5658667 48.0690638,19.7477926 47.9356596,18.2070519 C47.8034255,16.6710519 47.7320426,15.4277926 47.734383,15.2654222 C47.750766,15.1812741 47.8572553,14.9110519 47.993,14.7143111 C48.1767234,14.4488296 48.4540638,14.1679407 48.5418298,14.1051259 C48.6834255,14.0079407 49.0403404,13.8206815 49.2825745,13.7270519 C49.3925745,13.6867556 49.7834255,13.6346074 50.0514043,13.670163 C50.2912979,13.6986074 50.6669362,13.856237 50.7745957,13.9392 C50.9325745,14.0612741 51.128,14.2900148 51.1701277,14.3658667 C51.2227872,14.4760889 51.3772553,14.9596444 51.4767234,15.4479407 C51.5586383,15.8532741 51.6897021,16.8523852 51.755234,17.6926815 C51.8184255,18.5152 51.9565106,20.0986074 52.0618298,21.2114963 C52.1612979,22.272237 52.2408723,24.1780148 52.235598,25.3738667 C52.2303404,26.5460148 52.1156596,28.1519407 51.9869362,28.8772741 L51.9869362,28.8772741 Z M45.2699149,45.4817185 C45.0592766,46.8150519 44.7515106,48.7137185 44.5876809,49.7009778 C44.4215106,50.6929778 44.1933191,52.0879407 44.0821489,52.7978667 C43.9698085,53.5018667 43.8247021,54.3931259 43.7603404,54.7771259 L43.483,56.4375704 C43.4022553,56.9294222 43.2524681,57.4568296 43.1986383,57.5800889 C43.1412979,57.7069037 43.0160851,57.8870519 42.9762979,57.9297185 C42.8405532,58.0494222 42.5831064,58.2473481 42.405234,58.3670519 C42.2811915,58.4512 42.0354468,58.5803852 41.865766,58.6514963 C41.0419362,58.7889778 35.2248085,59.4384593 27.4908723,60.2289778 C19.4608723,61.0503111 13.5606596,61.6180148 13.1955532,61.638163 C12.9544894,61.6156444 12.5612979,61.5966815 12.320234,61.5966815 C12.2348085,61.5966815 12.006617,61.5623111 11.9036383,61.5303111 C11.8217234,61.5030519 11.6145957,61.3928296 11.5198085,61.318163 C11.3945957,61.222163 11.2190638,61.0443852 11.1675745,60.9744593 C11.0821489,60.8594963 10.9522553,60.6366815 10.8785319,60.4814222 C10.8071489,60.3320889 10.7240638,60.0808296 10.7076809,59.9978667 C10.6760851,59.8366815 10.6409787,59.5996444 10.631617,59.5451259 C10.6351277,59.4977185 10.6632128,59.3460148 10.7053404,59.2298667 C10.7708723,59.0497185 10.9159787,58.7629037 10.9897021,58.6514963 C11.0798085,58.5140148 11.2623617,58.2971259 11.3512979,58.2129778 C11.4121489,58.1572741 11.6204468,58.0150519 11.6497021,57.9937185 C11.9410851,57.9119407 13.7818298,57.6215704 16.3469362,57.3110519 C21.5344894,56.6817185 21.5344894,56.6817185 21.7158723,55.7288296 L21.8773617,54.8672 L21.1155532,54.4547556 C20.8639574,54.3196444 20.7469362,54.2568296 16.8126809,54.2568296 C15.8624681,54.2568296 14.6887447,54.2603852 13.2376809,54.2674963 C9.218,54.2900148 6.53119149,54.2485333 5.9636383,54.2070519 C5.83257447,54.1560889 5.65002128,54.0707556 5.55406383,54.0114963 C5.3867234,53.9095704 5.13980851,53.7436444 5.00523404,53.6417185 C4.9373617,53.5907556 4.78874468,53.4390519 4.73725532,53.3703111 C4.69278723,53.3098667 4.58044681,53.1048296 4.53597872,52.9827556 C4.48565957,52.8464593 4.42246809,52.5857185 4.40959574,52.4719407 C4.39438298,52.3534222 4.39555319,52.1163852 4.40842553,52.0227556 C4.42948936,51.8627556 4.49034043,51.5759407 4.54417021,51.3839407 C4.56874468,51.2997926 4.67406383,51.1077926 4.73491489,51.0378667 C4.85310638,50.8992 5.09417021,50.6669037 5.23342553,50.5590519 C5.29778723,50.5092741 5.47331915,50.4156444 5.59970213,50.3658667 C6.21757447,50.3149037 9.61938298,50.2272 14.8642766,50.1845333 C18.3082128,50.1560889 19.7335319,50.1454222 19.7955532,48.7409778 C19.8564043,47.3377185 18.3585319,47.1919407 15.0760851,46.8719407 C9.99502128,46.3765333 5.69682979,45.9119407 5.24980851,45.8289778 C4.76768085,45.7389037 4.02225532,45.542163 3.61853191,45.3987556 C3.29555319,45.286163 2.893,45.0147556 2.79704255,44.9104593 C2.65544681,44.7563852 2.45768085,44.4032 2.41438298,44.2550519 C2.35938298,44.0630519 2.32544681,43.6458667 2.34651064,43.4432 C2.37225532,43.2144593 2.49395745,42.8494222 2.55948936,42.7320889 C2.61682979,42.6313481 2.85555319,42.3670519 3.02055319,42.2568296 C3.27682979,42.0837926 3.61385106,41.9178667 3.71331915,41.8846815 C3.80342553,41.8538667 4.12640426,41.798163 4.35225532,41.798163 C4.59097872,41.798163 5.16438298,41.8396444 5.60438298,41.8965333 C6.06778723,41.958163 6.92438298,42.0589037 7.50714894,42.1205333 C8.0723617,42.1797926 9.10682979,42.3089778 9.80661702,42.406163 C10.5239574,42.5080889 11.7632128,42.6740148 12.5589574,42.7735704 C13.3441702,42.8731259 14.5319362,43.0354963 15.1977872,43.1338667 C15.8847021,43.2369778 16.9098085,43.3709037 17.4761915,43.4313481 C18.0156596,43.4906074 18.8664043,43.6032 19.3672553,43.680237 C19.7440638,43.7394963 20.8885319,43.9160889 21.230234,42.8826074 C21.3928936,42.3919407 21.2512979,41.7306074 20.5667234,41.3549037 C20.1688511,41.1392 19.4842766,40.9152 19.0103404,40.8049778 C18.5808723,40.7066074 17.5428936,40.448237 16.7015106,40.230163 L14.1399149,39.5712 C13.5887447,39.4325333 12.7028936,39.2049778 12.1692766,39.0651259 C11.6520426,38.9288296 10.790766,38.6752 10.2548085,38.4997926 C9.67906383,38.3125333 9.02959574,38.0695704 8.78034043,37.9593481 C8.54629787,37.8550519 8.19055319,37.6310519 8.05480851,37.5172741 C7.9717234,37.4449778 7.76693617,37.1747556 7.69321277,37.0040889 C7.61129787,36.8132741 7.54225532,36.5134222 7.53874468,36.4197926 C7.53874468,36.256237 7.57502128,35.8746074 7.623,35.6316444 C7.65459574,35.4763852 7.7517234,35.2346074 7.79385106,35.1694222 C7.86289362,35.0686815 8.11565957,34.7889778 8.32395745,34.6064593 C8.45619149,34.4891259 8.668,34.3753481 8.7136383,34.3575704 C8.80491489,34.3374222 9.08693617,34.3208296 9.26012766,34.3386074 C9.67906383,34.4037926 14.4956596,35.3424593 20.806617,36.5999407 C32.2688511,38.880237 32.5824681,38.7427556 32.9464043,38.5898667 C33.291617,38.438163 33.7749149,38.0837926 34.0031064,37.5777185 C34.2078936,37.120237 34.1926809,36.5323852 34.1189574,36.1697185 C33.9750213,35.462163 33.1359787,34.656237 32.6468298,34.2366815 C32.059383,33.7365333 30.596617,32.6793481 29.3164043,31.8307556 C27.9928936,30.9537185 27.0309787,30.272237 26.9081064,30.1726815 C26.8531064,30.1074963 26.7091702,29.856237 26.6412979,29.6251259 C26.5500213,29.3157926 26.5032128,28.9211259 26.5078936,28.8085333 C26.5195957,28.6390519 26.5944894,28.2420148 26.6728936,27.9883852 C26.7103404,27.8757926 26.9127872,27.5332741 27.1035319,27.3400889 C27.274383,27.168237 27.6277872,26.9679407 27.7588511,26.9323852 C27.9519362,26.8814222 28.2503404,26.8648296 28.335766,26.880237 C28.4539574,26.9086815 28.924383,27.0829037 29.3655532,27.3080889 C29.7739574,27.5143111 30.6492766,28.0476444 31.2788511,28.4731259 C31.9564043,28.9306074 33.2705532,29.798163 34.1997021,30.4037926 C35.0855532,30.9809778 36.6138511,32.096237 37.5371489,32.8393481 C38.445234,33.5694222 39.6201277,34.6514963 40.1022553,35.2014222 C40.6276809,35.8011259 41.6282128,36.9554963 42.3256596,37.7685333 C43.0242766,38.5815704 43.994383,39.718163 44.4823617,40.294163 C44.9328936,40.8227556 45.3553404,41.5089778 45.4360851,41.7317926 C45.5519362,42.0458667 45.6385319,42.5092741 45.6385319,42.6526815 C45.6350213,42.880237 45.4934255,44.0666074 45.2699149,45.4817185 L45.2699149,45.4817185 Z M20.2355532,29.5492741 C17.2667234,26.4310519 15.0210851,24.0227556 14.8385319,23.8034963 C14.7062979,23.5972741 14.475766,23.270163 14.3271489,23.078163 C14.2744894,23.0106074 14.1598085,22.8079407 14.1223617,22.7060148 C14.0931064,22.6254222 14.0509787,22.3883852 14.0484119,22.2710519 C14.0462979,22.0992 14.0790638,21.8467556 14.096617,21.7780148 C14.1328936,21.6393481 14.2276809,21.3963852 14.3025745,21.2387556 C14.3727872,21.0929778 14.5167234,20.8713481 14.5717234,20.8049778 C14.6758723,20.6829037 14.8350213,20.5098667 14.8783191,20.4648296 C14.9169362,20.4387556 15.0503404,20.3676444 15.1661915,20.3297185 C15.3487447,20.2704593 15.6600213,20.2088296 15.7887447,20.198163 C15.9514043,20.1863111 16.2345957,20.198163 16.3539574,20.2147556 C16.4358723,20.2289778 16.6734255,20.3083852 16.7097021,20.3190519 C16.950766,20.4980148 18.3117234,21.7803852 20.1442766,23.6340148 C23.628,27.1634963 23.8304468,27.3649778 24.5536383,27.0023111 C24.5126809,27.0959407 24.4670426,27.1895704 24.4389574,27.2796444 C24.3137447,27.6897185 24.1978936,28.2763852 24.1733191,28.6414222 C24.1382128,29.1427556 24.265766,29.856237 24.3991702,30.3066074 C24.5548085,30.8280889 24.8965106,31.5249778 25.3131064,31.904237 C25.7308723,32.2870519 27.9425745,33.7519407 28.0361915,33.8147556 C29.2087447,34.5910519 30.629383,35.616237 31.1372553,36.0488296 C31.1758723,36.0820148 31.2144894,36.1152 31.250766,36.1483852 C30.0805532,35.9552 28.1134255,35.6008296 25.5260851,35.1066074 L20.2355532,29.5492741 Z M54.0886383,17.5077926 C54.020766,16.6378667 53.8803404,15.5237926 53.7691702,14.9726815 C53.6638511,14.4523852 53.4625745,13.7270519 53.2823617,13.344237 C53.0518298,12.8559407 52.5544894,12.3320889 52.1905532,12.0523852 C51.7365106,11.7015704 50.9536383,11.392237 50.3310851,11.3163852 C49.8126809,11.2547556 49.0017234,11.2986074 48.4505532,11.5119407 C48.0573617,11.6636444 47.5331064,11.9338667 47.2323617,12.1400889 C46.821617,12.4197926 46.3465106,12.9637926 46.0785319,13.350163 C45.7695957,13.7957926 45.440766,14.4986074 45.4044894,15.0663111 C45.3740638,15.5237926 45.5215106,17.4556444 45.6045957,18.4132741 C45.7262979,19.8248296 45.8105532,21.5895704 45.7871489,22.2651259 C45.7859787,22.3160889 45.7836383,22.3658667 45.7801277,22.4144593 C44.9247021,20.8452741 43.2594894,17.664237 41.0583191,13.3015704 C38.9788511,9.18068148 35.8064043,2.91816296 35.5887447,2.56023704 C35.3710851,2.19875556 35.0012979,1.76379259 34.7122553,1.52675556 C34.3190638,1.2032 33.6754468,0.966162963 33.2471489,0.884385185 C32.8750213,0.809718519 32.295766,0.749274074 31.9095957,0.770607407 C31.4426809,0.797866667 30.8622553,0.998162963 30.5158723,1.17357037 C30.1788511,1.34660741 29.7259787,1.63579259 29.4603404,1.84557037 C29.0776809,2.15253333 28.6891702,2.69534815 28.490234,3.07105185 C28.2398085,3.54512593 28.0537447,4.22542222 28.0397021,4.72794074 C28.0350213,4.90097778 28.044383,5.10601481 28.0642766,5.32171852 C27.8431064,4.95786667 27.6195957,4.5869037 27.4756596,4.34157037 C27.2135319,3.89712593 26.8320426,3.32112593 26.6061915,3.02957037 C26.3698085,2.72616296 25.9450213,2.29475556 25.5951277,2.06245926 C25.2592766,1.83845926 24.6975745,1.59312593 24.3160851,1.46631111 C23.8070426,1.29682963 23.0791702,1.22927407 22.5900213,1.30157037 C22.1184255,1.37268148 21.4549149,1.62631111 21.0184255,1.90127407 C20.580766,2.17623704 20.0506596,2.67875556 19.755766,3.09831111 C19.4491702,3.53445926 19.1648085,4.25742222 19.0770426,4.81445926 C18.9775745,5.45682963 19.1168298,6.35638519 19.3064043,6.91342222 C19.4772553,7.41594074 19.8201277,8.21357037 20.0974681,8.7552 C19.7838511,8.56557037 19.3988511,8.39608889 19.0910851,8.3154963 C18.7751277,8.23371852 18.2812979,8.16023704 17.9419362,8.14364444 C17.5101277,8.12823704 16.9320426,8.22186667 16.5411915,8.38779259 C16.2697021,8.50394074 15.8800213,8.69831111 15.6740638,8.82157037 C15.4154468,8.97564444 15.0690638,9.25060741 14.8537447,9.47342222 C14.6419362,9.69031111 14.3669362,10.0470519 14.1984255,10.3291259 C14.0217234,10.624237 13.8426809,11.0414222 13.7642766,11.3412741 C13.6835319,11.6446815 13.6332128,12.0772741 13.6390638,12.390163 C13.6449149,12.6212741 13.6753404,13.0325333 13.7092766,13.3003852 C13.750234,13.6274963 13.8614043,14.080237 13.9725745,14.3777185 C14.0135319,14.4855704 14.1211915,14.7712 16.4885319,17.8455704 C16.2041702,17.8206815 15.8636383,17.8147556 15.6038511,17.8349037 C15.2726809,17.862163 14.7858723,17.9629037 14.4441702,18.0754963 C14.1188511,18.1833481 13.6320426,18.4073481 13.3371489,18.6846815 C13.1967234,18.816237 12.9509787,19.078163 12.7918298,19.2677926 C12.5975745,19.4989037 12.3471489,19.8912 12.1997021,20.2017185 C12.0581064,20.4932741 11.9059787,20.8997926 11.8345957,21.1688296 C11.7561915,21.4686815 11.7047021,21.9332741 11.7082128,22.3006815 C11.7140638,22.694163 11.8065106,23.206163 11.9328936,23.5474963 C12.0545957,23.8698667 12.2827872,24.2799407 12.4899149,24.5466074 C12.6010851,24.6888296 12.7731064,24.9329778 12.870234,25.088237 C13.1054468,25.4556444 16.5306596,29.0728296 18.551617,31.1954963 L21.5333191,34.3279407 C21.4397021,34.3089778 21.3531064,34.2912 21.2583191,34.2734222 C16.9531064,33.4153481 9.96459574,32.0357926 9.54097872,31.9860148 L9.53980851,31.9860148 C9.1267234,31.9350519 8.56151064,31.9623111 8.19757447,32.0452741 C7.70257447,32.1590519 7.11980851,32.5252741 6.78980851,32.8156444 C6.5042766,33.0669037 6.09938298,33.4876444 5.87587234,33.8100148 C5.64417021,34.1454222 5.42065957,34.7036444 5.32821277,35.1670519 C5.25331915,35.5439407 5.19831915,36.0832 5.19831915,36.4197926 C5.19831915,36.9128296 5.37853191,37.5599407 5.54821277,37.9534222 C5.7623617,38.4464593 6.17544681,39.0153481 6.55576596,39.3365333 C6.68682979,39.4467556 6.85182979,39.5676444 7.03087234,39.6826074 C6.61310638,39.6352 6.18597872,39.5830519 5.90746809,39.5474963 C5.40310638,39.4799407 4.71970213,39.4277926 4.35225532,39.4277926 C3.97193617,39.4277926 3.37746809,39.4989037 2.97608511,39.6340148 C2.59576596,39.7620148 2.0586383,40.0571259 1.72278723,40.2834963 C1.27693617,40.5845333 0.774914894,41.1190519 0.528,41.5552 C0.291617021,41.9735704 0.0786382979,42.656237 0.0201276596,43.1800889 C-0.0360425532,43.6980148 0.0271489362,44.4292741 0.169914894,44.9246815 C0.319702128,45.4390519 0.703531915,46.112237 1.08268085,46.5246815 C1.52034043,47.0023111 2.30438298,47.4467556 2.85087234,47.6387556 C3.34353191,47.8129778 4.17438298,48.0334222 4.77002128,48.1495704 C4.43065957,48.2799407 4.06087234,48.4814222 3.80810638,48.678163 C3.54597872,48.8820148 3.18204255,49.2304593 2.96555319,49.4864593 C2.67885106,49.8194963 2.40034043,50.3386074 2.28917021,50.7474963 C2.20959574,51.0366815 2.11948936,51.4704593 2.08906383,51.7086815 C2.04810638,52.0097185 2.04810638,52.4565333 2.0867234,52.7670519 C2.12417021,53.0740148 2.233,53.5149037 2.34417021,53.8135704 C2.4623617,54.1347556 2.67534043,54.5353481 2.86491489,54.7925333 C3.05448936,55.046163 3.35640426,55.3531259 3.60097872,55.5380148 C3.78470213,55.6766815 4.1217234,55.9054222 4.34991489,56.0440889 C4.62491489,56.2112 5.04502128,56.4032 5.34576596,56.4992 C5.45693617,56.5335704 5.74597872,56.6260148 9.5936383,56.6426074 C9.40055319,56.8500148 9.18757447,57.1154963 9.04480851,57.3335704 C8.86108511,57.6085333 8.63757447,58.0612741 8.50885106,58.4120889 C8.39065957,58.7392 8.2642766,59.2666074 8.29821277,59.6743111 C8.31459574,59.8674963 8.36491489,60.2206815 8.41289362,60.4624593 C8.47842553,60.7978667 8.64225532,61.2423111 8.77097872,61.5113481 C8.91023404,61.8040889 9.13257447,62.1786074 9.29406383,62.3954963 C9.50704255,62.6846815 9.8592766,63.0165333 10.0956596,63.1990519 C10.4034255,63.4384593 10.8586383,63.6826074 11.2061915,63.7928296 C11.5350213,63.8959407 11.9925745,63.9670519 12.320234,63.9670519 C12.501617,63.9670519 12.7988511,63.9812741 12.9814043,63.9990519 C12.990766,63.9990519 13.0036383,64.000237 13.0211915,64.000237 C13.8005532,64.000237 22.5198085,63.1208296 27.7260851,62.5874963 C33.0599149,62.0423111 42.085766,61.0989037 42.6053404,60.9033481 C42.9447021,60.7765333 43.405766,60.5406815 43.7018298,60.3403852 C43.9592766,60.166163 44.3278936,59.8829037 44.5233191,59.7086815 C44.8591702,59.4076444 45.1786383,58.8980148 45.3319362,58.5519407 C45.5156596,58.1406815 45.7017234,57.3726815 45.7918298,56.8263111 L46.0656596,55.1789037 C46.1323617,54.7889778 46.2798085,53.8870519 46.3921489,53.1735704 C46.5044894,52.4672 46.7303404,51.0817185 46.8941702,50.0968296 C47.0603404,49.1048296 47.3681064,47.1966815 47.5799149,45.856237 C47.7414043,44.8429037 47.9789574,43.1540148 47.9789574,42.6550519 C47.9789574,42.3824593 47.9298085,42.0446815 47.8595957,41.7187556 L48.7419362,41.2114963 C49.4686383,40.7943111 50.6891702,40.0618667 51.0741702,39.7549037 C51.4790638,39.430163 51.9553404,38.8269037 52.2139574,38.3966815 C52.5591702,37.8266074 52.8903404,36.7433481 53.0412979,35.9658667 C53.185234,35.2215704 53.4684255,33.7412741 53.6685319,32.678163 C53.8698085,31.6150519 54.1494894,30.0909037 54.2910851,29.2968296 C54.444383,28.4316444 54.5695957,26.7143111 54.5760084,25.3857185 C54.5812979,24.1045333 54.499383,22.1312 54.3917234,20.9874963 C54.2875745,19.8852741 54.1518298,18.3208296 54.0886383,17.5077926 L54.0886383,17.5077926 Z" id="Fill-1"></path>
            </g>
            <g id="Group-6" transform="translate(81.000000, 3.000000)">
                <g id="Fill-4-Clipped">
                    <mask id="mask-2" fill="white">
                        <use xlink:href="#path-1"></use>
                    </mask>
                    <g id="path-3"></g>
                    <path d="M35.2863861,6.57838367 C31.4020528,2.72789388 26.2360806,0.607934694 20.7416361,0.607934694 C15.2483861,0.607934694 10.0824139,2.72789388 6.19808056,6.57838367 C2.31374722,10.4265061 0.174497222,15.5447102 0.173302778,20.9907918 C0.173302778,21.6441796 0.708413889,22.1744653 1.36774722,22.1744653 C2.02708056,22.1744653 2.56219167,21.6453633 2.56219167,20.9907918 C2.56338611,16.1779755 4.45419167,11.6539755 7.887025,8.25209796 C11.3210528,4.84903673 15.8862194,2.97528163 20.7416361,2.97528163 C25.5982472,2.97528163 30.1634139,4.84903673 33.5974417,8.25209796 C40.685275,15.2760163 40.6840806,26.706751 33.5950528,33.7330367 C29.6486083,37.6462612 27.4747194,42.8461388 27.4747194,48.3750776 C27.4747194,52.3368327 24.2222472,55.5599755 20.2256361,55.5599755 C16.2278306,55.5599755 12.9753583,52.3368327 12.9753583,48.3762612 C12.9753583,47.7216898 12.4414417,47.1925878 11.7809139,47.1925878 C11.1215806,47.1925878 10.5864694,47.7216898 10.5864694,48.3762612 C10.5864694,53.6424245 14.9103583,57.9273224 20.2256361,57.9273224 C25.5397194,57.9273224 29.8636083,53.6424245 29.8636083,48.3750776 C29.8636083,43.4782204 31.7890528,38.8725469 35.2851917,35.406751 C43.3046917,27.4583837 43.3058861,14.5255673 35.2863861,6.57838367" id="Fill-4" mask="url(#mask-2)"></path>
                </g>
            </g>
            <path d="M94.3051592,24.0705659 C94.3051592,19.3064185 97.9807355,15.4306874 102.5,15.4306874 C107.019265,15.4306874 110.694841,19.3064185 110.694841,24.0705659 C110.694841,28.8359286 107.019265,32.7116597 102.5,32.7116597 C99.2866081,32.7116597 96.6737102,35.4680592 96.6737102,38.8552222 C96.6737102,42.2436005 99.2866081,45 102.5,45 C103.136224,45 103.65258,44.455526 103.65258,43.7846563 C103.65258,43.1125712 103.136224,42.5693126 102.5,42.5693126 C100.557903,42.5693126 98.9788694,40.9030763 98.9788694,38.8552222 C98.9788694,36.807368 100.557903,35.1423471 102.5,35.1423471 C108.289407,35.1423471 113,30.1752374 113,24.0705659 C113,17.9671098 108.289407,13 102.5,13 C96.7094402,13 92,17.9671098 92,24.0705659 C92,24.742651 92.5163557,25.2859096 93.1525796,25.2859096 C93.7888035,25.2859096 94.3051592,24.742651 94.3051592,24.0705659" id="Fill-7"></path>
            <path d="M78.5780507,42.0125045 L73.3030903,42.0125045 L67.4207607,42.0125045 C66.8478605,42.0125045 66.3807448,42.4772962 66.3807448,43.047346 L66.3807448,43.853931 L60.7361331,39.499318 L66.3807448,35.1447049 L66.3807448,35.95129 C66.3807448,36.5213398 66.8478605,36.9861315 67.4207607,36.9861315 L78.5780507,36.9861315 C79.1509509,36.9861315 79.6180666,36.5213398 79.6180666,35.95129 L79.6180666,35.1447049 L85.2626783,39.499318 L79.6180666,43.853931 L79.6180666,43.047346 C79.6180666,42.4772962 79.1509509,42.0125045 78.5780507,42.0125045 L78.5780507,42.0125045 Z M79.2163233,32.2163992 C78.9037242,31.9751333 78.4746434,31.9325569 78.1204437,32.104045 C77.7662441,32.2778983 77.5380349,32.6409799 77.5380349,33.0336283 L77.5380349,34.9164485 L68.4607765,34.9164485 L68.4607765,33.0336283 C68.4607765,32.6409799 68.2325674,32.2778983 67.8795563,32.104045 C67.5265452,31.9325569 67.0962758,31.9751333 66.7836767,32.2163992 L58.4005547,38.6820889 C58.1497623,38.8772304 58,39.1823608 58,39.499318 C58,39.8162752 58.1497623,40.1214056 58.4017433,40.3165471 L66.7836767,46.7822368 C67.0962758,47.0246854 67.5265452,47.0684444 67.8795563,46.894591 C68.2325674,46.7207376 68.4607765,46.3576561 68.4607765,45.9650077 L68.4607765,44.0821875 L77.5380349,44.0821875 L77.5380349,45.9650077 C77.5380349,46.3576561 77.7662441,46.7207376 78.1204437,46.894591 C78.2642631,46.9643689 78.4199683,46.9986665 78.5768621,46.9986665 C78.8038827,46.9986665 79.0309033,46.9253406 79.2163233,46.7822368 L87.5982567,40.3165471 C87.8490491,40.1214056 88,39.8162752 88,39.499318 C88,39.1823608 87.8490491,38.8772304 87.5982567,38.6820889 L79.2163233,32.2163992 Z" id="Fill-9"></path>
        </g>
    </g>
</svg>