<?xml version="1.0" encoding="UTF-8"?>
<svg width="99px" height="76px" viewBox="0 0 99 76" version="1.1" xmlns="http://www.w3.org/2000/svg" xmlns:xlink="http://www.w3.org/1999/xlink">
    <!-- Generator: Sketch 63.1 (92452) - https://sketch.com -->
    <title>devices</title>
    <desc>Created with Sketch.</desc>
    <defs>
        <polygon id="path-1" points="0 0.489124528 98.7444928 0.489124528 98.7444928 76 0 76"></polygon>
    </defs>
    <g id="Page-1" stroke="none" stroke-width="1" fill="currentColor" fill-rule="evenodd">
        <g id="devices">
            <path d="M28.1420411,9.00068334 C28.1420411,7.37433374 29.8442498,6.0500205 31.939166,6.0500205 L35.060834,6.0500205 C37.1543222,6.0500205 38.8579589,7.37433374 38.8579589,9.00068334 C38.8579589,10.6270329 37.1543222,11.9499795 35.060834,11.9499795 L31.939166,11.9499795 C29.8442498,11.9499795 28.1420411,10.6270329 28.1420411,9.00068334 M41,9.00068334 C41,6.24272243 38.3353008,4 35.060834,4 L31.939166,4 C28.6632711,4 26,6.24272243 26,9.00068334 C26,11.7572776 28.6632711,14 31.939166,14 L35.060834,14 C38.3353008,14 41,11.7572776 41,9.00068334" id="Fill-1"></path>
            <path d="M31.0008795,8 C30.4485488,8 30,8.44639719 30,8.99824253 C30,9.55184534 30.4485488,10 31.0008795,10 C31.5532102,10 32,9.55184534 32,8.99824253 C32,8.44639719 31.5532102,8 31.0008795,8" id="Fill-3"></path>
            <path d="M34,8 C33.4472574,8 33,8.44725738 33,9 C33,9.55274262 33.4472574,10 34,10 C34.5527426,10 35,9.55274262 35,9 C35,8.44725738 34.5527426,8 34,8" id="Fill-5"></path>
            <path d="M37.0008795,10 C37.5514512,10 38,9.55184534 38,9 C38,8.44639719 37.5514512,8 37.0008795,8 C36.4485488,8 36,8.44639719 36,9 C36,9.55184534 36.4485488,10 37.0008795,10" id="Fill-7"></path>
            <g id="Group-11">
                <g id="Fill-9-Clipped">
                    <mask id="mask-2" fill="white">
                        <use xlink:href="#path-1"></use>
                    </mask>
                    <g id="path-1"></g>
                    <path d="M96.1995652,73.8492 L84.7444928,73.8492 C84.5386957,73.8492 84.3734783,73.6842943 84.3734783,73.4821057 L84.3734783,71.5835396 L96.5705797,71.5835396 L96.5705797,73.4821057 C96.5705797,73.6842943 96.403913,73.8492 96.1995652,73.8492 L96.1995652,73.8492 Z M51.2053623,73.4821057 L51.2053623,47.0269358 C51.2053623,46.8247472 51.372029,46.6598415 51.5763768,46.6598415 L91.7198551,46.6598415 C91.9256522,46.6598415 92.0923188,46.8247472 92.0923188,47.0269358 L92.0923188,51.5668604 L89.5836232,51.5668604 L89.5836232,51.3861811 C89.5836232,49.9966717 88.4401449,48.8667094 87.0386957,48.8667094 L56.2575362,48.8667094 C54.856087,48.8667094 53.714058,49.9966717 53.714058,51.3861811 L53.714058,69.1228604 C53.714058,70.5123698 54.856087,71.6423321 56.2575362,71.6423321 L82.1995652,71.6423321 L82.1995652,73.4821057 C82.1995652,73.6082943 82.2184058,73.7287472 82.2357971,73.8492 L51.5763768,73.8492 C51.372029,73.8492 51.2053623,73.6842943 51.2053623,73.4821057 L51.2053623,73.4821057 Z M84.3734783,69.4325962 L96.5705797,69.4325962 L96.5705797,57.9135774 L84.3734783,57.9135774 L84.3734783,69.4325962 Z M87.4097101,51.5668604 L84.7444928,51.5668604 C83.3401449,51.5668604 82.1995652,52.6968226 82.1995652,54.0863321 L82.1995652,69.4913887 L56.2575362,69.4913887 C56.0546377,69.4913887 55.887971,69.326483 55.887971,69.1228604 L55.887971,51.3861811 C55.887971,51.1825585 56.0546377,51.0176528 56.2575362,51.0176528 L87.0386957,51.0176528 C87.2415942,51.0176528 87.4097101,51.1825585 87.4097101,51.3861811 L87.4097101,51.5668604 Z M96.5705797,54.0863321 L96.5705797,55.762634 L84.3734783,55.762634 L84.3734783,54.0863321 C84.3734783,53.8827094 84.5386957,53.7178038 84.7444928,53.7178038 L96.1995652,53.7178038 C96.403913,53.7178038 96.5705797,53.8827094 96.5705797,54.0863321 L96.5705797,54.0863321 Z M39.4242029,59.3332 L27.5401449,59.3332 L2.54594203,59.3332 C2.34014493,59.3332 2.17347826,59.1682943 2.17347826,58.9661057 L2.17347826,56.7133509 L49.0314493,56.7133509 L49.0314493,59.3332 L39.4242029,59.3332 Z M40.1865217,73.6656528 L26.7792754,73.6656528 C28.03,70.9382566 28.4850725,66.0398415 28.6053623,61.4841434 L38.3604348,61.4841434 C38.4792754,66.0398415 38.9343478,70.9382566 40.1865217,73.6656528 L40.1865217,73.6656528 Z M27.5662319,20.4484453 C27.5662319,20.0655774 27.8792754,19.5221057 28.2662319,19.5221057 L39.5647826,19.5221057 C39.9517391,19.5221057 40.2662319,20.0655774 40.2662319,20.4484453 L40.2662319,20.5488226 L27.5662319,20.5488226 L27.5662319,20.4484453 Z M38.6894203,17.0556906 L38.6894203,18.1870868 L29.1401449,18.1870868 L29.1401449,17.0556906 C30.4923188,17.2076906 32.0981159,17.3166717 33.9155072,17.3166717 C35.7343478,17.3166717 37.3401449,17.2076906 38.6894203,17.0556906 L38.6894203,17.0556906 Z M25.0430435,14.3239925 L24.6430435,14.2064075 C23.5111594,13.9196151 20.8778261,13.4435396 20.8778261,8.99252075 C20.8778261,4.68776604 23.9126087,3.93493585 25.0430435,3.6481434 C26.103913,3.37282264 29.345942,2.64006792 33.9155072,2.64006792 C38.4923188,2.64006792 41.7285507,3.37138868 42.787971,3.6481434 C43.9198551,3.93493585 46.9546377,4.68776604 46.9546377,8.99252075 C46.9546377,13.4435396 43.9198551,14.0372 42.787971,14.3239925 C41.7285507,14.6021811 38.4923188,15.3320679 33.9155072,15.3320679 C29.345942,15.3320679 26.103913,14.6021811 25.0430435,14.3239925 L25.0430435,14.3239925 Z M94.2662319,51.5668604 L94.2662319,47.0269358 C94.2662319,45.6388604 93.1242029,44.5088981 91.7198551,44.5088981 L51.5763768,44.5088981 C50.1734783,44.5088981 49.0314493,45.6388604 49.0314493,47.0269358 L49.0314493,54.5624075 L2.17347826,54.5624075 L2.17347826,23.0682943 C2.17347826,22.8646717 2.34014493,22.699766 2.54594203,22.699766 L25.3923188,22.699766 L25.3923188,22.7198415 L27.5662319,22.7198415 L40.2662319,22.7198415 L42.4401449,22.7198415 L42.4401449,22.699766 L65.4937681,22.699766 C65.6995652,22.699766 65.8647826,22.8646717 65.8647826,23.0682943 L65.8647826,44.5088981 L68.0386957,44.5088981 L68.0386957,23.0682943 C68.0386957,21.6787849 66.8981159,20.5488226 65.4937681,20.5488226 L42.4401449,20.5488226 L42.4401449,20.4484453 C42.4401449,19.3787094 41.8415942,18.254483 40.8633333,17.7095774 L40.8633333,17.0556906 L40.8633333,16.9252 C42.0024638,16.7330491 42.845942,16.5337283 43.3415942,16.4046717 L43.4430435,16.3802943 C47.214058,15.442483 49.1285507,12.9545585 49.1285507,8.99252075 C49.1285507,6.27516226 48.1242029,2.78059623 43.3415942,1.56889811 C42.0995652,1.24338868 38.6923188,0.489124528 33.9155072,0.489124528 C29.1488406,0.489124528 25.7372464,1.24338868 24.4908696,1.56746415 C19.7082609,2.78059623 18.703913,6.27516226 18.703913,8.99252075 C18.703913,14.9535019 22.6749275,15.935766 23.9792754,16.2598415 L24.0676812,16.2813509 L24.4271014,16.3874642 C24.9517391,16.5236906 25.8155072,16.7273132 26.9662319,16.9223321 L26.9662319,17.0556906 L26.9662319,17.7095774 C25.9908696,18.254483 25.3923188,19.3787094 25.3923188,20.4484453 L25.3923188,20.5488226 L2.54594203,20.5488226 C1.1415942,20.5488226 -0.000434782609,21.6787849 -0.000434782609,23.0682943 L-0.000434782609,58.9661057 C-0.000434782609,60.3541811 1.1415942,61.4841434 2.54594203,61.4841434 L26.4256522,61.4841434 C26.2357971,67.5827849 25.2763768,73.1164453 24.2792754,73.6656528 L21.3401449,73.6656528 C20.7401449,73.6656528 20.2531884,74.1474642 20.2531884,74.7411245 C20.2531884,75.3347849 20.7401449,75.8165962 21.3401449,75.8165962 L46.7010145,75.8165962 C47.3010145,75.8165962 47.787971,75.3347849 47.787971,74.7411245 C47.787971,74.1474642 47.3010145,73.6656528 46.7010145,73.6656528 L42.6865217,73.6656528 C41.687971,73.1164453 40.73,67.5827849 40.5386957,61.4841434 L49.0314493,61.4841434 L49.0314493,73.4821057 C49.0314493,74.8701811 50.1734783,76.0001434 51.5763768,76.0001434 L84.7444928,76.0001434 L96.1995652,76.0001434 C97.6024638,76.0001434 98.7444928,74.8701811 98.7444928,73.4821057 L98.7444928,54.0863321 C98.7444928,52.6968226 97.6024638,51.5668604 96.1995652,51.5668604 L94.2662319,51.5668604 Z" id="Fill-9" mask="url(#mask-2)"></path>
                </g>
            </g>
        </g>
    </g>
</svg>