<?xml version="1.0" encoding="UTF-8"?>
<svg width="16px" height="25px" viewBox="0 0 16 25" version="1.1" xmlns="http://www.w3.org/2000/svg" xmlns:xlink="http://www.w3.org/1999/xlink">
    <!-- Generator: Sketch 60.1 (88133) - https://sketch.com -->
    <title>facebook</title>
    <desc>Created with Sketch.</desc>
    <g id="Page-1" stroke="none" stroke-width="1" fill="none" fill-rule="evenodd">
        <g id="facebook" transform="translate(1.000000, 1.000000)" stroke="#00A8E1" stroke-width="2">
            <path d="M3.6905,13.4092045 L0.352,13.4092045 L0.352,7.71940909 L3.6905,7.71940909 L3.6905,5.99752273 C3.6905,2.36665945 6.0727792,0.118840909 9.663,0.118840909 C10.864847,0.118840909 12.1531494,0.194226906 12.7717383,0.271679408 L13.6475,0.381332095 L13.6475,5.56476129 L12.6479661,5.56522716 L10.5995,5.56618182 C9.74208512,5.56618182 9.6835,5.6326404 9.6835,6.36359091 L9.6835,7.71988636 L13.6568411,7.71988636 L12.8873654,13.4096818 L9.6835,13.4096818 L9.6835,21.8806818 L7.6835,21.8806818 L7.6835,21.8802045 L8.6835,21.8802045 L8.6835,22.8802045 L3.6905,22.8802045 L3.6905,13.4092045 Z" id="Facebook"></path>
        </g>
    </g>
</svg>