<?xml version="1.0" encoding="UTF-8"?>
<svg width="35px" height="22px" viewBox="0 0 35 22" version="1.1" xmlns="http://www.w3.org/2000/svg" xmlns:xlink="http://www.w3.org/1999/xlink">
    <!-- Generator: Sketch 63.1 (92452) - https://sketch.com -->
    <title>Features</title>
    <desc>Created with Sketch.</desc>
    <g id="Page-1" stroke="none" stroke-width="1" fill="currentColor" fill-rule="evenodd">
        <g id="Features">
            <path d="M33.5686,2.1525 L6.4686,2.1525 C6.0546,2.1525 5.7186,1.8165 5.7186,1.4025 C5.7186,0.9885 6.0546,0.6525 6.4686,0.6525 L33.5686,0.6525 C33.9826,0.6525 34.3186,0.9885 34.3186,1.4025 C34.3186,1.8165 33.9826,2.1525 33.5686,2.1525" id="Fill-1"></path>
            <path d="M26.9177,8.4054 L6.4687,8.4054 C6.0547,8.4054 5.7187,8.0694 5.7187,7.6554 C5.7187,7.2414 6.0547,6.9054 6.4687,6.9054 L26.9177,6.9054 C27.3317,6.9054 27.6677,7.2414 27.6677,7.6554 C27.6677,8.0694 27.3317,8.4054 26.9177,8.4054" id="Fill-3"></path>
            <path d="M33.5686,14.6588 L6.4686,14.6588 C6.0546,14.6588 5.7186,14.3228 5.7186,13.9088 C5.7186,13.4948 6.0546,13.1588 6.4686,13.1588 L33.5686,13.1588 C33.9826,13.1588 34.3186,13.4948 34.3186,13.9088 C34.3186,14.3228 33.9826,14.6588 33.5686,14.6588" id="Fill-5"></path>
            <path d="M22.5949,20.9122 L6.4689,20.9122 C6.0549,20.9122 5.7189,20.5762 5.7189,20.1622 C5.7189,19.7482 6.0549,19.4122 6.4689,19.4122 L22.5949,19.4122 C23.0089,19.4122 23.3449,19.7482 23.3449,20.1622 C23.3449,20.5762 23.0089,20.9122 22.5949,20.9122" id="Fill-7"></path>
            <path d="M2.8044,1.4025 C2.8044,2.1765 2.1774,2.8045 1.4024,2.8045 C0.6274,2.8045 0.0004,2.1765 0.0004,1.4025 C0.0004,0.6285 0.6274,0.0005 1.4024,0.0005 C2.1774,0.0005 2.8044,0.6285 2.8044,1.4025" id="Fill-9"></path>
            <path d="M2.8044,7.6554 C2.8044,8.4294 2.1774,9.0574 1.4024,9.0574 C0.6274,9.0574 0.0004,8.4294 0.0004,7.6554 C0.0004,6.8814 0.6274,6.2534 1.4024,6.2534 C2.1774,6.2534 2.8044,6.8814 2.8044,7.6554" id="Fill-11"></path>
            <path d="M2.8044,13.9088 C2.8044,14.6828 2.1774,15.3108 1.4024,15.3108 C0.6274,15.3108 0.0004,14.6828 0.0004,13.9088 C0.0004,13.1348 0.6274,12.5068 1.4024,12.5068 C2.1774,12.5068 2.8044,13.1348 2.8044,13.9088" id="Fill-13"></path>
            <path d="M2.8044,20.1622 C2.8044,20.9362 2.1774,21.5642 1.4024,21.5642 C0.6274,21.5642 0.0004,20.9362 0.0004,20.1622 C0.0004,19.3872 0.6274,18.7602 1.4024,18.7602 C2.1774,18.7602 2.8044,19.3872 2.8044,20.1622" id="Fill-15"></path>
        </g>
    </g>
</svg>