<?xml version="1.0" encoding="UTF-8"?>
<svg width="105px" height="95px" viewBox="0 0 105 95" version="1.1" xmlns="http://www.w3.org/2000/svg" xmlns:xlink="http://www.w3.org/1999/xlink">
    <!-- Generator: Sketch 60.1 (88133) - https://sketch.com -->
    <title>hands2</title>
    <desc>Created with Sketch.</desc>
    <defs>
        <polygon id="path-1" points="0 0 105 0 105 95 0 95"></polygon>
    </defs>
    <g id="Page-1" stroke="none" stroke-width="1" fill="currentColor" fill-rule="evenodd">
        <g id="hands2">
            <g id="path-1"></g>
            <path d="M102.14182,75.8812021 C94.7658107,76.5173457 81.2618637,84.0418516 77.7024771,86.7358814 C73.039833,90.2672449 63.5602032,91.558693 63.4058615,91.577854 C52.3428001,93.5265228 33.0843844,89.5621218 32.8500136,89.5142194 C27.3261047,88.5350948 16.5660103,86.6151674 15.3446148,86.3277531 C13.6525724,85.9943526 12.423555,84.4883017 12.423555,82.7465712 C12.423555,81.2865067 13.1247618,80.1138564 14.3118592,79.54286 C15.6780691,78.9297096 17.4996824,78.7438483 19.5785319,79.0101856 C25.1615098,79.7172247 34.0999909,80.4606696 37.5774431,80.7385034 C37.4307232,81.4493747 37.3621268,82.1774909 37.4535886,82.9151876 C37.8937483,86.4925373 41.1311133,89.0984268 44.9000998,89.0984268 C45.237365,89.0984268 45.5765357,89.0792658 45.9214227,89.0351956 L63.0057164,86.9044978 C63.3829961,86.8316862 72.3005172,85.1033683 77.5824335,80.9646027 C78.2055167,80.4759984 78.3179385,79.5754336 77.8320479,78.9488705 C77.3461573,78.3223074 76.4467834,78.21309 75.8256057,78.697862 C71.0962708,82.4035902 62.5617458,84.0648447 62.5655567,84.0648447 L45.5689139,86.184046 C42.9527266,86.5021178 40.574721,84.8849334 40.288903,82.56071 C40.1536158,81.4589552 40.5023138,80.3591166 41.2721169,79.4585518 C42.0762181,78.5196652 43.2328282,77.912263 44.6238091,77.7359823 C46.2110516,77.429407 60.2370928,74.6012505 63.6497595,70.222973 C63.6650032,70.2018959 63.6688141,70.1750706 63.6840577,70.1539935 C64.3261954,69.6328157 64.9206969,69.0752319 65.421831,68.452501 C65.9172489,67.8355184 66.2754741,67.2185357 66.5784412,66.6092174 C67.8493785,66.0018152 72.8530986,63.9765026 80.4501406,65.6664986 C81.229471,65.8389472 81.9840305,65.3484268 82.1555213,64.5743243 C82.3251066,63.7983058 81.839216,63.0318677 81.0675075,62.8594191 C74.9548135,61.4970754 70.3340895,62.2865067 67.603575,63.139169 C67.6111968,63.0682735 67.6226295,62.9916297 67.6283459,62.9264825 C71.168678,62.2807584 73.8591779,59.2878177 73.8591779,55.6893909 C73.8591779,55.0570795 73.7505671,54.4515934 73.5943199,53.8671843 C78.0454587,53.5663574 89.6553852,53.3249294 102.14182,57.5211779 L102.14182,75.8812021 Z M10.3351783,79.6041751 C8.95563016,79.1941307 7.97813266,78.5388261 7.46366028,77.6286809 C6.83295527,76.5154296 6.98539153,75.2680516 7.08447509,74.7622025 C12.2025225,73.4918314 16.5507667,74.007261 16.6784321,74.0225898 C16.8518283,74.0321702 32.4289084,74.932735 46.8912984,74.310004 C45.9233282,74.5380194 45.0010888,74.7372933 44.177933,74.8982453 C42.1753017,75.1473376 40.3727429,76.101553 39.1056166,77.5846107 C39.0046275,77.7014925 38.9379367,77.8356192 38.8464749,77.9563332 C36.7142728,77.7896329 26.1828328,76.9484671 19.9348516,76.1590359 C17.3072316,75.8294675 15.0206878,76.080476 13.1152346,76.9331384 C11.8862172,77.5232957 10.9449233,78.4602662 10.3351783,79.6041751 L10.3351783,79.6041751 Z M2.85817984,51.0984268 C4.93131295,50.0905607 10.0055349,47.0669625 14.3042374,40.0291448 C20.0129752,30.6862646 33.2234824,27.9577451 33.2673079,27.9443324 C33.3663914,27.9328358 41.6055712,26.8368294 47.927865,26.3290641 C47.9755013,26.3348124 48.0155158,26.3558895 48.0631522,26.3558895 C48.171763,26.3558895 48.2670357,26.3175676 48.3680247,26.2945744 C49.4712821,26.2102662 50.5154705,26.1412868 51.4262771,26.104881 C57.6094728,25.8845301 64.8654387,27.3311819 65.0254968,27.3618395 C67.338717,27.6894917 69.0841121,29.6515732 69.0841121,31.9298104 C69.0841121,34.4111537 66.9328555,36.430718 64.2880864,36.430718 L51.8664368,36.430718 L47.1618728,36.430718 C46.3711097,36.430718 45.7327829,37.074526 45.7327829,37.8677894 C45.7327829,38.6610528 46.3711097,39.3048608 47.1618728,39.3048608 L51.8664368,39.3048608 L64.2880864,39.3048608 L68.9926504,39.3048608 C71.6374195,39.3048608 73.7886762,41.3263413 73.7886762,43.8096006 C73.7886762,46.29286 71.6374195,48.3105083 68.9926504,48.3105083 L66.2049723,48.3105083 L49.9609836,48.3105083 L47.1714001,48.3105083 C46.3825424,48.3105083 45.7423101,48.9543163 45.7423101,49.7475797 C45.7423101,50.5408431 46.3825424,51.1846511 47.1714001,51.1846511 L49.9609836,51.1846511 L66.2049723,51.1846511 C67.8550948,51.1846511 69.3127665,51.9721662 70.1778423,53.1678096 C70.2254786,53.2827753 70.2826422,53.3824123 70.3569549,53.478217 C70.7551946,54.1335216 71.0009981,54.8807987 71.0009981,55.6893909 C71.0009981,58.1726503 68.8478359,60.1922146 66.2049723,60.1922146 L45.2659468,60.1922146 C44.4770892,60.1922146 43.8368569,60.8341065 43.8368569,61.629286 C43.8368569,62.4225494 44.4770892,63.0663574 45.2659468,63.0663574 L64.7453952,63.0663574 C64.6215407,64.0109923 64.2480719,65.3599234 63.1562472,66.6973578 C61.065965,69.257261 57.2340985,70.7556474 51.7635423,71.1541952 C36.3255603,72.2846914 17.0385627,71.1656918 16.9432901,71.1618596 C16.6346067,71.1235377 9.90073496,70.303449 2.85817984,73.0951997 L2.85817984,51.0984268 Z M38.1833772,7.69695442 C38.1833772,5.03741428 40.0793031,2.8741428 42.4096724,2.8741428 C44.7400417,2.8741428 46.6340622,5.03741428 46.6340622,7.69695442 L46.6340622,23.5526422 C42.5011342,23.910952 37.8880319,24.4627874 35.1632338,24.8057685 C37.5469558,19.5345906 38.0881045,10.0173457 38.1833772,7.69695442 L38.1833772,7.69695442 Z M104.045368,55.1375555 C89.2266582,49.9008673 75.6483985,50.7496975 72.1423646,51.0907624 C72.0204156,50.9470553 71.9060884,50.7975998 71.7746121,50.6634732 C74.6213592,49.5847116 76.646856,46.9290036 76.646856,43.8096006 C76.646856,40.1421944 73.8477452,37.114764 70.2064241,36.5495159 C71.2753834,35.2810609 71.942292,33.6868697 71.942292,31.9298104 C71.942292,28.2279145 69.1393703,25.0414482 65.5094819,24.5298507 C65.2007985,24.4647035 57.8628981,22.9758975 51.3157608,23.2345704 C50.7498412,23.2575635 50.1324744,23.2939693 49.4922421,23.3342073 L49.4922421,7.69695442 C49.4922421,3.45280355 46.3158516,0 42.4096724,0 C38.5034933,0 35.3251974,3.45280355 35.3271028,7.63755547 C35.054623,14.1446148 33.6388712,23.9569383 31.346611,25.461073 C27.51665,26.4766035 17.1224027,29.929407 11.8690681,38.5250101 C6.99110788,46.5074627 1.00036294,48.7856999 0.947010253,48.8067769 C0.379185192,49.0117991 0,49.5540541 0,50.1595401 L0,75.3063735 C0,75.8045583 0.255330732,76.2663372 0.676435895,76.5288423 C0.906995735,76.6725494 1.16613737,76.7434449 1.42908992,76.7434449 C1.64631159,76.7434449 1.86543871,76.6936265 2.06741675,76.5920734 C2.75719082,76.2452602 3.4545867,75.9520976 4.14817167,75.6857604 C4.14436077,76.6533885 4.3101352,77.8451997 4.95608384,79.0082695 C5.85355231,80.6235377 7.42555122,81.7444534 9.58824063,82.3729326 C9.58252427,82.4974788 9.56537519,82.6201089 9.56537519,82.7465712 C9.56537519,85.8583098 11.7642682,88.5504236 14.7443971,89.1386648 C16.2859087,89.4988907 31.6991199,92.2274102 32.3126758,92.3366277 C32.9586244,92.4707543 45.2449868,95 56.0527175,95 C58.8175302,95 61.4870701,94.8332997 63.836494,94.4194232 C64.2556937,94.3638564 74.1545232,93.0206737 79.4231014,89.0313635 C83.6265312,85.8468132 98.0527175,78.333804 103.471827,78.7246874 C103.877688,78.7476805 104.254968,78.6154699 104.546502,78.3433844 C104.836131,78.0712989 105,77.689996 105,77.2914482 L105,56.4941509 C105,55.8829165 104.617004,55.3406616 104.045368,55.1375555 L104.045368,55.1375555 Z" id="Fill-1" fill-rule="nonzero" mask="url(#mask-2)"></path>
        </g>
    </g>
</svg>