<svg xmlns="http://www.w3.org/2000/svg" viewBox="0 0 500 500">
  <g id="Icons" fill="none" fill-rule="evenodd" stroke="none" stroke-width="1">
    <g id="Frontend" fill="currentColor" fill-rule="nonzero" transform="translate(-2501 -1002)">
      <g id="ico-airplane" transform="translate(2549 1054)">
        <path id="Path" d="M313.34073,14.8680477 L243.331318,84.8770123 L51.2659809,46.279326 C41.6858553,44.3516178 31.7871081,47.3379652 24.8736887,54.251384 L10.3767536,68.7483176 L9.93603226,69.199052 C-4.40807186,84.1739891 0.999051254,109.027204 20.4438001,116.597076 L157.995542,170.211817 L93.381662,234.82569 L49.0620799,231.108649 C40.496104,230.380245 32.0518395,233.468656 25.9719413,239.548554 L2.1178937,263.402599 L1.94356323,263.582875 C-1.1822833,266.9261 -0.450281276,272.337288 3.51103397,274.713404 L79.6284295,320.370614 L125.286608,396.488966 C127.705927,400.522305 133.271686,401.207834 136.597414,397.882107 L160.451462,374.028061 L160.77992,373.694284 C166.638747,367.644133 169.60751,359.331026 168.890488,350.927531 L165.173362,306.617383 L229.786278,242.00351 L283.403909,379.580627 C291.054175,399.202679 316.360565,404.514395 331.251714,389.623247 L345.748649,375.126314 L346.079602,374.788592 C352.746776,367.875095 355.614073,358.143472 353.720359,348.732287 L315.122054,156.668706 L385.131989,86.6592998 C404.956004,66.8352877 404.956004,34.6920598 385.131989,14.8680477 L384.535268,14.280919 C364.64266,-4.97687474 332.943807,-4.73502661 313.34073,14.8680477 Z M374.049917,24.2596276 L374.437178,24.6275791 L374.950355,25.1325073 C389.086662,39.2691488 389.086662,62.2581987 374.908774,76.4360855 L302.160518,149.184334 C300.449757,150.895096 299.70824,153.34826 300.184919,155.720218 L339.546294,351.582577 C340.517283,356.408099 339.004442,361.409327 335.514639,364.913918 L321.028499,379.400033 C313.515657,386.912875 300.734469,384.230152 296.874498,374.32977 L239.238561,226.44001 C237.344011,221.578728 231.080745,220.2641 227.391478,223.953368 L152.578507,298.766331 C151.073971,300.270867 150.308671,302.361821 150.486502,304.482112 L154.484141,352.146273 L154.511674,352.527403 C154.759652,356.717862 153.200719,360.832375 150.228246,363.804847 L132.92088,381.110759 L91.0971278,311.383612 L90.9246555,311.110132 C90.3301799,310.212633 89.5419101,309.458032 88.6163964,308.902881 L18.8882792,267.078169 L36.1951566,249.771768 C39.2631419,246.703783 43.51892,245.147272 47.8454136,245.515171 L95.5178971,249.513513 C97.6381883,249.691344 99.7291425,248.926044 101.233679,247.421508 L176.046649,172.608544 C179.735806,168.919388 178.421386,162.656332 173.560345,160.761594 L25.6916078,103.125301 C15.7695161,99.2626138 13.0848247,86.501416 20.604973,78.966523 L35.096904,64.4745983 C38.501233,61.0702697 43.334034,59.5542823 48.0613624,60.3865583 L244.279806,99.8151098 C246.651764,100.291789 249.104928,99.5502721 250.81569,97.8395107 L323.563946,25.091262 C337.443151,11.2120579 359.803009,10.903729 374.049917,24.2596276 Z"/>
      </g>
    </g>
  </g>
</svg>
