<?xml version="1.0" encoding="UTF-8"?>
<svg width="70px" height="81px" viewBox="0 0 70 81" version="1.1" xmlns="http://www.w3.org/2000/svg" xmlns:xlink="http://www.w3.org/1999/xlink">
    <!-- Generator: Sketch 63.1 (92452) - https://sketch.com -->
    <title>hands3</title>
    <desc>Created with Sketch.</desc>
    <g id="Page-1" stroke="none" stroke-width="1" fill="currentColor" fill-rule="evenodd">
        <g id="hands3">
            <path d="M67.035888,35.63671 C66.854805,36.64172 66.497165,38.56573 66.239122,39.9133 C65.981078,41.26237 65.618911,43.1396 65.433301,44.08576 C65.255235,44.9957 64.897596,45.97355 64.730093,46.24669 C64.490158,46.63602 64.081211,47.10532 63.922763,47.23057 C63.711499,47.39506 62.600855,48.09072 61.266874,48.84825 L60.196973,49.45639 C59.905731,49.03084 59.594871,48.61586 59.31721,48.29142 C58.686436,47.55803 57.430924,46.10786 56.527017,45.06814 C55.623109,44.02691 54.322326,42.54504 53.640246,41.77695 C52.90384,40.95 51.295216,39.48021 49.976325,38.43294 C48.705724,37.42189 46.671554,35.95813 45.443205,35.1674 C44.257109,34.40534 42.580579,33.30979 41.717414,32.73485 C40.793889,32.11917 39.576104,31.39031 38.943821,31.07492 C38.349264,30.77613 37.481573,30.41547 36.97303,30.30079 C36.333202,30.15743 35.447403,30.24495 34.898116,30.38831 C34.213018,30.56638 33.313637,31.09454 32.762842,31.64684 C32.633065,31.77662 32.494235,31.93808 32.356913,32.11615 L32.260335,31.55328 C32.192429,31.15942 32.163757,30.99645 26.206114,23.4996 C22.926996,19.37391 20.821902,16.60938 20.443136,16.045 C20.384284,15.85939 20.317887,15.57871 20.29676,15.41573 C20.265071,15.16071 20.233381,14.77289 20.2284945,14.54955 C20.225836,14.41676 20.259034,14.13457 20.293742,14.0063 C20.322414,13.90218 20.443136,13.61245 20.539714,13.45098 C20.637801,13.29102 20.853592,13.01185 20.975823,12.88811 C21.098054,12.76588 21.350062,12.57122 21.464748,12.5018 C21.64734,12.39466 21.994417,12.22414 22.23737,12.12454 C22.34602,12.07927 22.668952,12.0174 22.81231,12.03098 C23.056773,12.04306 23.503445,12.10794 23.729799,12.16529 C23.86863,12.2015 24.200616,12.35392 24.25645,12.38561 C24.588436,12.70401 26.937993,15.50024 30.485718,19.92169 C32.663246,22.63342 33.761818,23.89798 35.014312,23.01973 C36.262278,22.14449 35.460984,20.69884 33.678822,17.77133 C30.782997,13.0194 28.54209,9.2589 28.264429,8.72923 C27.968659,8.16636 27.56424,7.24435 27.381647,6.71468 C27.230744,6.27555 27.171892,5.62818 27.2066,5.40635 C27.254889,5.10454 27.463135,4.60355 27.592911,4.41945 C27.752868,4.1946 28.163324,3.81131 28.404768,3.66191 C28.66583,3.50045 29.145701,3.32389 29.356965,3.2922 C29.545594,3.26504 30.031501,3.3088 30.289544,3.3918 C30.663783,3.51403 31.121019,3.73284 31.258341,3.82338 C31.382081,3.90336 31.70954,4.20667 31.896659,4.44359 C32.089815,4.68956 32.512343,5.31128 32.809621,5.81077 C33.117463,6.32837 33.698439,7.27302 34.10135,7.90983 C34.493697,8.53155 35.189359,9.68445 35.65263,10.47367 C36.121938,11.27798 36.942849,12.66327 37.477045,13.54907 C38.003696,14.42279 38.788391,15.75677 39.221482,16.51129 C39.665136,17.28693 40.347217,18.42775 40.735037,19.04796 C41.107767,19.64252 41.676671,20.59623 41.998094,21.16815 C42.244065,21.60275 42.891438,22.75716 44.056408,22.34368 C44.561933,22.1626 45.096128,21.61784 44.931644,20.67922 C44.835067,20.12541 44.512135,19.25621 44.257109,18.719 C44.014155,18.20442 43.443743,16.94589 42.991034,15.91975 C42.53229,14.88154 41.909061,13.47965 41.607255,12.80662 C41.306959,12.13662 40.828597,11.05766 40.543391,10.40727 C40.265729,9.77348 39.831129,8.69603 39.577613,8.01244 C39.307497,7.28207 39.028326,6.42193 38.937785,6.07485 C38.850261,5.73532 38.7899,5.18301 38.797445,4.93704 C38.803481,4.75445 38.924203,4.30778 39.044926,4.08142 C39.19281,3.80527 39.462926,3.48385 39.556486,3.40689 C39.730024,3.27108 40.146516,3.00398 40.443795,2.85307 C40.649023,2.75046 41.000626,2.65087 41.11833,2.64181 C41.281305,2.63577 41.774758,2.66746 42.145978,2.73839 C42.404022,2.78819 42.720918,2.92853 42.791843,2.97682 C42.897474,3.06434 43.160045,3.35709 43.285295,3.56232 C43.514667,3.95768 46.362203,9.47469 50.237387,17.05907 C57.070267,30.42604 57.461105,30.64032 57.842889,30.84856 C58.239763,31.06436 58.924862,31.26053 59.566199,31.10812 C60.141139,30.96627 60.681371,30.51809 60.969595,30.17705 C61.547553,29.49195 61.66073,27.92407 61.683366,27.28122 C61.718073,26.29432 61.609423,23.99003 61.438903,22.03433 C61.265365,20.05298 61.173314,18.46397 61.180859,18.23762 C61.200477,18.12293 61.346852,17.74416 61.546044,17.46198 C61.80107,17.09679 62.181345,16.72104 62.302067,16.63805 C62.493714,16.50978 62.970567,16.26079 63.298026,16.13705 C63.445911,16.08122 63.992179,16.01029 64.37849,16.05254 C64.721039,16.0948 65.241654,16.3121 65.400102,16.43282 C65.647583,16.62145 65.914681,16.94589 65.967497,17.04699 C66.048984,17.216 66.254212,17.87092 66.376443,18.46699 C66.497165,19.05249 66.661649,20.37289 66.740119,21.35074 C66.821606,22.39499 66.999672,24.40954 67.133975,25.82652 C67.265261,27.20577 67.366366,29.59154 67.3595739,31.14433 C67.351275,32.64733 67.203391,34.70413 67.035888,35.63671 L67.035888,35.63671 Z M58.374067,56.77518 C58.102442,58.47434 57.705568,60.89181 57.494304,62.14883 C57.280022,63.41188 56.98727,65.1865 56.842403,66.09041 C56.697537,66.98677 56.510417,68.12307 56.427421,68.61199 L56.069781,70.72312 C55.965658,71.34937 55.770993,72.04352 55.687997,72.22612 C55.603491,72.41474 55.423917,72.66977 55.356011,72.73617 C55.176436,72.89462 54.833887,73.15115 54.59697,73.3096 C54.400796,73.44088 54.000903,73.64309 53.911871,73.68535 C53.241862,73.82267 45.595617,74.66923 35.28141,75.71046 C24.89326,76.75924 17.283231,77.48206 16.816941,77.5047 C16.5091,77.47602 16.006593,77.45188 15.698751,77.45188 C15.570484,77.45188 15.258115,77.40661 15.102685,77.35681 C14.998562,77.32361 14.702793,77.17422 14.55189,77.05953 C14.369298,76.91919 14.127853,76.67624 14.062965,76.58872 C13.948279,76.4348 13.770214,76.13299 13.669109,75.92323 C13.57404,75.72857 13.460863,75.39658 13.4337,75.2653 C13.392957,75.05554 13.344668,74.74619 13.334104,74.64056 C13.337122,74.57416 13.376357,74.35837 13.439736,74.18483 C13.530278,73.93886 13.724943,73.55859 13.826048,73.40768 C13.939225,73.23716 14.183687,72.94592 14.3195,72.81765 C14.407023,72.73617 14.695248,72.5415 14.782771,72.49472 C15.143429,72.3906 17.518639,72.01938 20.868682,71.61798 C27.4239,70.83328 27.4239,70.83328 27.630637,69.75433 L27.807193,68.80062 L26.956101,68.34037 C26.672404,68.18796 26.52301,68.10647 21.445131,68.10647 C20.230363,68.10647 18.731898,68.111 16.883339,68.12005 C11.613812,68.1457 8.143048,68.09289 7.460967,68.04158 C7.276865,67.97217 7.017313,67.85144 6.875464,67.76694 C6.655146,67.63414 6.330705,67.41986 6.15264,67.28556 C6.048517,67.20709 5.847816,67.00639 5.767837,66.89925 C5.702949,66.81323 5.549028,66.53859 5.48414,66.36203 C5.419252,66.19 5.331728,65.84142 5.310602,65.66939 C5.287966,65.49887 5.290984,65.18197 5.309093,65.04918 C5.336255,64.83942 5.417743,64.46217 5.488667,64.20714 C5.520357,64.09396 5.672769,63.81178 5.770855,63.6986 C5.93383,63.51148 6.259781,63.20213 6.445391,63.06028 C6.558568,62.97276 6.883009,62.80676 6.941861,62.78262 C7.397588,62.71773 11.049436,62.60003 16.717345,62.54419 C20.192637,62.51099 21.867658,62.42498 21.952164,60.90086 C22.035161,59.37825 20.403901,59.11417 17.001043,58.70673 C11.468946,58.04276 7.128981,57.47989 6.548005,57.37275 C5.91874,57.25656 4.943908,57.00304 4.418766,56.82045 C3.97813,56.66653 3.433371,56.31191 3.280959,56.14893 C3.074222,55.92409 2.807124,55.44874 2.743745,55.23446 C2.666785,54.96887 2.618496,54.41053 2.650185,54.12834 C2.683384,53.82352 2.841832,53.3361 2.947464,53.152 C3.042533,52.98601 3.377537,52.62988 3.602382,52.48048 C3.93135,52.26167 4.385568,52.03683 4.542507,51.98401 C4.681337,51.93874 5.120464,51.86631 5.423779,51.86631 C5.734639,51.86631 6.484626,51.91912 7.062584,51.99458 C7.65865,52.07305 8.76024,52.1998 9.511736,52.27676 C10.240597,52.35372 11.579105,52.51821 12.484522,52.64346 C13.408047,52.77173 15.004599,52.98148 16.030738,53.10975 C17.043296,53.23651 18.576468,53.44324 19.438123,53.57 C20.320905,53.69978 21.639795,53.8703 22.367147,53.94877 C23.064318,54.02271 24.165908,54.16456 24.813281,54.26566 C25.306734,54.34262 26.61657,54.54182 27.010426,53.37685 C27.180947,52.86679 27.08286,52.11077 26.24384,51.65806 C25.744352,51.38946 24.879679,51.11179 24.285122,50.97598 C23.731308,50.85073 22.388273,50.51875 21.303282,50.24259 C20.201691,49.96041 18.715299,49.58315 18.000019,49.40508 C17.287758,49.22702 16.142406,48.93578 15.457307,48.75771 C14.787298,48.58417 13.672127,48.25973 12.976465,48.0364 C12.241568,47.79948 11.390476,47.4856 11.059999,47.34073 C10.738576,47.20039 10.26625,46.90462 10.076113,46.74768 C9.937282,46.63149 9.66113,46.26027 9.558516,46.02486 C9.431758,45.73664 9.347252,45.32467 9.344234,45.20697 C9.344234,44.98363 9.392523,44.49169 9.457411,44.16574 C9.502682,43.94089 9.641513,43.60287 9.70791,43.50478 C9.799961,43.37199 10.131947,43.0068 10.42168,42.75631 C10.617854,42.58428 10.922677,42.42432 11.007183,42.39716 C11.138468,42.36698 11.526289,42.34434 11.775278,42.3715 C12.274767,42.44545 18.35615,43.61494 26.67844,45.24922 C41.415609,48.14655 41.821537,47.96698 42.215394,47.79948 C42.631886,47.6199 43.21437,47.2019 43.487504,46.60282 C43.731967,46.06259 43.713859,45.36089 43.623317,44.92478 C43.442234,44.04803 42.281791,42.9887 41.789848,42.57371 C41.042879,41.94445 39.123395,40.57576 37.513262,39.52246 C35.850313,38.43445 34.545004,37.523 34.369957,37.37662 C34.291487,37.29061 34.08475,36.94202 33.985154,36.61154 C33.858396,36.18449 33.796526,35.65331 33.80558,35.50392 C33.822179,35.27756 33.921775,34.75091 34.027407,34.41138 C34.075696,34.26048 34.354866,33.78815 34.629509,33.51351 C34.873972,33.26905 35.365915,32.99591 35.559071,32.94611 C35.860876,32.86614 36.280386,32.85859 36.392054,32.8767 C36.576156,32.91895 37.215984,33.1619 37.763761,33.43655 C38.294939,33.70214 39.434255,34.38573 40.252148,34.93199 C41.124366,35.51297 42.817496,36.61909 44.015664,37.38869 C45.182143,38.14019 47.119735,39.53453 48.332994,40.50031 C49.510036,41.4344 51.035663,42.8227 51.664928,43.53195 C52.343991,44.29401 53.63421,45.76531 54.53359,46.8005 C55.435989,47.8372 56.686974,49.28436 57.314729,50.01322 C57.919849,50.71794 58.467627,51.60374 58.579295,51.90403 C58.737743,52.33109 58.852429,52.94225 58.852429,53.14596 C58.85092,53.42815 58.666818,54.94623 58.374067,56.77518 L58.374067,56.77518 Z M25.770005,36.59042 C21.920474,32.59753 19.024649,29.53118 18.786223,29.24598 C18.62023,28.98642 18.328988,28.57748 18.140359,28.33905 C18.060381,28.23644 17.901933,27.96179 17.844589,27.8124 C17.805355,27.70828 17.740467,27.38233 17.7386656,27.19521 C17.735939,26.96433 17.778192,26.62329 17.806864,26.51464 C17.856662,26.32903 17.984929,26.00609 18.086034,25.79634 C18.18563,25.5896 18.380294,25.29534 18.461782,25.20329 C18.599104,25.04032 18.811877,24.81396 18.888837,24.73851 C18.941653,24.70078 19.134809,24.59968 19.311365,24.54234 C19.558845,24.46236 19.978355,24.37936 20.160948,24.36427 C20.366175,24.35069 20.743433,24.35974 20.929043,24.38842 C21.046747,24.40652 21.377224,24.51216 21.470784,24.55441 C21.77259,24.77171 23.532116,26.40749 25.920908,28.79478 C30.589841,33.46371 30.588332,33.4622 31.564673,32.95668 L31.91175,32.77559 C31.742739,33.0608 31.591836,33.35204 31.50733,33.62518 C31.347373,34.13523 31.204016,34.86409 31.172326,35.3168 C31.130073,35.9023 31.282485,36.79263 31.456023,37.36908 C31.641634,37.98929 32.073216,38.86301 32.580249,39.31874 C33.008813,39.70354 35.049019,41.06619 36.067613,41.73318 C37.579659,42.72009 39.420674,44.02993 40.086155,44.59128 C40.312509,44.78293 40.511701,44.97307 40.671658,45.14057 C39.272789,44.92478 36.482596,44.43434 32.633065,43.7085 L25.770005,36.59042 Z M69.764211,25.57602 C69.629908,24.17262 69.453351,22.17769 69.371864,21.144 C69.285849,20.04091 69.106275,18.63298 68.962917,17.93732 C68.828614,17.28542 68.576606,16.38 68.351761,15.90919 C68.069573,15.31916 67.45238,14.67631 66.999672,14.33074 C66.433786,13.90218 65.463481,13.52341 64.690859,13.43136 C64.044995,13.35138 63.038473,13.41024 62.35941,13.66828 C61.864449,13.85691 61.205004,14.19342 60.821711,14.44996 C60.335804,14.78043 59.730683,15.45195 59.385116,15.94389 C59.013895,16.47054 58.594385,17.3488 58.549114,18.03088 C58.511389,18.60129 58.701526,21.04894 58.807158,22.26521 C58.965606,24.0685 59.074256,26.3245 59.044075,27.19219 C59.033512,27.48796 59.007859,27.76109 58.97466,27.99197 C57.984738,26.23396 55.707614,21.95888 52.589962,15.85788 C49.908419,10.61099 45.818953,2.64181 45.54431,2.19514 C45.275703,1.75299 44.816958,1.22031 44.45781,0.92755 C43.97643,0.53823 43.181172,0.24849 42.643958,0.14437 C42.177668,0.05534 41.457862,-0.02162 40.970446,0.00554 C40.390979,0.03723 39.672681,0.28471 39.248644,0.49899 C38.818571,0.71629 38.248159,1.07544 37.923718,1.33047 C37.448374,1.7032 36.965485,2.37169 36.718004,2.83346 C36.411672,3.40538 36.174754,4.25798 36.158155,4.86008 C36.144574,5.30525 36.213989,5.95865 36.322639,6.4838 C35.931801,5.86359 35.374969,4.95817 35.0792,4.4617 C34.747214,3.90336 34.261306,3.17752 33.971573,2.81082 C33.678822,2.43658 33.150662,1.90691 32.711535,1.61718 C32.290516,1.33952 31.5858,1.03771 31.108947,0.88228 C30.476664,0.67404 29.578792,0.58953 28.969145,0.68007 C28.383642,0.7676 27.561222,1.07695 27.013444,1.41799 C26.468685,1.75601 25.807731,2.37471 25.442546,2.88778 C25.062271,3.42198 24.707649,4.30778 24.598999,4.99439 C24.47375,5.78361 24.648797,6.88973 24.885715,7.57633 C25.11056,8.22974 25.567795,9.2755 25.925435,9.95607 C26.006923,10.1115 26.194042,10.43896 26.459631,10.89469 C26.188006,10.59137 25.987305,10.38614 25.890727,10.31673 C25.486308,10.02549 24.852516,9.7267 24.381699,9.60748 C23.984825,9.50638 23.363105,9.41433 22.939068,9.3932 C22.401854,9.36906 21.697138,9.48827 21.220285,9.68746 C20.874718,9.83082 20.378248,10.07679 20.120204,10.23071 C19.80029,10.41934 19.370217,10.75586 19.098592,11.03201 C18.831494,11.30212 18.487435,11.74427 18.283717,12.08078 C18.067926,12.4354 17.840062,12.96055 17.741976,13.32422 C17.645398,13.68941 17.58051,14.22964 17.588055,14.60689 C17.594091,14.89814 17.634835,15.41121 17.677087,15.74772 C17.728394,16.15063 17.867225,16.70897 18.006055,17.07416 C18.132814,17.40765 19.309856,18.99666 21.510019,21.8125 C21.44664,21.79892 21.384769,21.78685 21.327426,21.7778 C20.941115,21.71894 20.363157,21.69933 19.951193,21.73253 C19.546773,21.76422 18.922036,21.89248 18.49649,22.0298 C18.093579,22.15958 17.494495,22.43271 17.135346,22.76621 C16.95879,22.9322 16.649439,23.25664 16.453266,23.48753 C16.180131,23.80442 15.873799,24.30693 15.710824,24.64042 C15.559921,24.95279 15.353184,25.46435 15.255097,25.83708 C15.146447,26.24603 15.093631,26.84511 15.098158,27.22841 C15.104194,27.70073 15.221899,28.34056 15.377328,28.74951 C15.523704,29.13733 15.811929,29.64889 16.063936,29.97031 C16.210312,30.15743 16.438175,30.47583 16.567952,30.67654 C16.88183,31.16395 22.235861,36.72925 23.870139,38.42389 L28.130125,42.84232 C27.813229,42.78045 27.514442,42.72311 27.188492,42.65822 C21.410423,41.52343 12.621843,39.81219 12.090665,39.74881 C11.576087,39.68845 10.874389,39.71863 10.424698,39.82125 C9.818069,39.95857 9.099771,40.40524 8.689316,40.76137 C8.328658,41.07525 7.818607,41.59888 7.545473,41.98972 C7.211977,42.46506 6.95997,43.18336 6.867919,43.64965 C6.77285,44.11896 6.703435,44.78897 6.703435,45.20697 C6.703435,45.81058 6.92828,46.60282 7.138035,47.08269 C7.399097,47.67876 7.924239,48.39102 8.386001,48.77733 C8.727042,49.06103 9.282364,49.40961 9.763744,49.64955 C9.033374,49.57259 7.978564,49.45186 7.405133,49.37641 C6.759269,49.29191 5.88856,49.22551 5.423779,49.22551 C4.945417,49.22551 4.202975,49.31303 3.704996,49.47903 C3.226634,49.63898 2.555116,50.00417 2.137116,50.28334 C1.584811,50.65154 0.961583,51.30646 0.65525,51.84065 C0.362499,52.35372 0.098419,53.19274 0.025985,53.8371 C-0.044939,54.4724 0.03353,55.3748 0.210087,55.97992 C0.395697,56.60767 0.87255,57.43462 1.346385,57.94467 C1.888126,58.52867 2.864467,59.07494 3.551075,59.31487 C4.199957,59.53972 5.304566,59.82794 6.065116,59.96979 C6.237145,60.00148 6.609875,60.0558 7.133508,60.12824 C6.724561,60.1554 6.440864,60.18558 6.326178,60.21878 C5.844798,60.35761 5.218551,60.67149 4.836767,60.96575 C4.512326,61.21474 4.056599,61.64481 3.77592,61.96774 C3.424317,62.37367 3.081767,63.00445 2.944446,63.49941 C2.843341,63.86006 2.731673,64.40181 2.690929,64.69757 C2.641131,65.06729 2.641131,65.61506 2.68942,65.99987 C2.737709,66.37561 2.872012,66.91886 3.010843,67.28858 C3.15571,67.67791 3.428844,68.18192 3.656707,68.48524 C3.88457,68.79006 4.269372,69.17335 4.56816,69.3982 C4.80055,69.57174 5.227605,69.85845 5.517339,70.03048 C5.861397,70.23873 6.38503,70.47413 6.765305,70.59335 C7.154634,70.71558 9.706401,70.75934 12.655042,70.76839 C12.603735,70.81065 12.555446,70.85139 12.513193,70.89214 C12.229496,71.15923 11.856766,71.60138 11.628903,71.94242 C11.404057,72.27893 11.117342,72.85085 10.961912,73.27338 C10.815536,73.67176 10.658598,74.30857 10.699341,74.79599 C10.718959,75.03593 10.783847,75.47958 10.844208,75.7829 C10.91815,76.14657 11.10527,76.68831 11.292389,77.07462 C11.46291,77.42774 11.745098,77.90006 11.950326,78.17169 C12.205351,78.51122 12.644479,78.92469 12.947793,79.15708 C13.32505,79.4438 13.898481,79.74711 14.313464,79.87689 C14.710338,80.00063 15.292823,80.09268 15.698751,80.09268 C15.935669,80.09268 16.323489,80.11079 16.567952,80.13342 C16.578515,80.13493 16.595114,80.13493 16.614732,80.13493 C17.637853,80.13493 30.137133,78.88395 35.545489,78.33768 C41.076078,77.77934 54.014485,76.4529 54.687511,76.20391 C55.107021,76.04999 55.697051,75.75121 56.062236,75.50674 C56.386677,75.28944 56.852967,74.93482 57.100447,74.71752 C57.513921,74.35385 57.906268,73.73364 58.097915,73.30658 C58.325778,72.79804 58.559677,71.84282 58.674364,71.15923 L59.028985,69.06017 C59.115,68.56521 59.303628,67.41684 59.450004,66.50841 C59.593362,65.60903 59.886113,63.84497 60.097377,62.58946 C60.311659,61.32641 60.708533,58.89838 60.981668,57.19318 C61.188404,55.90899 61.493228,53.7707 61.493228,53.14596 C61.493228,52.77173 61.414759,52.30393 61.310636,51.86027 L62.572183,51.14348 C63.506272,50.61382 65.071134,49.68727 65.555532,49.30549 C66.059547,48.90861 66.654104,48.16014 66.983072,47.62443 C67.410127,46.92575 67.838691,45.54046 68.024302,44.5943 C68.209912,43.64512 68.575097,41.76186 68.833141,40.40977 C69.092694,39.05315 69.453351,37.11556 69.635944,36.10451 C69.832118,35.01197 69.990566,32.84048 70.000344,31.15641 C70.007165,29.53118 69.901533,27.02771 69.764211,25.57602 L69.764211,25.57602 Z" id="Fill-1"></path>
        </g>
    </g>
</svg>