<?xml version="1.0" encoding="UTF-8"?>
<svg width="65px" height="55px" viewBox="0 0 65 55" version="1.1" xmlns="http://www.w3.org/2000/svg" xmlns:xlink="http://www.w3.org/1999/xlink">
    <!-- Generator: Sketch 60.1 (88133) - https://sketch.com -->
    <title>heart</title>
    <desc>Created with Sketch.</desc>
    <defs>
        <polygon id="path-1" points="0 0 65 0 65 55 0 55"></polygon>
    </defs>
    <g id="Page-1" stroke="none" stroke-width="1" fill="currentColor" fill-rule="evenodd">
        <g id="heart">
            <mask id="mask-2" fill="white">
                <use xlink:href="#path-1"></use>
            </mask>
            <g id="path-1"></g>
            <path d="M16.7843658,2.71102896 C8.11111814,2.71102896 2.74209538,10.0985829 2.74209538,16.943931 C2.74209538,26.4379544 12.8316353,34.5967961 12.9330929,34.6781269 L32.5006855,51.8321627 L52.0189205,34.7187924 C52.1683647,34.5967961 62.2579046,26.4135551 62.2579046,16.943931 C62.2579046,10.0985829 56.8902529,2.71102896 48.2170052,2.71102896 C39.5355312,2.71102896 33.6482524,10.1826248 33.5892974,10.2571781 C33.3301694,10.5906346 32.9270814,10.7871842 32.5020566,10.7871842 L32.5006855,10.7871842 C32.0742897,10.7871842 31.6725727,10.5906346 31.4134447,10.2585336 C31.3544897,10.1839803 25.4301926,2.71102896 16.7843658,2.71102896 M32.5006855,55 C32.1757472,55 31.8494379,54.8861368 31.5916809,54.6584104 L11.1630703,36.746642 C10.7544981,36.4226741 0,27.7202711 0,16.943931 C0,7.60036969 7.52979392,0 16.7843658,0 C24.5636904,0 30.2288595,4.97609365 32.5006855,7.36857671 C34.7725115,4.97609365 40.4376806,0 48.2170052,0 C57.4715771,0 65,7.60036969 65,16.943931 C65,27.7202711 54.246873,36.4226741 53.788943,36.788663 L33.4096901,54.6584104 C33.1519332,54.8861368 32.8256238,55 32.5006855,55" id="Fill-1" mask="url(#mask-2)"></path>
        </g>
    </g>
</svg>