<?xml version="1.0" encoding="UTF-8"?>
<svg width="90px" height="79px" viewBox="0 0 90 79" version="1.1" xmlns="http://www.w3.org/2000/svg" xmlns:xlink="http://www.w3.org/1999/xlink">
    <!-- Generator: Sketch 60.1 (88133) - https://sketch.com -->
    <title>hi5</title>
    <desc>Created with Sketch.</desc>
    <defs>
        <polygon id="path-1" points="0 0.479291342 89.6571429 0.479291342 89.6571429 63.9997156 0 63.9997156"></polygon>
    </defs>
    <g id="Page-1" stroke="none" stroke-width="1" fill="currentColor" fill-rule="evenodd">
        <g id="hi5">
            <g id="Group-3" transform="translate(0.000000, 15.000000)">
                <g id="Fill-1-Clipped">
                    <mask id="mask-2" fill="white">
                        <use xlink:href="#path-1"></use>
                    </mask>
                    <g id="path-1"></g>
                    <path d="M87.1445714,20.3403378 C87.1002857,20.5166933 86.9117143,20.9277156 86.7617143,21.14816 C86.496,21.5278933 82.5317143,26.5725156 76.5917143,34.0605156 C66.5331429,46.7438933 66.4988571,47.2374044 66.4702857,47.6342044 C66.4374286,48.1248711 66.5731429,48.8331378 66.9545714,49.3181156 C67.3031429,49.7575822 67.9402857,50.0861156 68.4117143,50.2155378 C69.3217143,50.4658489 70.986,49.8230044 71.4717143,49.6210489 C72.446,49.2157156 74.7102857,48.0523378 76.5188571,47.0283378 C78.4131429,45.9531378 79.9445714,45.1453156 80.1874286,45.0471822 C80.3174286,45.0102044 80.7902857,44.9789156 81.2002857,45.0528711 C81.7017143,45.1438933 82.2717143,45.3614933 82.4174286,45.4496711 C82.6417143,45.58336 83.1074286,45.9460267 83.3931429,46.2247822 C83.5488571,46.37696 83.876,46.9046044 84.0102857,47.3227378 C84.1302857,47.69536 84.1617143,48.3325156 84.1031429,48.5899378 C84.0202857,48.9568711 83.8031429,49.3963378 83.7188571,49.5015822 C83.5774286,49.6694044 83.0188571,50.1714489 82.4674286,50.57536 C81.9417143,50.9579378 80.7074286,51.7202489 79.7688571,52.2422044 C78.7788571,52.7911822 76.8731429,53.8720711 75.5374286,54.6429156 C74.2374286,55.3924267 71.9231429,56.5700267 70.3788571,57.2669156 C68.8802857,57.9396267 66.7702857,58.7275378 65.7702857,58.9835378 C64.6974286,59.2594489 62.6374286,59.7757156 61.1917143,60.1284267 C59.7445714,60.48256 57.726,60.9703822 56.7088571,61.2150044 C55.6974286,61.4567822 54.5617143,61.5506489 54.1974286,61.5008711 C53.7088571,61.4439822 53.0331429,61.2534044 52.8017143,61.13536 C52.536,60.9988267 51.156,60.0701156 49.5088571,58.8683378 C48.5402857,58.1586489 47.576,57.4532267 46.9231429,56.9739378 C47.9574286,56.2045156 49.1802857,55.3028267 49.8617143,54.8050489 C50.666,54.2176711 51.6788571,53.4710044 52.116,53.1424711 L53.9645714,51.7671822 C54.5602857,51.3248711 55.3545714,50.63936 55.7217143,50.1828267 C56.0245714,49.8045156 56.4131429,49.1474489 56.5531429,48.5984711 C56.6388571,48.2614044 56.7474286,47.6498489 56.7945714,47.2374044 C56.8474286,46.7766044 56.8445714,46.0782933 56.7874286,45.6160711 C56.6945714,44.8509156 51.0888571,30.5703822 49.3731429,26.2126933 C48.7088571,24.5259378 47.4574286,21.3543822 46.156,18.0718933 C46.1688571,18.0462933 46.1931429,18.0278044 46.2045714,17.99936 L48.036,13.3458489 C49.126,10.5824711 49.9317143,8.67811556 50.046,8.45909333 C50.226,8.18176 50.4945714,7.71527111 50.6417143,7.42798222 C50.7188571,7.27722667 50.9345714,6.98424889 51.0617143,6.85624889 C51.166,6.74958222 51.476,6.53056 51.676,6.43669333 C51.916,6.32291556 52.2874286,6.20629333 52.4188571,6.18353778 C52.5917143,6.15509333 53.0017143,6.12380444 53.2945714,6.13233778 C53.5445714,6.13802667 53.936,6.19491556 54.0888571,6.23758222 C54.3174286,6.30300444 54.6474286,6.41251556 54.7845714,6.46798222 C54.8531429,6.50496 55.0588571,6.66140444 55.2131429,6.82922667 C55.416,7.04682667 55.6917143,7.43082667 55.796,7.61571556 C55.9131429,7.82478222 56.0788571,8.21589333 56.1374286,8.42353778 C56.1802857,8.57144889 56.2245714,8.96824889 56.2217143,9.11047111 C56.1502857,9.49589333 55.3317143,11.9620267 54.0445714,15.4208711 C51.6002857,21.9844267 51.6002857,21.9844267 52.4374286,22.6301156 C52.866,22.9629156 53.4688571,22.97856 53.9188571,22.6727822 C54.2274286,22.4608711 54.3831429,22.3542044 59.0631429,13.1694933 C61.6874286,8.01678222 63.4688571,4.69447111 63.8288571,4.11989333 C63.9902857,3.97056 64.2617143,3.75864889 64.4288571,3.65624889 C64.6717143,3.50549333 65.0474286,3.29642667 65.2688571,3.18833778 C65.4102857,3.12007111 65.7245714,3.01909333 65.8802857,2.99207111 C66.0231429,2.96789333 66.3788571,2.96078222 66.5902857,2.98353778 C66.8102857,3.00913778 67.1974286,3.09873778 67.3845714,3.16558222 C67.5617143,3.23100444 67.8888571,3.39740444 68.0288571,3.49269333 C68.2217143,3.62780444 68.556,3.89944889 68.7717143,4.09856 C68.8802857,4.19811556 69.0974286,4.50816 69.1702857,4.68736 C69.2745714,4.94904889 69.4145714,5.42407111 69.4631429,5.68433778 C69.496,5.87207111 69.4917143,6.28878222 69.4774286,6.39118222 C69.3202857,6.84771556 67.6274286,10.4146489 64.8531429,15.92576 C63.0574286,19.4941156 62.5388571,20.8068267 63.776,21.5278933 C65.0117143,22.2432711 65.8917143,21.1680711 68.1045714,17.9069156 C71.4945714,12.9063822 74.1902857,9.01091556 74.5774286,8.51029333 C75.0102857,7.95420444 75.746,7.13216 76.1845714,6.71544889 C76.5517143,6.36700444 77.1888571,5.99153778 77.4745714,5.91189333 C77.8231429,5.81518222 78.4417143,5.79242667 78.706,5.84362667 C79.0217143,5.90336 79.6088571,6.14229333 79.8874286,6.32576 C80.1874286,6.52487111 80.596,6.93731556 80.7345714,7.14780444 C80.8617143,7.34122667 81.0474286,7.85749333 81.086,8.18176 C81.136,8.63118222 81.126,9.19153778 81.0974286,9.37927111 C81.0674286,9.57269333 80.9088571,10.0448711 80.756,10.3406933 C80.5788571,10.6848711 80.136,11.4002489 79.806,11.8752711 C79.4374286,12.4071822 78.7702857,13.4013156 78.3231429,14.0839822 C77.8888571,14.7467378 77.0645714,15.9542044 76.4931429,16.7648711 C75.9131429,17.5883378 74.9202857,19.0162489 74.2888571,19.9406933 C73.6631429,20.8509156 72.7031429,22.22336 72.1517143,22.9899378 C71.5902857,23.7735822 70.776,24.9540267 70.3402857,25.6125156 C69.9217143,26.2468267 69.236,27.2395378 68.8188571,27.8141156 C68.5245714,28.2166044 67.7445714,29.2861156 68.5702857,30.1294933 C68.9274286,30.4964267 69.6188571,30.7382044 70.3745714,30.2176711 C70.866,29.8806044 71.5617143,29.1879822 71.966,28.7058489 C72.3631429,28.2336711 73.3502857,27.1058489 74.156,26.1984711 C74.9731429,25.2811378 76.0745714,24.0381156 76.6002857,23.43936 C77.1245714,22.8420267 77.9731429,21.8862933 78.486,21.3131378 C78.9874286,20.7527822 79.8574286,19.8368711 80.4202857,19.2779378 C80.966,18.7332267 81.7131429,18.0420267 82.0545714,17.7661156 C82.3417143,17.5328711 82.8674286,17.2100267 83.1631429,17.0862933 C83.3602857,17.0023822 83.8845714,16.9198933 84.1931429,16.9312711 C84.5688571,16.9540267 85.0388571,17.0862933 85.166,17.1517156 C85.406,17.2726044 85.8702857,17.5783822 86.1417143,17.7917156 C86.3731429,17.9751822 86.6445714,18.30656 86.7045714,18.4189156 C86.8045714,18.6038044 86.9931429,19.1214933 87.0888571,19.5140267 C87.1645714,19.81696 87.1674286,20.2308267 87.1445714,20.3403378 M40.1502857,58.8669156 C38.5002857,60.0715378 37.1188571,60.9988267 36.8588571,61.1339378 C36.6245714,61.2534044 35.9488571,61.4439822 35.4617143,61.5008711 C35.0888571,61.5520711 33.9602857,61.4567822 32.9474286,61.2150044 C31.9317143,60.9703822 29.9117143,60.48256 28.466,60.1284267 C27.0217143,59.7757156 24.9602857,59.2594489 23.8874286,58.9835378 C22.8874286,58.7275378 20.7774286,57.9396267 19.2802857,57.2669156 C17.7317143,56.5686044 15.4174286,55.3924267 14.1217143,54.6414933 C12.7845714,53.8720711 10.8802857,52.7911822 9.88742857,52.2407822 C8.95028571,51.7202489 7.71457143,50.9579378 7.19028571,50.57536 C6.63885714,50.1714489 6.08028571,49.6694044 5.94028571,49.5030044 C5.85457143,49.3963378 5.636,48.9568711 5.55457143,48.5899378 C5.496,48.3325156 5.52742857,47.69536 5.64742857,47.3227378 C5.78314286,46.9046044 6.10885714,46.37696 6.26314286,46.2262044 C6.55028571,45.9460267 7.01457143,45.5847822 7.24028571,45.4482489 C7.406,45.3486933 7.99028571,45.1396267 8.46028571,45.0528711 C8.64314286,45.0187378 8.846,45.00736 9.02171429,45.00736 C9.22314286,45.00736 9.38885714,45.0215822 9.44885714,45.0386489 C9.71171429,45.1438933 11.2431429,45.9531378 13.1402857,47.0283378 C14.946,48.0509156 17.2088571,49.2142933 18.1845714,49.6196267 C18.6717143,49.8244267 20.3402857,50.4658489 21.2417143,50.21696 C21.7174286,50.0861156 22.3531429,49.7575822 22.7074286,49.3152711 C23.0845714,48.8331378 23.2202857,48.1248711 23.186,47.6342044 C23.1588571,47.2359822 23.1245714,46.7396267 13.066,34.0605156 C7.14457143,26.5938489 3.186,21.55776 2.89742857,21.1524267 C2.74314286,20.9206044 2.55742857,20.5138489 2.51457143,20.3474489 C2.49028571,20.2308267 2.49314286,19.81696 2.57028571,19.50976 C2.67171429,19.0930489 2.866,18.5838933 2.95314286,18.4146489 C3.01171429,18.30656 3.28457143,17.9751822 3.516,17.7917156 C3.786,17.5783822 4.25171429,17.2726044 4.496,17.1488711 C4.61742857,17.0862933 5.08885714,16.9540267 5.46028571,16.9312711 C5.776,16.9156267 6.29742857,17.00096 6.50028571,17.0877156 C6.79028571,17.2100267 7.316,17.5328711 7.60314286,17.7661156 C7.91171429,18.0164267 8.64314286,18.6834489 9.23742857,19.2779378 C9.79885714,19.8368711 10.6702857,20.7527822 11.1702857,21.3131378 C11.6845714,21.8862933 12.5317143,22.8420267 13.0574286,23.43936 C13.586,24.0381156 14.6845714,25.2811378 15.5017143,26.1984711 C16.3074286,27.1058489 17.2931429,28.2336711 17.6931429,28.7072711 C18.1002857,29.1908267 18.796,29.8834489 19.2845714,30.2190933 C20.0445714,30.7382044 20.7302857,30.4950044 21.0874286,30.1294933 C21.9131429,29.2861156 21.1331429,28.2166044 20.8402857,27.8155378 C20.4217143,27.2395378 19.7345714,26.2468267 19.3174286,25.6125156 C18.8817143,24.9540267 18.0674286,23.7735822 17.5045714,22.9885156 C16.9545714,22.22336 15.9931429,20.8509156 15.3688571,19.9392711 C14.736,19.0162489 13.7445714,17.5883378 13.1631429,16.7634489 C12.5917143,15.9542044 11.7688571,14.7467378 11.3345714,14.0839822 C10.8874286,13.4013156 10.2188571,12.4071822 9.85028571,11.8724267 C9.52171429,11.4002489 9.07885714,10.6848711 8.90028571,10.3421156 C8.74885714,10.0448711 8.59028571,9.57269333 8.56028571,9.37927111 C8.53171429,9.19011556 8.52171429,8.63118222 8.57314286,8.18176 C8.61028571,7.85607111 8.796,7.34122667 8.92457143,7.14638222 C9.06171429,6.93731556 9.47028571,6.52487111 9.77028571,6.32576 C10.0488571,6.14229333 10.6345714,5.90336 10.9531429,5.84362667 C11.2174286,5.79242667 11.8374286,5.81376 12.1831429,5.91189333 C12.4688571,5.99153778 13.106,6.36700444 13.4745714,6.71687111 C13.916,7.13784889 14.6517143,7.95704889 15.0802857,8.50887111 C15.4774286,9.02371556 18.1745714,12.9220267 21.5531429,17.9069156 C23.766,21.1680711 24.6417143,22.2418489 25.8817143,21.5278933 C27.1174286,20.8068267 26.6002857,19.4941156 24.8031429,15.92576 C22.0302857,10.4146489 20.336,6.84771556 20.2074286,6.49358222 C20.166,6.28878222 20.1602857,5.87207111 20.1945714,5.68433778 C20.2431429,5.42407111 20.3831429,4.94904889 20.4874286,4.68736 C20.5602857,4.50816 20.7774286,4.19811556 20.8874286,4.09713778 C21.1017143,3.89944889 21.436,3.62780444 21.626,3.49553778 C21.7688571,3.39740444 22.096,3.23100444 22.2688571,3.16700444 C22.4602857,3.09873778 22.8474286,3.00913778 23.0645714,2.98353778 C23.276,2.95936 23.6331429,2.96789333 23.7774286,2.99207111 C23.9331429,3.01909333 24.2474286,3.12007111 24.3888571,3.18976 C24.6102857,3.29642667 24.986,3.50549333 25.2288571,3.65482667 C25.3931429,3.75722667 25.6645714,3.96771556 25.8288571,4.11989333 C26.1888571,4.69589333 27.9688571,8.01536 30.596,13.1694933 C35.2717143,22.3527822 35.4388571,22.46656 35.736,22.67136 C36.1845714,22.9771378 36.7888571,22.9643378 37.2202857,22.6301156 C38.0588571,21.9815822 38.0588571,21.9815822 35.6131429,15.4194489 C34.3245714,11.9620267 33.5074286,9.49589333 33.4445714,9.20433778 C33.4317143,8.97109333 33.4774286,8.57002667 33.5217143,8.41927111 C33.5788571,8.21589333 33.7445714,7.82478222 33.8617143,7.61571556 C33.9631429,7.43367111 34.2417143,7.04967111 34.4417143,6.83064889 C34.5988571,6.66282667 34.8074286,6.50353778 34.8374286,6.48362667 C35.0102857,6.41251556 35.3388571,6.30300444 35.566,6.23900444 C35.7217143,6.19491556 36.1131429,6.13802667 36.3645714,6.13233778 C36.6388571,6.12096 37.0631429,6.15367111 37.2374286,6.18353778 C37.3702857,6.20629333 37.7402857,6.32291556 37.9845714,6.43811556 C38.1817143,6.53056 38.4902857,6.74958222 38.5974286,6.85767111 C38.7217143,6.98424889 38.9388571,7.27722667 39.016,7.42798222 C39.166,7.71811556 39.4331429,8.18176 39.5545714,8.36380444 C39.8202857,8.90993778 42.8931429,16.5771378 47.046,27.1214933 C51.1688571,37.59616 54.1402857,45.3614933 54.306,45.9175822 C54.3388571,46.1863822 54.3417143,46.6898489 54.3117143,46.9543822 C54.2745714,47.2672711 54.1945714,47.73376 54.1302857,47.9854933 C54.096,48.1035378 53.9245714,48.4334933 53.766,48.6311822 C53.6217143,48.8132267 53.0445714,49.34656 52.4731429,49.7703822 L50.6131429,51.1542044 C50.1802857,51.4798933 49.176,52.2180267 48.3817143,52.7982933 C47.5817143,53.3828267 46.0145714,54.5419378 44.9017143,55.3696711 C43.7931429,56.1931378 41.6545714,57.7675378 40.1502857,58.8669156 M89.5174286,18.92096 C89.3988571,18.4388267 89.146,17.6893156 88.9131429,17.2541156 C88.646,16.7478044 88.0974286,16.1604267 87.696,15.8418489 C87.2902857,15.5204267 86.6902857,15.1307378 86.3045714,14.9358933 C85.7717143,14.6628267 84.9188571,14.4836267 84.3474286,14.4466489 C83.656,14.3968711 82.7517143,14.5547378 82.1831429,14.7965156 C81.6802857,15.0084267 80.9445714,15.4550044 80.4745714,15.83616 C80.2831429,15.9911822 80.0031429,16.2386489 79.696,16.5202489 C79.9745714,16.1106489 80.2317143,15.7280711 80.4188571,15.4422044 C80.8545714,14.7766044 81.506,13.8066489 81.8645714,13.28896 C82.2617143,12.7158044 82.7517143,11.9207822 82.9802857,11.4770489 C83.2102857,11.0318933 83.4845714,10.2966044 83.5688571,9.75616 C83.6474286,9.24416 83.6274286,8.41927111 83.5688571,7.90016 C83.4888571,7.20896 83.1774286,6.32007111 82.8288571,5.78816 C82.4874286,5.26904889 81.8317143,4.62336 81.266,4.25073778 C80.7117143,3.88522667 79.8102857,3.51829333 79.1731429,3.39882667 C78.4945714,3.26940444 77.4974286,3.31776 76.7988571,3.51544889 C75.9931429,3.74016 75.0117143,4.39011556 74.4588571,4.91491556 C73.9288571,5.41838222 73.1131429,6.32718222 72.5988571,6.98851556 C72.376,7.27580444 71.6831429,8.26424889 70.746,9.61820444 C71.3831429,8.27989333 71.8531429,7.23456 71.906,6.96860444 C72.0045714,6.45660444 72.0117143,5.72842667 71.9217143,5.23633778 C71.8445714,4.81251556 71.6574286,4.17678222 71.4888571,3.75864889 C71.2845714,3.25233778 70.856,2.62513778 70.4688571,2.26958222 C70.1774286,2.00078222 69.7202857,1.63242667 69.4517143,1.44753778 C69.1345714,1.22851556 68.6274286,0.969671111 68.2431429,0.828871111 C67.876,0.695182222 67.2917143,0.560071111 66.8802857,0.511715556 C66.446,0.459093333 65.8502857,0.471893333 65.4574286,0.54016 C65.0674286,0.607004444 64.526,0.780515556 64.1745714,0.951182222 C63.896,1.08629333 63.416,1.35082667 63.1088571,1.54282667 C62.7474286,1.76469333 62.2631429,2.15011556 61.986,2.43313778 C61.6717143,2.75029333 60.2388571,5.43402667 58.6745714,8.45482667 C58.6445714,8.18887111 58.5988571,7.93429333 58.5417143,7.73518222 C58.4302857,7.35260444 58.1888571,6.78087111 57.9802857,6.40682667 C57.7702857,6.02993778 57.3717143,5.48807111 57.0545714,5.14389333 C56.8131429,4.88220444 56.2717143,4.38584889 55.7774286,4.18531556 C55.5402857,4.08718222 55.0888571,3.93358222 54.7702857,3.84256 C54.3931429,3.73731556 53.796,3.65340444 53.3502857,3.64344889 C52.9231429,3.63491556 52.3474286,3.67189333 51.996,3.73162667 C51.6088571,3.79704889 51.0231429,3.99047111 50.6045714,4.18816 C50.156,4.40007111 49.5988571,4.78691556 49.2802857,5.10976 C48.9745714,5.41696 48.6117143,5.91331556 48.4174286,6.29447111 C48.2988571,6.52629333 48.0831429,6.89464889 47.9402857,7.11936 C47.606,7.63989333 46.0231429,11.6406044 45.7088571,12.4370489 L44.816,14.7040711 C43.246,10.7602489 41.8731429,7.36256 41.7145714,7.11651556 C41.5731429,6.89464889 41.3588571,6.52202667 41.2388571,6.28878222 C41.0445714,5.91331556 40.6831429,5.41696 40.3788571,5.11118222 C40.0588571,4.78691556 39.5002857,4.40007111 39.056,4.18958222 C38.6945714,4.01749333 38.0988571,3.80558222 37.6588571,3.73162667 C37.3088571,3.67189333 36.7317143,3.63491556 36.3088571,3.64344889 C35.8617143,3.65340444 35.2645714,3.73731556 34.8845714,3.84398222 C34.5688571,3.93358222 34.1174286,4.08718222 33.8831429,4.18389333 C33.3888571,4.38584889 32.8474286,4.88078222 32.6017143,5.14531556 C32.2831429,5.49376 31.8831429,6.03562667 31.6774286,6.40682667 C31.4674286,6.78087111 31.226,7.35260444 31.116,7.73660444 C31.0588571,7.93713778 31.0131429,8.19029333 30.9831429,8.45482667 C29.4188571,5.43260444 27.986,2.74887111 27.676,2.43740444 C27.3945714,2.15011556 26.9102857,1.76469333 26.5488571,1.54140444 C26.2417143,1.35082667 25.7617143,1.08629333 25.4845714,0.952604444 C25.1302857,0.779093333 24.5888571,0.605582222 24.1974286,0.54016 C23.8088571,0.471893333 23.2102857,0.460515556 22.7731429,0.511715556 C22.366,0.560071111 21.7817143,0.695182222 21.4102857,0.830293333 C21.0302857,0.969671111 20.5231429,1.22851556 20.2031429,1.45038222 C19.9374286,1.63242667 19.4802857,2.00078222 19.1902857,2.26816 C18.8017143,2.62513778 18.3717143,3.25233778 18.1688571,3.75864889 C18.0002857,4.17678222 17.8131429,4.81251556 17.736,5.23633778 C17.646,5.72842667 17.6517143,6.45660444 17.7517143,6.96860444 C17.8045714,7.23456 18.2731429,8.27704889 18.9088571,9.61393778 C17.9774286,8.26709333 17.2874286,7.28149333 17.0574286,6.98851556 C16.5517143,6.33429333 15.7345714,5.42264889 15.2002857,4.91633778 C14.646,4.39011556 13.6631429,3.74016 12.8602857,3.51544889 C12.1602857,3.32060444 11.1617143,3.27082667 10.486,3.39740444 C9.84742857,3.51829333 8.946,3.88522667 8.39171429,4.25073778 C7.826,4.62336 7.17028571,5.26904889 6.83028571,5.78673778 C6.47885714,6.32291556 6.16742857,7.21322667 6.09028571,7.90016 C6.03028571,8.41500444 6.00885714,9.23989333 6.08885714,9.75616 C6.17171429,10.2966044 6.44742857,11.0318933 6.67742857,11.4784711 C6.906,11.9207822 7.396,12.7158044 7.79171429,13.2861156 C8.15171429,13.8066489 8.80314286,14.7766044 9.23885714,15.4422044 C9.426,15.7280711 9.68171429,16.1092267 9.96028571,16.5188267 C9.656,16.2386489 9.376,15.9926044 9.18314286,15.83616 C8.71314286,15.4550044 7.97742857,15.0084267 7.47885714,14.7979378 C6.906,14.5533156 6.00457143,14.4011378 5.306,14.4466489 C4.73742857,14.4836267 3.88457143,14.6628267 3.35885714,14.9316267 C2.96742857,15.1307378 2.36742857,15.5204267 1.96171429,15.8418489 C1.56028571,16.1604267 1.01171429,16.7478044 0.744571429,17.2541156 C0.536,17.6438044 0.277428571,18.3606044 0.141714286,18.9166933 C0.00457142857,19.4685156 -0.0697142857,20.34176 0.0902857143,20.9604267 C0.210285714,21.4240711 0.517428571,22.0882489 0.821714286,22.5405156 C1.146,23.0198044 7.14457143,30.6116267 11.1031429,35.6022044 C16.1145714,41.9211378 19.4374286,46.2816711 20.4802857,47.7494044 C20.1802857,47.6882489 19.6902857,47.5502933 19.1474286,47.32416 C18.2645714,46.9572267 16.0802857,45.8308267 14.376,44.8637156 C13.046,44.1099378 10.8731429,42.9152711 10.3431429,42.7147378 C9.68314286,42.4644267 8.666,42.4814933 8.006,42.6052267 C7.38028571,42.7190044 6.47028571,43.0034489 5.94457143,43.3191822 C5.53171429,43.5680711 4.91457143,44.0558933 4.51028571,44.4512711 C3.97171429,44.9789156 3.47742857,45.9104711 3.26742857,46.5618489 C3.01742857,47.3355378 2.95314286,48.4192711 3.116,49.1374933 C3.25028571,49.7376711 3.60457143,50.6023822 4.02171429,51.0987378 C4.37314286,51.5154489 5.15314286,52.1739378 5.71171429,52.5806933 C6.326,53.0286933 7.62457143,53.8350933 8.67028571,54.41536 C9.656,54.9614933 11.5431429,56.0338489 12.8674286,56.79616 C14.2231429,57.5798044 16.6374286,58.8071822 18.2488571,59.5339378 C19.9088571,60.2820267 22.1117143,61.0983822 23.2617143,61.3942044 C24.3431429,61.6715378 26.416,62.1892267 27.8688571,62.5447822 C29.3202857,62.8989156 31.3417143,63.3910044 32.3617143,63.6342044 C33.1802857,63.8304711 34.3502857,63.9997156 35.2217143,63.9997156 C35.4188571,63.9997156 35.6002857,63.9911822 35.7588571,63.9741156 C36.4002857,63.8973156 37.4045714,63.6512711 38.0031429,63.3454933 C38.5931429,63.04256 40.4945714,61.7014044 41.6288571,60.8736711 C42.5817143,60.1782044 43.7845714,59.2935822 44.8245714,58.5270044 C45.3274286,58.89536 46.6731429,59.8838044 48.0302857,60.8736711 C49.396,61.8706489 51.1302857,63.0766933 51.6574286,63.3469156 C52.2531429,63.6512711 53.256,63.8973156 53.9002857,63.9741156 C54.0574286,63.9911822 54.2388571,63.9997156 54.436,63.9997156 C55.3074286,63.9997156 56.4774286,63.8304711 57.2945714,63.6342044 C58.3145714,63.3910044 60.336,62.8989156 61.7888571,62.5447822 C63.2431429,62.1892267 65.3145714,61.6715378 66.396,61.3942044 C67.546,61.0983822 69.7488571,60.2820267 71.4088571,59.5339378 C73.0174286,58.8086044 75.4317143,57.5812267 76.7902857,56.79616 C78.1145714,56.0338489 80.0031429,54.9614933 80.986,54.41536 C82.0331429,53.8350933 83.3317143,53.0286933 83.946,52.5806933 C84.5031429,52.1739378 85.2845714,51.5154489 85.6345714,51.0987378 C86.0517143,50.6023822 86.406,49.7376711 86.5417143,49.1374933 C86.7031429,48.4192711 86.6402857,47.3355378 86.3917143,46.5632711 C86.1488571,45.8094933 85.6274286,44.9220267 85.1474286,44.4498489 C84.7388571,44.0530489 84.1231429,43.5666489 83.716,43.3220267 C83.1888571,43.0034489 82.2802857,42.7190044 81.6545714,42.6052267 C80.9902857,42.4800711 79.9745714,42.4644267 79.316,42.7133156 C78.7817143,42.9166933 76.6102857,44.11136 75.2817143,44.8637156 C73.576,45.8308267 71.3902857,46.9572267 70.5074286,47.3255822 C69.9674286,47.5502933 69.4774286,47.6882489 69.1774286,47.7494044 C70.2188571,46.2830933 73.5417143,41.9239822 78.5531429,35.6022044 C82.5188571,30.6045156 88.5288571,22.9984711 88.8345714,22.54336 C89.1374286,22.0925156 89.4445714,21.4283378 89.5645714,20.9618489 C89.7274286,20.34176 89.6531429,19.4685156 89.5174286,18.92096" id="Fill-1" mask="url(#mask-2)"></path>
                </g>
            </g>
            <path d="M45,13 C45.552,13 46,12.4463277 46,11.7641243 L46,1.23587571 C46,0.552259887 45.552,0 45,0 C44.448,0 44,0.552259887 44,1.23587571 L44,11.7641243 C44,12.4463277 44.448,13 45,13" id="Fill-4"></path>
            <path d="M33.7506904,12.3164061 C33.9534051,12.746919 34.3777543,13 34.8183208,13 C34.9886011,13 35.1629357,12.9614877 35.3278102,12.8817121 C35.9183855,12.5942451 36.1656974,11.8748898 35.8832483,11.2751978 L33.2493096,5.68403271 C32.968212,5.08709159 32.2654679,4.82988425 31.6721898,5.11872672 C31.0816145,5.40619376 30.8343026,6.12554907 31.1167517,6.72524107 L33.7506904,12.3164061 Z" id="Fill-6"></path>
            <path d="M53.6721898,12.8817156 C53.8370643,12.9628642 54.0100475,13 54.1816792,13 C54.6222457,13 55.0465949,12.7483017 55.2493096,12.316426 L57.8832483,6.72542316 C58.1656974,6.12574857 57.9183855,5.40641414 57.3278102,5.11895544 C56.7412892,4.83012135 56.0331395,5.08594583 55.7506904,5.68424503 L53.1167517,11.2766232 C52.8343026,11.8762978 53.0816145,12.5942569 53.6721898,12.8817156" id="Fill-8"></path>
        </g>
    </g>
</svg>