<?xml version="1.0" encoding="UTF-8"?>
<svg width="25px" height="25px" viewBox="0 0 25 25" version="1.1" xmlns="http://www.w3.org/2000/svg" xmlns:xlink="http://www.w3.org/1999/xlink">
    <!-- Generator: Sketch 60.1 (88133) - https://sketch.com -->
    <title>instagram</title>
    <desc>Created with Sketch.</desc>
    <g id="Page-1" stroke="none" stroke-width="1" fill="none" fill-rule="evenodd">
        <g id="instagram" transform="translate(1.000000, 1.000000)" fill="#00A8E1" fill-rule="nonzero" stroke="#00A8E1">
            <path d="M11.5,6.726 C14.133,6.726 16.2745,8.8675 16.2745,11.5 C16.2745,14.133 14.133,16.2745 11.5,16.2745 C8.8675,16.2745 6.726,14.133 6.726,11.5 C6.726,8.8675 8.8675,6.726 11.5,6.726 M11.5,5.976 C8.454,5.976 5.976,8.454 5.976,11.5 C5.976,14.546 8.454,17.0245 11.5,17.0245 C14.546,17.0245 17.0245,14.546 17.0245,11.5 C17.0245,8.454 14.546,5.976 11.5,5.976 L11.5,5.976 Z" id="Shape"></path>
            <circle id="Oval" cx="17.7825" cy="5.2175" r="1"></circle>
            <path d="M11.5,1 C14.64,1 15.0525,1.013 16.2935,1.0695 C17.2855,1.115 18.0435,1.2575 18.7495,1.5315 C19.408,1.788 19.901,2.1085 20.396,2.6035 C20.8915,3.0995 21.2125,3.592 21.4685,4.251 C21.743,4.956 21.885,5.713 21.931,6.706 C21.987,7.9425 22.0005,8.354 22.0005,11.5005 C22.0005,14.647 21.9875,15.059 21.931,16.2955 C21.885,17.2875 21.743,18.0445 21.4685,18.7495 C21.212,19.409 20.892,19.902 20.3965,20.397 C19.901,20.892 19.409,21.2125 18.75,21.469 C18.0435,21.744 17.286,21.8865 16.2945,21.9315 C15.0585,21.987 14.647,22 11.5,22 C8.3535,22 7.9415,21.987 6.7055,21.9305 C5.714,21.8855 4.957,21.743 4.251,21.468 C3.5915,21.2115 3.099,20.8915 2.604,20.396 C2.109,19.901 1.7885,19.408 1.532,18.7495 C1.258,18.0435 1.1155,17.286 1.07,16.2945 C1.0135,15.0625 1.0005,14.652 1.0005,11.4995 C1.0005,8.3475 1.0135,7.937 1.07,6.705 C1.1155,5.713 1.258,4.9555 1.532,4.2495 C1.7875,3.5915 2.108,3.099 2.6045,2.6025 C3.098,2.109 3.5905,1.7885 4.2505,1.531 C4.9555,1.257 5.7125,1.1145 6.7055,1.069 C7.9475,1.013 8.36,1 11.5,1 M11.5,0.25 C8.338,0.25 7.922,0.2635 6.6715,0.3205 C5.594,0.3705 4.764,0.528 3.979,0.8325 C3.226,1.126 2.638,1.5085 2.0735,2.073 C1.5075,2.639 1.1245,3.2265 0.8325,3.979 C0.5275,4.7645 0.3695,5.595 0.3205,6.6715 C0.2635,7.9225 0.25,8.338 0.25,11.5 C0.25,14.662 0.263,15.078 0.3205,16.329 C0.37,17.4045 0.5275,18.235 0.8325,19.0215 C1.125,19.7735 1.508,20.3615 2.073,20.927 C2.638,21.4925 3.2265,21.875 3.979,22.1675 C4.7635,22.4725 5.594,22.631 6.6715,22.6795 C7.916,22.736 8.331,22.75 11.5,22.75 C14.669,22.75 15.084,22.7365 16.3285,22.6795 C17.406,22.6305 18.236,22.4725 19.0215,22.1675 C19.7735,21.875 20.3615,21.492 20.927,20.927 C21.4925,20.362 21.875,19.7735 22.1675,19.021 C22.4725,18.236 22.6305,17.4055 22.6795,16.329 C22.736,15.084 22.75,14.669 22.75,11.5 C22.75,8.3305 22.7365,7.9165 22.6795,6.6715 C22.63,5.595 22.4725,4.7645 22.1675,3.979 C21.875,3.2265 21.492,2.639 20.927,2.073 C20.3615,1.508 19.7745,1.125 19.0215,0.8325 C18.2365,0.5285 17.4065,0.37 16.328,0.3205 C15.078,0.2635 14.662,0.25 11.5,0.25 L11.5,0.25 Z" id="Shape"></path>
        </g>
    </g>
</svg>