<?xml version="1.0" encoding="UTF-8"?>
<svg width="49px" height="34px" viewBox="0 0 49 34" version="1.1" xmlns="http://www.w3.org/2000/svg" xmlns:xlink="http://www.w3.org/1999/xlink">
    <!-- Generator: Sketch 60.1 (88133) - https://sketch.com -->
    <title>leafs</title>
    <desc>Created with Sketch.</desc>
    <g id="Page-1" stroke="none" stroke-width="1" fill="currentColor" fill-rule="evenodd">
        <g id="leafs">
            <path d="M37.2352,29.959 C33.0642,31.962 29.6162,31.91 27.4292,31.502 C29.9922,30.612 33.7922,28.535 36.9412,23.672 C37.5502,22.73 38.0632,21.789 38.5032,20.858 C42.1262,20.137 45.1902,20.518 46.6952,20.812 C45.6792,22.748 42.8272,27.274 37.2352,29.959 M11.5892,29.959 C5.9982,27.274 3.1452,22.748 2.1302,20.812 C3.6352,20.518 6.6992,20.138 10.3222,20.859 C10.7612,21.789 11.2742,22.731 11.8832,23.672 C15.0232,28.521 18.8092,30.599 21.3722,31.494 C19.1752,31.894 15.7212,31.942 11.5892,29.959 M9.7722,8.786 C11.3672,9.366 14.6812,10.837 17.8052,13.857 C17.6762,14.888 17.5942,15.96 17.5942,17.086 C17.5942,18.954 17.7972,20.625 18.1252,22.119 C17.4552,21.693 16.7402,21.28 15.9412,20.896 C14.4402,20.175 12.9662,19.673 11.5592,19.33 C9.6392,14.797 9.6402,10.637 9.7722,8.786 M24.3412,2.257 C25.5612,3.86 28.1672,7.831 29.0412,13.372 C28.0962,14.373 27.1772,15.502 26.3352,16.804 C25.5082,18.08 24.8922,19.313 24.4122,20.495 C23.9322,19.313 23.3162,18.08 22.4902,16.804 C21.6102,15.445 20.6482,14.271 19.6602,13.238 C20.5542,7.766 23.1312,3.848 24.3412,2.257 M29.6992,25.025 C30.7532,24.121 32.0422,23.241 33.6412,22.473 C34.5152,22.053 35.3812,21.722 36.2312,21.449 C35.9962,21.873 35.7472,22.297 35.4722,22.721 C32.6432,27.09 29.2812,28.983 27.0122,29.802 C27.9042,28.673 28.9092,27.098 29.6992,25.025 M21.5962,29.704 C19.3272,28.835 16.0752,26.925 13.3522,22.721 C13.0782,22.298 12.8302,21.874 12.5942,21.45 C13.4442,21.722 14.3092,22.054 15.1832,22.473 C16.6792,23.191 17.9062,24.003 18.9202,24.839 C19.6982,26.943 20.6982,28.549 21.5962,29.704 M29.3382,17.086 C29.3382,19.841 28.8552,22.14 28.1792,24.02 C27.1872,24.917 26.4032,25.83 25.7882,26.693 C25.7502,25.678 25.6112,24.538 25.3172,23.298 C25.7592,21.609 26.5222,19.734 27.8032,17.755 C28.2782,17.023 28.7802,16.345 29.2982,15.717 C29.3242,16.165 29.3382,16.622 29.3382,17.086 M19.3442,17.086 C19.3442,16.568 19.3652,16.063 19.3962,15.565 C19.9612,16.237 20.5072,16.961 21.0212,17.755 C22.3012,19.732 23.0672,21.598 23.5132,23.275 C23.2152,24.523 23.0752,25.671 23.0372,26.693 C22.3812,25.771 21.5222,24.794 20.4332,23.839 C19.7952,21.995 19.3442,19.759 19.3442,17.086 M39.0542,8.788 C39.1892,10.636 39.1952,14.789 37.2682,19.33 C35.8602,19.673 34.3852,20.175 32.8832,20.896 C32.0212,21.31 31.2522,21.758 30.5392,22.22 C30.8792,20.702 31.0882,18.994 31.0882,17.086 C31.0882,16.005 31.0092,14.976 30.8902,13.983 C34.0482,10.885 37.4372,9.378 39.0542,8.788 M48.7392,19.83 C48.6332,19.611 48.4422,19.446 48.2102,19.374 C47.9962,19.308 44.2762,18.198 39.3082,18.937 C41.5622,12.863 40.7152,7.739 40.6682,7.472 C40.6262,7.232 40.4862,7.022 40.2822,6.89 C40.0792,6.757 39.8272,6.716 39.5922,6.775 C39.3452,6.837 34.9182,7.997 30.5602,11.879 C29.1172,4.803 25.1852,0.498 24.9822,0.279 C24.8162,0.101 24.5852,0 24.3412,0 C24.0982,0 23.8672,0.101 23.7012,0.279 C23.4992,0.497 19.6022,4.76 18.1412,11.775 C13.8242,7.98 9.4762,6.837 9.2322,6.775 C8.9982,6.716 8.7462,6.757 8.5432,6.89 C8.3392,7.022 8.1992,7.232 8.1572,7.472 C8.1092,7.739 7.2632,12.863 9.5162,18.937 C4.5482,18.198 0.8292,19.307 0.6152,19.374 C0.3822,19.446 0.1912,19.611 0.0862,19.83 C-0.0188,20.049 -0.0288,20.302 0.0602,20.528 C0.1752,20.822 2.9682,27.761 10.8322,31.536 C13.9162,33.017 16.6662,33.476 18.8922,33.476 C21.7052,33.476 23.6592,32.751 24.4122,32.417 C25.1662,32.751 27.1202,33.476 29.9322,33.476 C32.1582,33.476 34.9102,33.017 37.9932,31.536 C45.8562,27.761 48.6492,20.822 48.7642,20.528 C48.8532,20.302 48.8432,20.049 48.7392,19.83" id="Fill-1"></path>
        </g>
    </g>
</svg>