<?xml version="1.0" encoding="UTF-8"?>
<svg width="49px" height="32px" viewBox="0 0 49 32" version="1.1" xmlns="http://www.w3.org/2000/svg" xmlns:xlink="http://www.w3.org/1999/xlink">
    <!-- Generator: Sketch 63.1 (92452) - https://sketch.com -->
    <title>Mobile</title>
    <desc>Created with Sketch.</desc>
    <defs>
        <polygon id="path-1" points="0.8856 0.9614 16.302 0.9614 16.302 28 0.8856 28"></polygon>
        <polygon id="path-3" points="0 31.9609 48.302 31.9609 48.302 -0.0001 0 -0.0001"></polygon>
        <polygon id="path-5" points="0 31.9609 48.302 31.9609 48.302 -0.0001 0 -0.0001"></polygon>
        <polygon id="path-7" points="0 31.9609 48.302 31.9609 48.302 -0.0001 0 -0.0001"></polygon>
        <polygon id="path-9" points="0 31.9609 48.302 31.9609 48.302 -0.0001 0 -0.0001"></polygon>
    </defs>
    <g id="Page-1" stroke="none" stroke-width="1" fill="currentColor" fill-rule="evenodd">
        <g id="Mobile">
            <g id="Group-3" transform="translate(32.000000, 3.960900)">
                <g id="Fill-1-Clipped">
                    <mask id="mask-2" fill="white">
                        <use xlink:href="#path-1"></use>
                    </mask>
                    <g id="path-1"></g>
                    <path d="M2.6416,2.4614 C2.5006,2.4614 2.3856,2.5764 2.3856,2.7174 L2.3856,26.2444 C2.3856,26.3854 2.5006,26.5004 2.6416,26.5004 L14.5456,26.5004 C14.6866,26.5004 14.8026,26.3854 14.8026,26.2444 L14.8026,2.7174 C14.8026,2.5764 14.6866,2.4614 14.5456,2.4614 L2.6416,2.4614 Z M14.5456,28.0004 L2.6416,28.0004 C1.6736,28.0004 0.8856,27.2124 0.8856,26.2444 L0.8856,2.7174 C0.8856,1.7494 1.6736,0.9614 2.6416,0.9614 L14.5456,0.9614 C15.5146,0.9614 16.3026,1.7494 16.3026,2.7174 L16.3026,26.2444 C16.3026,27.2124 15.5146,28.0004 14.5456,28.0004 L14.5456,28.0004 Z" id="Fill-1" mask="url(#mask-2)"></path>
                </g>
            </g>
            <g id="Fill-4-Clipped">
                <mask id="mask-4" fill="white">
                    <use xlink:href="#path-3"></use>
                </mask>
                <g id="path-3"></g>
                <polygon id="Fill-4" mask="url(#mask-4)" points="33.635 9.3479 47.552 9.3479 47.552 7.8479 33.635 7.8479"></polygon>
            </g>
            <g id="Fill-6-Clipped">
                <mask id="mask-6" fill="white">
                    <use xlink:href="#path-5"></use>
                </mask>
                <g id="path-3"></g>
                <polygon id="Fill-6" mask="url(#mask-6)" points="33.635 28.9219 47.552 28.9219 47.552 27.4219 33.635 27.4219"></polygon>
            </g>
            <g id="Fill-7-Clipped">
                <mask id="mask-8" fill="white">
                    <use xlink:href="#path-7"></use>
                </mask>
                <g id="path-3"></g>
                <path d="M34.6416,31.9609 L1.7566,31.9609 C0.7876,31.9609 -0.0004,31.1729 -0.0004,30.2049 L-0.0004,1.7559 C-0.0004,0.7879 0.7876,-0.0001 1.7566,-0.0001 L39.4556,-0.0001 C40.4236,-0.0001 41.2116,0.7879 41.2116,1.7559 L41.2116,5.6719 L39.7116,5.6719 L39.7116,1.7559 C39.7116,1.6149 39.5966,1.4999 39.4556,1.4999 L1.7566,1.4999 C1.6156,1.4999 1.4996,1.6149 1.4996,1.7559 L1.4996,30.2049 C1.4996,30.3459 1.6156,30.4609 1.7566,30.4609 L34.6416,30.4609 L34.6416,31.9609 Z" id="Fill-7" mask="url(#mask-8)"></path>
            </g>
            <g id="Fill-8-Clipped">
                <mask id="mask-10" fill="white">
                    <use xlink:href="#path-9"></use>
                </mask>
                <g id="path-3"></g>
                <path d="M33.6357,28.9218 L4.9867,28.9218 C4.0187,28.9218 3.2307,28.1338 3.2307,27.1658 L3.2307,4.7958 C3.2307,3.8278 4.0187,3.0398 4.9867,3.0398 L36.2247,3.0398 C37.1927,3.0398 37.9807,3.8278 37.9807,4.7958 L37.9807,5.6718 L36.4807,5.6718 L36.4807,4.7958 C36.4807,4.6548 36.3657,4.5398 36.2247,4.5398 L4.9867,4.5398 C4.8457,4.5398 4.7307,4.6548 4.7307,4.7958 L4.7307,27.1658 C4.7307,27.3068 4.8457,27.4218 4.9867,27.4218 L33.6357,27.4218 L33.6357,28.9218 Z" id="Fill-8" mask="url(#mask-10)"></path>
            </g>
        </g>
    </g>
</svg>