<?xml version="1.0" encoding="UTF-8"?>
<svg width="75px" height="66px" viewBox="0 0 75 66" version="1.1" xmlns="http://www.w3.org/2000/svg" xmlns:xlink="http://www.w3.org/1999/xlink">
    <!-- Generator: Sketch 60.1 (88133) - https://sketch.com -->
    <title>newspaper</title>
    <desc>Created with Sketch.</desc>
    <defs>
        <polygon id="path-1" points="0 0.976508307 74.8897108 0.976508307 74.8897108 65.7534247 0 65.7534247"></polygon>
        <polygon id="path-3" points="0 64.7534247 75 64.7534247 75 0.02739726 0 0.02739726"></polygon>
    </defs>
    <g id="Page-1" stroke="none" stroke-width="1" fill="currentColor" fill-rule="evenodd">
        <g id="newspaper">
            <g id="Group-3">
                <g id="Fill-1-Clipped">
                    <mask id="mask-2" fill="white">
                        <use xlink:href="#path-1"></use>
                    </mask>
                    <g id="path-1"></g>
                    <path d="M71.2686111,62.1220169 C70.5408333,62.906861 69.4533333,63.3055785 68.0380556,63.3055785 L12.7505556,63.3055785 C13.6575,62.1723812 14.2880556,60.5691169 14.2880556,58.3432935 L14.2880556,3.42379481 L72.4519444,3.42379481 L72.4547222,58.425835 C72.4547222,58.4496182 72.57,60.7174118 71.2686111,62.1220169 M74.8825,58.3432935 L74.8825,2.19966191 C74.8825,1.52394054 74.3380556,0.975529 73.6672222,0.975529 L13.0727778,0.975529 C12.4005556,0.975529 11.8575,1.52394054 11.8575,2.19966191 L11.8575,58.3432935 C11.8575,63.1125153 8.03944444,63.2999825 7.61166667,63.3055785 C5.84916667,63.3055785 4.51583333,62.8383095 3.65055556,61.9163626 C2.33388889,60.5145555 2.43111111,58.4384261 2.43388889,58.3432935 L2.43388889,7.25847858 L8.49638889,7.25847858 C9.16722222,7.25847858 9.71166667,6.71146604 9.71166667,6.03434567 C9.71166667,5.35862431 9.16722222,4.81021277 8.49638889,4.81021277 L1.21861111,4.81021277 C0.547777778,4.81021277 0.00333333333,5.35862431 0.00333333333,6.03434567 L0.00611111111,58.262151 C1.00971677e-05,58.3894608 -0.173055556,61.3861382 1.86166667,63.5741883 C3.20611111,65.0207636 5.14083333,65.7538444 7.61166667,65.7538444 L68.0380556,65.7538444 C70.1533333,65.7538444 71.8380556,65.0935121 73.0436111,63.7924337 C75.0811111,61.5973885 74.8880556,58.3950568 74.8825,58.3432935" id="Fill-1" fill-rule="nonzero" mask="url(#mask-2)"></path>
                </g>
            </g>
            <path d="M65.5557298,11.3013699 L21.7730373,11.3013699 C21.0953864,11.3013699 20.5479452,11.7616438 20.5479452,12.3287671 C20.5479452,12.8958904 21.0953864,13.3561644 21.7730373,13.3561644 L65.5557298,13.3561644 C66.2319806,13.3561644 66.7808219,12.8958904 66.7808219,12.3287671 C66.7808219,11.7616438 66.2319806,11.3013699 65.5557298,11.3013699" id="Fill-4" fill-rule="nonzero"></path>
            <path d="M65.5557298,19.5205479 L21.7730373,19.5205479 C21.0953864,19.5205479 20.5479452,19.9808219 20.5479452,20.5479452 C20.5479452,21.1150685 21.0953864,21.5753425 21.7730373,21.5753425 L65.5557298,21.5753425 C66.2319806,21.5753425 66.7808219,21.1150685 66.7808219,20.5479452 C66.7808219,19.9808219 66.2319806,19.5205479 65.5557298,19.5205479" id="Fill-6" fill-rule="nonzero"></path>
            <path d="M21.7946848,30.8219178 L36.766959,30.8219178 C37.4551593,30.8219178 38.0136986,30.3616438 38.0136986,29.7945205 C38.0136986,29.2273973 37.4551593,28.7671233 36.766959,28.7671233 L21.7946848,28.7671233 C21.1064846,28.7671233 20.5479452,29.2273973 20.5479452,29.7945205 C20.5479452,30.3616438 21.1064846,30.8219178 21.7946848,30.8219178" id="Fill-8" fill-rule="nonzero"></path>
            <path d="M21.7946848,39.0410959 L36.766959,39.0410959 C37.4551593,39.0410959 38.0136986,38.5808219 38.0136986,38.0136986 C38.0136986,37.4465753 37.4551593,36.9863014 36.766959,36.9863014 L21.7946848,36.9863014 C21.1064846,36.9863014 20.5479452,37.4465753 20.5479452,38.0136986 C20.5479452,38.5808219 21.1064846,39.0410959 21.7946848,39.0410959" id="Fill-10" fill-rule="nonzero"></path>
            <path d="M21.7946848,47.260274 L36.766959,47.260274 C37.4551593,47.260274 38.0136986,46.8 38.0136986,46.2328767 C38.0136986,45.6657534 37.4551593,45.2054795 36.766959,45.2054795 L21.7946848,45.2054795 C21.1064846,45.2054795 20.5479452,45.6657534 20.5479452,46.2328767 C20.5479452,46.8 21.1064846,47.260274 21.7946848,47.260274" id="Fill-12" fill-rule="nonzero"></path>
            <path d="M65.5557298,54.4520548 L21.7730373,54.4520548 C21.0953864,54.4520548 20.5479452,54.9123288 20.5479452,55.4794521 C20.5479452,56.0465753 21.0953864,56.5068493 21.7730373,56.5068493 L65.5557298,56.5068493 C66.2319806,56.5068493 66.7808219,56.0465753 66.7808219,55.4794521 C66.7808219,54.9123288 66.2319806,54.4520548 65.5557298,54.4520548" id="Fill-14" fill-rule="nonzero"></path>
            <path d="M6.16438356,11.4822014 L6.16438356,58.3808123 C6.16438356,59.0477546 6.62465753,59.5890411 7.19178082,59.5890411 C7.75890411,59.5890411 8.21917808,59.0477546 8.21917808,58.3808123 L8.21917808,11.4822014 C8.21917808,10.8152591 7.75890411,10.2739726 7.19178082,10.2739726 C6.62465753,10.2739726 6.16438356,10.8152591 6.16438356,11.4822014" id="Fill-16" fill-rule="nonzero"></path>
            <g id="Fill-18-Clipped" transform="translate(0.000000, 1.000000)">
                <mask id="mask-4" fill="white">
                    <use xlink:href="#path-3"></use>
                </mask>
                <g id="path-3"></g>
                <path d="M45.5795946,44.8787467 L63.324515,44.8787467 L63.324515,30.1760478 L45.5795946,30.1760478 L45.5795946,44.8787467 Z M64.5389698,27.7671233 L44.3651398,27.7671233 C43.6933728,27.7671233 43.1506849,28.3067224 43.1506849,28.9715856 L43.1506849,46.083209 C43.1506849,46.7480721 43.6933728,47.2876712 44.3651398,47.2876712 L64.5389698,47.2876712 C65.2093489,47.2876712 65.7534247,46.7480721 65.7534247,46.083209 L65.7534247,28.9715856 C65.7534247,28.3067224 65.2093489,27.7671233 64.5389698,27.7671233 L64.5389698,27.7671233 Z" id="Fill-18" mask="url(#mask-4)"></path>
            </g>
        </g>
    </g>
</svg>