<?xml version="1.0" encoding="UTF-8"?>
<svg width="81px" height="65px" viewBox="0 0 81 65" version="1.1" xmlns="http://www.w3.org/2000/svg" xmlns:xlink="http://www.w3.org/1999/xlink">
    <!-- Generator: Sketch 60.1 (88133) - https://sketch.com -->
    <title>note</title>
    <desc>Created with Sketch.</desc>
    <defs>
        <polygon id="path-1" points="0 0.086125 80.444952 0.086125 80.444952 64.9998375 0 64.9998375"></polygon>
    </defs>
    <g id="Page-1" stroke="none" stroke-width="1" fill="currentColor" fill-rule="evenodd">
        <g id="note">
            <g id="Group-3">
                <g id="Fill-1-Clipped">
                    <mask id="mask-2" fill="white">
                        <use xlink:href="#path-1"></use>
                    </mask>
                    <g id="path-1"></g>
                    <path d="M77.984952,61.3500875 C77.984952,62.0179625 77.435552,62.5623375 76.759872,62.5623375 L3.684752,62.5623375 C3.009072,62.5623375 2.459672,62.0179625 2.459672,61.3500875 L2.459672,11.0709625 C2.459672,10.4014625 3.009072,9.8587125 3.684752,9.8587125 L57.429192,9.8587125 L57.429192,48.1030875 L57.448872,48.1209625 C57.450512,48.2964625 57.473472,48.4719625 57.553832,48.6344625 L62.188472,58.1017125 C62.395112,58.5225875 62.824792,58.7890875 63.295472,58.7890875 C63.766152,58.7890875 64.195832,58.5225875 64.402472,58.1017125 L69.037112,48.6344625 C69.115832,48.4719625 69.138792,48.2964625 69.140432,48.1209625 L69.160112,48.1030875 L69.160112,9.8587125 L76.759872,9.8587125 C77.435552,9.8587125 77.984952,10.4014625 77.984952,11.0709625 L77.984952,61.3500875 Z M65.967032,49.3218375 L63.295472,54.7769625 L60.623912,49.3218375 L65.967032,49.3218375 Z M59.889192,46.8843375 L66.700112,46.8843375 L66.700112,14.7142125 L59.889192,14.7142125 L59.889192,46.8843375 Z M59.889192,12.2767125 L66.700112,12.2767125 L66.700112,9.8587125 L59.889192,9.8587125 L59.889192,12.2767125 Z M59.889192,7.4017125 L66.700112,7.4017125 L66.700112,2.5234625 L59.889192,2.5234625 L59.889192,7.4017125 Z M76.759872,7.4195875 L69.160112,7.4195875 L69.160112,1.3047125 C69.160112,0.6319625 68.609072,0.0859625 67.930112,0.0859625 L58.659192,0.0859625 C57.980232,0.0859625 57.429192,0.6319625 57.429192,1.3047125 L57.429192,7.4195875 L3.684752,7.4195875 C1.652792,7.4195875 -0.000328,9.0575875 -0.000328,11.0709625 L-0.000328,61.3500875 C-0.000328,63.3618375 1.652792,64.9998375 3.684752,64.9998375 L76.759872,64.9998375 C78.791832,64.9998375 80.444952,63.3618375 80.444952,61.3500875 L80.444952,11.0709625 C80.444952,9.0575875 78.791832,7.4195875 76.759872,7.4195875 L76.759872,7.4195875 Z" id="Fill-1" mask="url(#mask-2)"></path>
                </g>
            </g>
            <path d="M50.7605932,20 L14.2394068,20 C13.5552542,20 13,20.448 13,21 C13,21.552 13.5552542,22 14.2394068,22 L50.7605932,22 C51.4447458,22 52,21.552 52,21 C52,20.448 51.4447458,20 50.7605932,20" id="Fill-4"></path>
            <path d="M14.2269777,32 L42.7730223,32 C43.450314,32 44,31.552 44,31 C44,30.448 43.450314,30 42.7730223,30 L14.2269777,30 C13.549686,30 13,30.448 13,31 C13,31.552 13.549686,32 14.2269777,32" id="Fill-6"></path>
            <path d="M47.7847222,40 L15.2152778,40 C14.5444444,40 14,40.448 14,41 C14,41.552 14.5444444,42 15.2152778,42 L47.7847222,42 C48.4555556,42 49,41.552 49,41 C49,40.448 48.4555556,40 47.7847222,40" id="Fill-8"></path>
            <path d="M40.7660275,50 L14.2339725,50 C13.5528197,50 13,50.448 13,51 C13,51.552 13.5528197,52 14.2339725,52 L40.7660275,52 C41.4471803,52 42,51.552 42,51 C42,50.448 41.4471803,50 40.7660275,50" id="Fill-10"></path>
        </g>
    </g>
</svg>