<?xml version="1.0" encoding="UTF-8"?>
<svg width="38px" height="50px" viewBox="0 0 38 50" version="1.1" xmlns="http://www.w3.org/2000/svg" xmlns:xlink="http://www.w3.org/1999/xlink">
    <!-- Generator: Sketch 60.1 (88133) - https://sketch.com -->
    <title>pdf</title>
    <desc>Created with Sketch.</desc>
    <defs>
        <polygon id="path-1" points="0 0.12110548 37.8431196 0.12110548 37.8431196 49.8216967 0 49.8216967"></polygon>
    </defs>
    <g id="Page-1" stroke="none" stroke-width="1" fill="currentColor" fill-rule="evenodd">
        <g id="pdf">
            <g id="Group-3">
                <g id="Fill-1-Clipped">
                    <mask id="mask-2" fill="white">
                        <use xlink:href="#path-1"></use>
                    </mask>
                    <g id="path-1"></g>
                    <path d="M35.4433824,48.2028904 L2.40027124,48.2028904 C1.95919804,48.2028904 1.60249477,47.841357 1.60249477,47.3967248 L1.60249477,2.54607733 C1.60249477,2.1014452 1.95919804,1.73991179 2.40027124,1.73991179 L23.3058595,1.73991179 C23.2161497,1.99460398 23.1584791,2.26224662 23.1584791,2.54607733 L23.1584791,12.5351914 C23.1584791,13.8723255 24.2349967,14.9601633 25.5582163,14.9601633 L35.4433824,14.9601633 C35.7242595,14.9601633 35.990185,14.9029655 36.2411588,14.8123123 L36.2411588,47.3967248 C36.2411588,47.841357 35.8833876,48.2028904 35.4433824,48.2028904 L35.4433824,48.2028904 Z M36.1898961,12.8190221 C36.0766908,13.1244369 35.784066,13.341357 35.4433824,13.341357 L25.5582163,13.341357 C25.1182111,13.341357 24.7604399,12.9798236 24.7604399,12.5351914 L24.7604399,2.54607733 C24.7604399,2.20181119 24.9751026,1.90718844 25.2773392,1.79171359 L36.1898961,12.8190221 Z M37.6081654,11.9632132 L26.1242425,0.358530405 C25.9747261,0.206362613 25.7707431,0.12110548 25.5582163,0.12110548 L2.40027124,0.12110548 C1.07598366,0.12110548 -0.000533986928,1.20894332 -0.000533986928,2.54607733 L-0.000533986928,47.3967248 C-0.000533986928,48.7338589 1.07598366,49.8216967 2.40027124,49.8216967 L35.4433824,49.8216967 C36.766602,49.8216967 37.8431196,48.7338589 37.8431196,47.3967248 L37.8431196,12.5351914 C37.8431196,12.3204298 37.7587497,12.115381 37.6081654,11.9632132 L37.6081654,11.9632132 Z" id="Fill-1" mask="url(#mask-2)"></path>
                </g>
            </g>
            <path d="M10.9603559,35.891069 C10.7318558,36.1387009 10.4115811,36.2625169 10.0004682,36.2625169 L8.66224442,36.2625169 L8.66224442,33.6694858 L10.0894334,33.6694858 C10.4565319,33.6694858 10.7505853,33.791272 10.9715936,34.0338295 C11.1926018,34.2774019 11.303106,34.5818674 11.303106,34.947226 C11.303106,35.3288227 11.1888559,35.6434371 10.9603559,35.891069 M10.066958,32 L7,32 L7,41 L8.66224442,41 L8.66224442,37.8954668 L9.94334322,37.8954668 C10.9622288,37.8954668 11.726393,37.6184032 12.2358358,37.0663058 C12.7452786,36.4989851 13,35.7997294 13,34.9715832 C13,34.1363329 12.7527704,33.4330176 12.2583112,32.8656969 C11.7713438,32.2882273 11.0408928,32 10.066958,32" id="Fill-4"></path>
            <path d="M20.4332601,38.4790257 C19.9939269,39.0077808 19.3819615,39.270636 18.597364,39.270636 L16.8358961,39.270636 L16.8358961,33.729364 L18.597364,33.729364 C19.3819615,33.729364 19.9939269,33.9932341 20.4332601,34.5219892 C20.8715596,35.0487145 21.0907094,35.7033153 21.0907094,36.4817321 C21.0907094,37.285521 20.8715596,37.9512855 20.4332601,38.4790257 M18.5849593,32 L15,32 L15,41 L18.5105311,41 C19.9070939,41 21.0038765,40.5981055 21.7967438,39.7943166 C22.5999483,38.9996617 23,37.9076455 23,36.5182679 C23,35.1299053 22.6082181,34.02977 21.8225869,33.217862 C21.0452255,32.4069689 19.9660163,32 18.5849593,32" id="Fill-6" ></path>
            <polygon id="Fill-8" points="26 41 27.8002028 41 27.8002028 37.4194858 31.4888438 37.4194858 31.4888438 35.7266576 27.8002028 35.7266576 27.8002028 33.7050068 32 33.7050068 32 32 26 32"></polygon>
            <path d="M13,23.885914 L8.56739681,18.4475509 L9.62234961,18.4475509 C10.0884654,18.4475509 10.4667622,18.0877064 10.4667622,17.6443267 L10.4667622,8.60644834 L15.5332378,8.60644834 L15.5332378,17.6443267 C15.5332378,18.0877064 15.9115346,18.4475509 16.3776504,18.4475509 L17.4326032,18.4475509 L13,23.885914 Z M19.9140503,17.2909081 C19.772189,17.0156699 19.4772076,16.8411025 19.1552049,16.8411025 L17.222063,16.8411025 L17.222063,7.80322417 C17.222063,7.35984443 16.8437661,7 16.3776504,7 L9.62234961,7 C9.15623386,7 8.77793701,7.35984443 8.77793701,7.80322417 L8.77793701,16.8411025 L6.84479511,16.8411025 C6.52279244,16.8411025 6.22781097,17.0156699 6.08594965,17.2909081 C5.94408834,17.5661462 5.98011661,17.8938617 6.17714621,18.1369709 L12.3323511,25.68942 C12.4933524,25.8843357 12.7399209,26 13,26 C13.2600791,26 13.5066476,25.8843357 13.6676489,25.68942 L19.8228538,18.1369709 C20.0198834,17.8938617 20.0559117,17.5661462 19.9140503,17.2909081 L19.9140503,17.2909081 Z" id="Fill-10" ></path>
        </g>
    </g>
</svg>