<?xml version="1.0" encoding="UTF-8"?>
<svg width="57px" height="67px" viewBox="0 0 57 67" version="1.1" xmlns="http://www.w3.org/2000/svg" xmlns:xlink="http://www.w3.org/1999/xlink">
    <!-- Generator: Sketch 64 (93537) - https://sketch.com -->
    <title>Group 3</title>
    <desc>Created with Sketch.</desc>
    <defs>
        <polygon id="path-1" points="0 0 57 0 57 67 0 67"></polygon>
    </defs>
    <g id="Page-1" stroke="none" stroke-width="1" fill="currentColor" fill-rule="evenodd">
        <g id="SORENSON_Products_Wavello-Page-for-Hearing" transform="translate(-442.000000, -3629.000000)">
            <polygon id="Rectangle-7-Copy" fill="none" points="235 3511 705 3511 705 3960 235 3960"></polygon>
            <g id="Group-3" transform="translate(442.000000, 3629.000000)">
                <mask id="mask-2" fill="white">
                    <use xlink:href="#path-1"></use>
                </mask>
                <g id="Clip-2"></g>
                <path d="M45.5859324,0 C45.0516251,0 44.2671508,0.112238107 43.5568,0.644215985 C42.8032105,1.20848154 42.011015,1.80349726 41.3099297,2.59685155 C37.7257468,6.67586112 34.7422737,11.4036992 32.4413549,16.6481401 C32.0336753,17.5798701 31.7248272,18.6115382 31.5256201,19.7216192 C31.3403112,20.7455997 31.5734916,22.2400578 32.506213,23.2655759 C33.3339261,24.1742433 34.2805457,24.9552975 35.0387679,25.5856759 C35.4201954,25.9008651 35.8201537,26.1945292 36.2201121,26.4881933 C36.616982,26.7772449 36.9937767,27.0524589 37.3041691,27.3245978 C38.9595952,28.7883058 38.8453214,29.6831356 38.6059641,30.404227 L38.4530843,30.8931546 C38.3511644,31.2144939 38.2569657,31.5189205 38.1550458,31.7618468 C36.8084678,35.0090644 34.6681501,38.1471189 31.4175233,41.6357253 C29.8300437,43.3392845 28.5653105,44.36019 27.1863035,45.0428437 C26.8820881,45.195057 26.605669,45.2703949 26.3694001,45.2703949 C26.1701931,45.2703949 25.977163,45.2165821 25.7609693,45.1028065 C24.8745751,44.6307915 23.9989905,44.0142506 23.0693576,43.3608096 L22.623072,43.0471579 C22.4995327,42.9610574 22.3250335,42.8011566 22.1381804,42.6304932 C21.8416862,42.3568167 21.4726126,42.0154898 21.0170616,41.7079882 C19.7847574,40.8731211 18.7207755,40.1504922 17.3216934,40.1504922 C16.0662256,40.1504922 15.1844642,40.7116828 14.1606325,41.3574363 L14.0787878,41.4112491 C13.8502401,41.5557748 13.663387,41.6757005 13.4873435,41.8094637 C8.58129057,45.4887211 4.47978705,49.8936824 1.2971068,54.8998095 C0.813759435,55.6624137 0.495645834,56.4496179 0.21150553,57.1891594 C-0.217793407,58.310003 0.0215639138,59.7137481 0.792140064,60.6055029 C1.95340913,61.9492852 3.7925999,63.8880832 6.33133175,65.2072653 C8.61989659,66.3972967 11.0613413,67 13.5861749,67 C15.4083791,67 17.2645565,66.7001859 19.2643483,66.083645 C23.2731974,64.8474884 27.055043,62.7241894 31.165812,59.4047089 C38.4345534,53.5345021 44.6439455,46.1606122 50.1507082,36.8617619 C53.2175704,31.6818964 55.1540483,27.083209 56.2473708,22.3907336 C57.0704511,18.8606145 57.2156098,15.6518347 56.6967448,12.5845056 C55.7794658,7.16786378 52.5689892,3.05349152 47.1579695,0.35670193 C46.6885203,0.124538174 46.1449476,0 45.5859324,0 M45.5859324,2.69063956 C45.7187371,2.69063956 45.8515418,2.71523969 45.9472848,2.76290245 C50.3360171,4.95077679 53.2206588,8.2425821 54.0313853,13.0319205 C54.5409847,16.0392868 54.2769195,18.9390275 53.6144402,21.7818803 C52.4639809,26.7295821 50.3530037,31.2221814 47.8235373,35.494917 C42.9143959,43.7851619 36.9937767,51.2328522 29.4640587,57.3136976 C26.1779143,59.9689745 22.623072,62.2306492 18.4644316,63.5144686 C16.8507,64.0110838 15.2246144,64.3093604 13.5861749,64.3093604 C11.6018255,64.3093604 9.60048948,63.8711706 7.58216678,62.8225899 C5.70436999,61.8462721 4.20491219,60.4286894 2.83980334,58.8496684 C2.70391015,58.6928426 2.66375989,58.3392156 2.73633921,58.1485646 C2.97415229,57.5258737 3.22740778,56.8954953 3.58103892,56.3404548 C6.65253383,51.5049912 10.5239455,47.399844 15.1149733,43.9589003 C15.247778,43.8574248 15.3883039,43.7697868 15.5303741,43.6806113 C16.3843392,43.1409459 16.838346,42.8411318 17.3216934,42.8411318 C17.8390141,42.8411318 18.390308,43.1824586 19.4959844,43.9312252 C20.0596323,44.3125273 20.5120948,44.8614177 21.0695658,45.2504073 C22.1860519,46.0283865 23.2948167,46.8417284 24.4869706,47.4751819 C25.1154766,47.8103587 25.7455269,47.9610345 26.3694001,47.9610345 C27.0565873,47.9610345 27.7329647,47.7765335 28.3908113,47.4505817 C30.3628068,46.4742639 31.9394766,45.0320811 33.3987842,43.4668977 C36.354461,40.291943 38.9626837,36.8632994 40.6536274,32.7889024 C40.8605556,32.2892122 41.0057143,31.7587718 41.177125,31.2406315 C41.9477011,28.8913188 40.9732852,26.9709709 39.0985769,25.313537 C38.3650625,24.666246 37.5219071,24.1419556 36.7683176,23.5177272 C35.982299,22.8673612 35.1916477,22.2046951 34.5090933,21.4574661 C34.2403954,21.163802 34.1153119,20.5810864 34.1848027,20.1967093 C34.3392268,19.3480047 34.5770399,18.5023751 34.9183171,17.7243959 C37.0632675,12.8335819 39.8413567,8.3548202 43.345239,4.36959864 C43.8733694,3.76843289 44.5343045,3.27796774 45.1813413,2.79365261 C45.2739958,2.72446474 45.4284199,2.69063956 45.5859324,2.69063956" id="Fill-1" mask="url(#mask-2)"></path>
            </g>
        </g>
    </g>
</svg>