<?xml version="1.0" encoding="UTF-8"?>
<svg width="96px" height="65px" viewBox="0 0 96 65" version="1.1" xmlns="http://www.w3.org/2000/svg" xmlns:xlink="http://www.w3.org/1999/xlink">
    <!-- Generator: Sketch 60.1 (88133) - https://sketch.com -->
    <title>shake</title>
    <desc>Created with Sketch.</desc>
    <g id="Page-1" stroke="none" stroke-width="1" fill="currentColor" fill-rule="evenodd">
        <g id="shake" fill-rule="nonzero">
            <path d="M82.422939,34.64099 C82.275207,34.52428 82.131907,34.41939 81.994515,34.32485 C70.639804,24.53905 61.614832,19.63729 55.642011,16.39457 C53.708194,15.34419 52.038818,14.43711 50.743205,13.60833 C48.20664,11.98771 46.315665,11.48837 44.949141,11.48837 C43.186693,11.48837 42.295867,12.31715 42.015175,12.63773 L34.839813,19.94901 C34.699467,20.11742 31.37992,24.0796 28.28345,22.06306 C27.757522,21.72032 27.470921,21.30667 27.379327,20.75858 C27.110454,19.14682 28.540504,16.88799 29.172799,16.07251 L34.501506,8.06098 C36.794313,4.93792 39.518498,4.02198 39.497815,4.02198 C51.64585,1.33916 58.586318,2.99967 64.16617,4.33665 C65.188478,4.58188 66.166467,4.8153 67.122296,5.01178 C74.102651,6.44774 78.10029,4.95269 78.290864,4.87883 L82.213159,3.27888 L92.520448,27.38733 C91.029829,28.92227 86.772181,33.02776 82.422939,34.64099 L82.422939,34.64099 Z M82.514533,42.51956 C80.599922,45.39591 76.757402,43.26857 76.591942,43.17402 C76.49887,43.12231 67.342417,37.94724 60.812645,33.8196 C60.20842,33.43845 59.410665,33.61869 59.029515,34.22143 C58.646888,34.82566 58.827122,35.62341 59.431347,36.00456 C64.975744,39.51025 72.366795,43.74574 74.615282,45.0251 C75.714411,46.55857 75.806006,47.97089 74.893019,49.34037 C72.978408,52.21967 69.137365,50.09085 68.937927,49.97857 C68.871447,49.94311 62.25599,46.44629 55.742469,42.33194 C55.135289,41.94784 54.340489,42.13103 53.959339,42.73377 C53.57819,43.33652 53.758423,44.13575 54.361171,44.5169 C59.394414,47.69758 64.477886,50.50597 66.624437,51.66863 C66.655461,51.75727 66.674666,51.85034 66.72785,51.93307 C67.540378,53.17993 67.596516,54.39134 66.896265,55.63377 C65.203252,58.64751 61.213,56.81563 60.995833,56.71517 C60.961855,56.70039 57.454688,55.19648 50.667862,51.59181 C50.035567,51.25646 49.257017,51.49578 48.920187,52.1266 C48.586312,52.75742 48.825639,53.53892 49.456456,53.87575 C54.176506,56.38129 57.258204,57.85271 58.787234,58.55591 C58.8611,59.07889 58.819735,59.64618 58.640979,60.25336 C57.835837,62.98198 53.00942,62.35559 52.895666,62.34229 C52.869074,62.33934 50.396034,62.09558 44.477874,60.21052 L45.256424,59.13798 C46.129523,57.92953 46.382145,56.40345 45.96554,54.84044 C45.575526,53.37198 44.630039,52.03501 43.304879,51.07622 C42.058018,50.17653 40.641264,49.75993 39.293945,49.75402 C39.887829,47.52326 38.906886,44.87294 36.642148,43.23606 C35.446993,42.37478 34.067173,41.9242 32.691784,41.90647 C33.009409,40.96985 33.05816,39.93572 32.777469,38.87796 C32.385978,37.4095 31.440491,36.07252 30.115331,35.11374 C27.298074,33.07946 23.588514,33.38379 21.848227,35.79183 L20.784553,37.26472 C20.307378,36.09173 19.491895,35.03396 18.394243,34.24064 C15.578464,32.20489 11.868903,32.50774 10.128616,34.91578 L9.998611,35.09601 C5.966994,31.60214 3.474749,26.38275 2.733132,24.68088 L15.056968,3.39855 C16.928738,4.47699 19.38996,5.63817 19.518487,5.69726 C19.72088,5.79181 24.105577,7.80688 31.149458,8.43622 L27.080908,14.55677 C26.798739,14.91724 24.330131,18.15997 24.827989,21.17519 C25.034814,22.4383 25.742452,23.49311 26.871128,24.22881 C30.905699,26.85993 35.157438,23.65118 36.761812,21.67452 L43.956379,14.34699 C44.297641,14.00869 45.938948,13.6039 49.348611,15.78739 C50.724,16.66492 52.430309,17.59268 54.408446,18.66669 C60.28524,21.85623 69.16248,26.67822 80.412302,36.36503 C80.585148,36.48617 84.61972,39.36252 82.514533,42.51956 L82.514533,42.51956 Z M40.512737,61.27567 C40.103518,61.84296 39.423949,62.18274 38.596648,62.23149 C37.683662,62.2832 36.701241,61.98183 35.856212,61.37169 C34.198655,60.17358 33.58261,58.1851 34.477869,56.93233 L37.225691,53.16959 C37.699912,52.59787 38.428233,52.29945 39.249625,52.29945 C40.073972,52.29945 40.982526,52.589 41.789145,53.17254 C42.632697,53.78268 43.229536,54.60998 43.467385,55.50524 C43.678642,56.30447 43.570797,57.05643 43.163056,57.62077 L40.514214,61.27419 L40.512737,61.27567 Z M27.027724,56.46845 C26.184172,55.85832 25.587333,55.03102 25.349484,54.13576 C25.151523,53.39414 25.243117,52.69832 25.579947,52.15319 L27.679224,49.24729 L30.471366,45.42694 C30.880585,44.86112 31.560154,44.52134 32.387455,44.47258 C32.458367,44.46815 32.529278,44.46667 32.60019,44.46667 C33.458515,44.46667 34.347864,44.76953 35.126414,45.33239 C36.788403,46.53345 37.404447,48.52932 36.504757,49.77765 L35.150051,51.63022 C35.11755,51.67454 35.071753,51.70704 35.039252,51.75284 L32.388933,55.40774 C32.385978,55.41069 32.384501,55.41512 32.383023,55.41808 L31.688681,56.368 L31.684249,56.37243 C30.780127,57.62668 28.689714,57.671 27.027724,56.46845 L27.027724,56.46845 Z M20.421132,53.18289 C19.509623,53.23902 18.525725,52.93322 17.682173,52.32308 C16.837144,51.71295 16.241782,50.88565 16.003933,49.99187 C15.791198,49.19263 15.90052,48.4392 16.309739,47.87191 L17.688082,45.96468 C17.691037,45.96173 17.693992,45.95877 17.696946,45.95582 L20.345788,42.30092 C20.363516,42.27728 20.370903,42.25069 20.38863,42.22705 L23.943072,37.30609 C24.408429,36.6605 25.186979,36.33696 26.060077,36.33696 C26.884424,36.33696 27.792978,36.62652 28.599597,37.21006 C29.444626,37.82019 30.039988,38.6475 30.277837,39.54128 C30.490571,40.34051 30.381249,41.09394 29.972031,41.66124 L25.582901,47.73599 L23.560445,50.50302 C23.529421,50.54734 23.511693,50.59905 23.482147,50.64484 L22.337221,52.22853 C21.928002,52.79435 21.248433,53.13413 20.421132,53.18289 L20.421132,53.18289 Z M10.945576,44.53611 C9.283587,43.33504 8.66902,41.3377 9.571665,40.08641 L12.221984,36.43151 C12.688818,35.7874 13.467368,35.46239 14.340466,35.46239 C15.164813,35.46239 16.073367,35.75194 16.879986,36.33548 C17.723538,36.94562 18.3189,37.7744 18.558226,38.66818 C18.76062,39.43786 18.661639,40.1588 18.290831,40.71723 L15.593237,44.45042 C15.182541,45.01033 14.505927,45.34716 13.687489,45.39443 C12.75382,45.45057 11.789128,45.14477 10.945576,44.53611 L10.945576,44.53611 Z M95.231338,27.14948 L84.090838,1.09392 C83.813101,0.4439 83.06853,0.13809 82.412598,0.40549 L77.3439,2.47522 C77.308444,2.48852 73.814573,3.7472 67.640836,2.47965 C66.713077,2.28908 65.763157,2.06009 64.767441,1.82224 C58.933489,0.42469 51.673919,-1.31412 38.841884,1.52382 C38.70597,1.56519 35.650864,2.55795 32.883836,5.96909 C25.441078,5.55987 20.663413,3.37934 20.617616,3.35718 C20.58216,3.34093 16.936124,1.62133 15.330273,0.53254 C15.033331,0.33015 14.665478,0.26071 14.315352,0.34196 C13.966703,0.42174 13.665329,0.64334 13.486573,0.95358 L0.174407,23.93926 C-0.022077,24.27757 -0.054578,24.68678 0.087245,25.05021 C0.208386,25.36931 3.025642,32.56683 8.479922,37.18938 L7.479774,38.57067 C5.739486,40.97871 6.61554,44.5952 9.431319,46.63095 C10.651588,47.51144 12.074251,47.98714 13.474755,47.98714 L13.48805,47.98714 C13.275316,48.82773 13.260543,49.73038 13.505778,50.65518 C13.895792,52.12364 14.841279,53.46062 16.166439,54.41941 C17.388186,55.29989 18.809371,55.77559 20.211352,55.77559 C20.332492,55.77559 20.45511,55.77116 20.576251,55.76377 C21.455258,55.71206 22.253013,55.45944 22.945878,55.05909 C23.375779,56.42413 24.266606,57.66361 25.513467,58.56478 C26.766238,59.47038 28.196287,59.9121 29.550993,59.9121 C30.288178,59.9121 30.992862,59.75698 31.644361,59.49845 C31.984146,60.98611 32.907473,62.43241 34.341955,63.46802 C35.562225,64.3485 36.98341,64.82272 38.383913,64.82272 C38.506531,64.82272 38.629149,64.81977 38.75029,64.81238 C40.365005,64.71488 41.734484,63.99837 42.606105,62.7914 L42.882365,62.41025 C49.729761,64.6484 52.55145,64.90693 52.601679,64.90988 C52.682931,64.9217 53.276816,64.9999965 54.121845,64.9999965 C56.284647,64.9999965 60.088756,64.48294 61.119928,60.98611 C61.258797,60.51484 61.341527,60.05096 61.384369,59.59595 C62.118599,59.79982 62.939991,59.94607 63.801271,59.94607 C65.758726,59.94607 67.84323,59.22366 69.150661,56.90131 C69.846481,55.66184 70.090239,54.38543 69.905574,53.12232 C70.580711,53.30107 71.309032,53.4296 72.058035,53.4296 C73.844119,53.4296 75.711457,52.77514 77.04548,50.77485 C77.964376,49.39503 78.271659,47.90441 77.9954,46.40788 C78.537577,46.52163 79.098961,46.60732 79.679549,46.60732 C81.467111,46.60732 83.332971,45.95434 84.668472,43.95257 C86.498876,41.20474 85.693735,38.55886 84.334597,36.65163 C89.907062,34.17564 94.782231,28.76863 95.006785,28.51896 C95.34066,28.1452 95.429299,27.61041 95.231338,27.14948 L95.231338,27.14948 Z" id="Fill-1"></path>
        </g>
    </g>
</svg>