<?xml version="1.0" encoding="UTF-8"?>
<svg width="48px" height="36px" viewBox="0 0 48 36" version="1.1" xmlns="http://www.w3.org/2000/svg" xmlns:xlink="http://www.w3.org/1999/xlink">
    <!-- Generator: Sketch 60.1 (88133) - https://sketch.com -->
    <title>stetoscope</title>
    <desc>Created with Sketch.</desc>
    <defs>
        <polygon id="path-1" points="0 0 48 0 48 36 0 36"></polygon>
    </defs>
    <g id="Page-1" stroke="none" stroke-width="1" fill="currentColor" fill-rule="evenodd">
        <g id="stetoscope">
            <mask id="mask-2" fill="white">
                <use xlink:href="#path-1"></use>
            </mask>
            <g id="path-1"></g>
            <path d="M42.4128512,31.3289401 C40.5441892,31.3289401 39.0233897,29.8168701 39.0233897,27.9589345 C39.0233897,26.1009989 40.5441892,24.588929 42.4128512,24.588929 C44.2815133,24.588929 45.8023128,26.1009989 45.8023128,27.9589345 C45.8023128,29.8168701 44.2815133,31.3289401 42.4128512,31.3289401 M43.5116948,22.5137347 L43.5116948,20.7781632 C43.5116948,15.0170644 40.4977238,10.9927858 36.1814662,10.9927858 C31.8664643,10.9927858 28.8512375,15.0170644 28.8512375,20.7781632 L28.8512375,26.2146226 C28.8512375,30.4049667 25.4228455,33.8149279 21.2070535,33.8149279 C17.1407043,33.8149279 13.8165454,30.6384573 13.5854743,26.6516371 C19.8645806,26.0535516 24.7924232,20.7831576 24.7924232,14.386515 L24.7924232,0 L19.6309979,0 C19.0244362,0 18.5321543,0.48945616 18.5321543,1.09253607 C18.5321543,1.69686459 19.0244362,2.18507214 19.6309979,2.18507214 L22.594736,2.18507214 L22.594736,14.386515 C22.594736,19.9778024 18.0185234,24.5264983 12.3962116,24.5264983 C6.77264403,24.5264983 2.1976872,19.9778024 2.1976872,14.386515 L2.1976872,2.18507214 L4.7796557,2.18507214 C5.38747318,2.18507214 5.87849929,1.69686459 5.87849929,1.09253607 C5.87849929,0.48945616 5.38747318,0 4.7796557,0 L0,0 L0,14.386515 C0,20.8455882 5.02328502,26.1484462 11.389043,26.661626 C11.6251374,31.8496115 15.9326043,36 21.2070535,36 C26.634713,36 31.0489247,31.6098779 31.0489247,26.2146226 L31.0489247,20.7781632 C31.0489247,17.1172309 32.6551201,13.1778579 36.1814662,13.1778579 C39.7078123,13.1778579 41.3140076,17.1172309 41.3140076,20.7781632 L41.3140076,22.5137347 C38.7584114,23.0231687 36.8257025,25.2694229 36.8257025,27.9589345 C36.8257025,31.0217814 39.3323217,33.5140122 42.4128512,33.5140122 C45.4933808,33.5140122 48,31.0217814 48,27.9589345 C48,25.2694229 46.0672911,23.0231687 43.5116948,22.5137347" id="Fill-1" mask="url(#mask-2)"></path>
        </g>
    </g>
</svg>