<?xml version="1.0" encoding="UTF-8"?>
<svg width="30px" height="45px" viewBox="0 0 30 45" version="1.1" xmlns="http://www.w3.org/2000/svg" xmlns:xlink="http://www.w3.org/1999/xlink">
    <!-- Generator: Sketch 60.1 (88133) - https://sketch.com -->
    <title>thumbsup</title>
    <desc>Created with Sketch.</desc>
    <defs>
        <polygon id="path-1" points="0 0 30 0 30 45 0 45"></polygon>
    </defs>
    <g id="Page-1" stroke="none" stroke-width="1" fill="currentColor" fill-rule="evenodd">
        <g id="thumbsup">
            <mask id="mask-2" fill="white">
                <use xlink:href="#path-1"></use>
            </mask>
            <g id="path-1"></g>
            <path d="M25.3977452,28.9742084 L23.5540708,28.9742084 L17.8516603,28.9742084 L16.007986,28.9742084 C15.3980486,28.9742084 14.9053099,29.424668 14.9053099,29.9796987 C14.9053099,30.5347293 15.3980486,30.985189 16.007986,30.985189 L17.8516603,30.985189 L23.5540708,30.985189 C25.1255417,30.985189 26.223177,32.0366445 26.223177,33.5420072 C26.223177,35.0473698 25.1255417,36.0988253 23.5540708,36.0988253 L14.7477847,36.0988253 C14.1378474,36.0988253 13.6451087,36.549285 13.6451087,37.1043156 C13.6451087,37.6604954 14.1378474,38.1098059 14.7477847,38.1098059 L22.9920211,38.1098059 C23.2516225,38.4913177 23.586836,39.148621 23.3726018,39.793284 C23.0399087,40.7953269 21.4306318,41.6778601 18.8396581,42.2777068 C18.8169745,42.2834525 18.8031122,42.2972421 18.7816888,42.3041369 C18.7602654,42.3087334 18.7401022,42.3064351 18.719939,42.3121808 C18.6619697,42.331716 13.0742375,44.2197395 8.46568171,41.5744382 C4.90435309,39.5312819 2.80611808,35.3208631 2.23146633,29.1006129 C1.91137522,22.6551328 4.35490537,19.5340909 6.24394698,18.0896323 C6.43171696,17.9678243 6.62074714,17.8460163 6.79717531,17.6977783 C7.53313282,17.2254852 8.11534578,17.0151941 8.27791173,16.9646323 C8.33336059,16.9600358 8.38880944,16.9519918 8.44425829,16.9393514 C8.49970715,16.9278601 14.0143476,15.7258682 18.2977716,16.0855465 C20.9731787,16.3096272 22.5446496,16.8818948 22.6303433,16.9106231 C24.0190851,17.3335036 24.7714252,18.1585802 24.8634199,19.3628703 C24.9163483,20.0466037 24.6869917,20.6751788 24.2169366,21.1348315 C23.7456214,21.5956333 23.0600719,21.8495914 22.2863084,21.8495914 L19.1118615,21.8495914 L16.0004248,21.8495914 C15.3917476,21.8495914 14.8977487,22.2989019 14.8977487,22.8550817 C14.8977487,23.4101124 15.3917476,23.860572 16.0004248,23.860572 L19.1118615,23.860572 L22.2863084,23.860572 L25.3977452,23.860572 C27.1645473,23.860572 27.7946479,25.1809244 27.7946479,26.4173902 C27.7946479,27.653856 27.1645473,28.9742084 25.3977452,28.9742084 M11.8946892,4.88036261 C11.89973,4.840143 11.9022504,4.79992339 11.9022504,4.75970378 C11.9022504,3.24399898 12.9356154,2.01098059 14.2058982,2.01098059 C15.8416394,2.01098059 16.3658831,3.56345761 16.5297093,4.94011747 C16.5385307,4.98608274 17.4068093,9.51481103 15.6954561,14.0217058 C13.0162683,14.0986977 10.415213,14.5100868 9.00378763,14.7709397 C11.0251504,10.9466292 11.7888323,5.67786006 11.8946892,4.88036261 M30,26.4173902 C30,24.0409857 28.5205238,22.3023493 26.3063503,21.9300306 C26.8646194,21.1474719 27.1393433,20.2143769 27.0637312,19.2226762 C26.9099866,17.2162921 25.5477091,15.6787538 23.3990661,15.0283453 C23.323454,14.999617 21.5364887,14.3365679 18.4994038,14.0837589 C18.3343174,14.0688202 18.1654504,14.0607763 17.9978437,14.0515832 C19.6020798,9.25855465 18.738842,4.77808989 18.7098574,4.65398366 C18.3708632,1.7397855 16.6872344,0 14.2058982,0 C11.7396845,0 9.72966353,2.10061287 9.6968983,4.69650153 C9.34530216,7.29928498 7.94773902,13.8849591 5.42607639,16.116573 C3.07454094,17.6701992 -0.363287966,21.3106486 0.0311550124,29.2304648 C0.668816825,36.1528345 3.11108677,40.8780644 7.29117419,43.2774515 C9.60994441,44.6069969 12.0824592,45 14.1932962,45 C16.9934633,45 19.1358054,44.3162666 19.4508557,44.2093973 C22.8735622,43.4050051 24.9050065,42.1168284 25.4821787,40.3758938 C25.80353,39.4083248 25.5993774,38.5154494 25.2855873,37.8190756 C27.1557259,37.1893514 28.4285291,35.5656282 28.4285291,33.5420072 C28.4285291,32.4020684 28.0101423,31.4000255 27.325853,30.6163177 C28.960334,29.9463739 30,28.4065373 30,26.4173902" id="Fill-1" mask="url(#mask-2)"></path>
        </g>
    </g>
</svg>