<?xml version="1.0" encoding="UTF-8"?>
<svg width="39px" height="47px" viewBox="0 0 39 47" version="1.1" xmlns="http://www.w3.org/2000/svg" xmlns:xlink="http://www.w3.org/1999/xlink">
    <!-- Generator: Sketch 60.1 (88133) - https://sketch.com -->
    <title>timer</title>
    <desc>Created with Sketch.</desc>
    <defs>
        <polygon id="path-1" points="0.000121212121 0.653179487 38.8143262 0.653179487 38.8143262 47 0.000121212121 47"></polygon>
    </defs>
    <g id="Page-1" stroke="none" stroke-width="1" fill="currentColor" fill-rule="evenodd">
        <g id="timer">
            <g id="Group-3">
                <g id="Fill-1-Clipped">
                    <mask id="mask-2" fill="white">
                        <use xlink:href="#path-1"></use>
                    </mask>
                    <g id="path-1"></g>
                    <path d="M17.3892121,11.6358744 C16.3298182,10.6561051 15.7467879,9.32323333 15.7467879,7.88431026 C15.7467879,5.05948974 18.058303,2.76131026 20.8995152,2.76131026 C23.7395152,2.76131026 26.0510303,5.05948974 26.0510303,7.88431026 C26.0510303,9.37143846 25.3989091,10.7428744 24.2837576,11.7166179 C23.5249697,11.5720026 22.7516364,11.4671564 21.9601212,11.4201564 L21.9601212,9.58474615 L23.3855758,9.58474615 C23.9722424,9.58474615 24.4461818,9.1123359 24.4461818,8.53025897 C24.4461818,7.94697692 23.9722424,7.47577179 23.3855758,7.47577179 L18.4122424,7.47577179 C17.8255758,7.47577179 17.3516364,7.94697692 17.3516364,8.53025897 C17.3516364,9.1123359 17.8255758,9.58474615 18.4122424,9.58474615 L19.8389091,9.58474615 L19.8389091,11.4129256 C19.0340606,11.4611308 18.2401212,11.5732077 17.4558788,11.726259 C17.4292121,11.698541 17.4170909,11.6623872 17.3892121,11.6358744 M32.9116364,15.9900026 L33.6449697,15.1006179 L34.3237576,15.6549769 C34.5213333,15.8164641 34.7589091,15.8947974 34.9952727,15.8947974 C35.3019394,15.8947974 35.6061818,15.7634385 35.8158788,15.5091564 C36.188,15.0596436 36.1225455,14.3956179 35.6704242,14.0256436 L32.6473939,11.5563359 C32.1928485,11.1851564 31.5249697,11.2514385 31.1540606,11.7021564 C30.7831515,12.1516692 30.8486061,12.8156949 31.3007273,13.1868744 L32.0073939,13.7629256 L31.2546667,14.6727974 C29.8534545,13.6809769 28.3043636,12.8855923 26.6389091,12.3240026 C27.6243636,11.068259 28.1722424,9.52087436 28.1722424,7.88431026 C28.1722424,3.89654103 24.9092121,0.652335897 20.8995152,0.652335897 C16.8886061,0.652335897 13.6255758,3.89654103 13.6255758,7.88431026 C13.6255758,9.49677179 14.1819394,11.0574128 15.1661818,12.3179769 C13.178303,12.9856179 11.3067879,13.9943103 9.64981818,15.3235667 C9.19406061,15.6887205 9.12375758,16.3539513 9.4910303,16.8070795 C9.85830303,17.2577974 10.5249697,17.3313103 10.9831515,16.9637462 C13.9564848,14.5775923 17.6873939,13.343541 21.5249697,13.4965923 C30.2267879,13.8388487 37.0255758,21.1563872 36.6813333,29.8092077 C36.3358788,38.4596179 28.9952727,45.2288231 20.2740606,44.8781308 C16.058303,44.7130282 12.1613333,42.9246179 9.29709091,39.8431051 C6.43527273,36.7627974 4.94921212,32.7569513 5.11648485,28.5667205 C5.13587879,28.1099769 5.17587879,27.6568487 5.23284848,27.2073359 L8.28618182,27.8340026 L5.62436364,19.8500282 L0.000121212121,26.1335667 L3.15527273,26.7807205 C3.07769697,27.3435154 3.02072727,27.9111308 2.99769697,28.4823615 C2.60739394,38.2969256 10.3189091,46.5978487 20.1916364,46.9859 C20.4316364,46.995541 20.6692121,47.0003615 20.908,47.0003615 C30.4619394,46.9991564 38.4195152,39.4671051 38.8001212,29.8923615 C39.018303,24.4138487 36.708,19.4113615 32.9116364,15.9900026" id="Fill-1" mask="url(#mask-2)"></path>
                </g>
            </g>
            <path d="M20.9993984,36.430495 C18.8528026,36.430495 17.1056854,34.9881188 17.1056854,33.2154455 C17.1056854,32.6415842 16.6340118,32.1758416 16.0528427,32.1758416 C15.4704703,32.1758416 15,32.6415842 15,33.2154455 C15,35.8162376 17.1405796,37.9738614 19.9465557,38.4158416 L19.9465557,39.960396 C19.9465557,40.5342574 20.4182292,41 20.9993984,41 C21.5805675,41 22.0522411,40.5342574 22.0522411,39.960396 L22.0522411,38.4158416 C24.8594204,37.9738614 27,35.8162376 27,33.2154455 C27,30.2962376 24.3083325,27.9211881 20.9993984,27.9211881 C18.8528026,27.9211881 17.1056854,26.4788119 17.1056854,24.7061386 C17.1056854,22.9334653 18.8528026,21.4910891 20.9993984,21.4910891 C23.1471974,21.4910891 24.8943146,22.9334653 24.8943146,24.7061386 C24.8943146,25.28 25.3659882,25.7457426 25.9471573,25.7457426 C26.5295297,25.7457426 27,25.28 27,24.7061386 C27,22.1041584 24.8594204,19.9477228 22.0522411,19.5057426 L22.0522411,18.039604 C22.0522411,17.4657426 21.5805675,17 20.9993984,17 C20.4182292,17 19.9465557,17.4657426 19.9465557,18.039604 L19.9465557,19.5057426 C17.1405796,19.9477228 15,22.1041584 15,24.7061386 C15,27.6253465 17.6916675,30.000396 20.9993984,30.000396 C23.1471974,30.000396 24.8943146,31.4427723 24.8943146,33.2154455 C24.8943146,34.9881188 23.1471974,36.430495 20.9993984,36.430495" id="Fill-4" fill-rule="nonzero"></path>
        </g>
    </g>
</svg>