<?xml version="1.0" encoding="UTF-8"?>
<svg width="25px" height="21px" viewBox="0 0 25 21" version="1.1" xmlns="http://www.w3.org/2000/svg" xmlns:xlink="http://www.w3.org/1999/xlink">
    <!-- Generator: Sketch 60.1 (88133) - https://sketch.com -->
    <title>twitter</title>
    <desc>Created with Sketch.</desc>
    <g id="Page-1" stroke="none" stroke-width="1" fill="none" fill-rule="evenodd">
        <g id="twitter" transform="translate(1.000000, 1.000000)" fill="#00A8E1" fill-rule="nonzero" stroke="#00A8E1">
            <path d="M15.5965,0.8515 C16.7605,0.8515 17.9215,1.3135 18.782,2.228 C19.7595,2.0355 20.698,1.676 21.5555,1.1685 C21.2295,2.179 20.5475,3.0375 19.6355,3.584 C20.5005,3.4815 21.3465,3.2495 22.1435,2.897 C21.5575,3.774 20.8205,4.5395 19.965,5.1575 C19.9775,5.345 19.9775,5.533 19.9775,5.7215 C19.9775,11.494 15.584,18.149 7.5505,18.149 L7.5505,18.145 C7.5435,18.145 7.537,18.145 7.53,18.145 C5.164,18.145 2.8475,17.465 0.856,16.187 C1.2005,16.228 1.5485,16.2495 1.8955,16.2495 C1.899,16.2495 1.9025,16.2495 1.9065,16.2495 C3.87,16.2495 5.7765,15.59 7.32,14.3765 C5.452,14.3415 3.811,13.1225 3.2395,11.3435 C3.512,11.396 3.7885,11.422 4.065,11.422 C4.451,11.422 4.8365,11.3705 5.2115,11.2685 C3.1735,10.857 1.7075,9.066 1.7075,6.987 C1.7075,6.9685 1.7075,6.95 1.7075,6.9325 C2.315,7.2715 2.995,7.459 3.69,7.4795 C1.7705,6.198 1.1785,3.6445 2.3375,1.6485 C4.5555,4.377 7.827,6.036 11.339,6.212 C10.987,4.6955 11.4685,3.1055 12.6035,2.039 C13.4475,1.2445 14.523,0.8515 15.5965,0.8515 M15.5965,0.1015 L15.5965,0.8515 L15.5965,0.1015 C14.288,0.1015 13.043,0.5955 12.089,1.4925 C11.012,2.5045 10.4355,3.932 10.479,5.3825 C7.5275,5.0035 4.81,3.501 2.9195,1.175 C2.7765,0.999 2.5625,0.898 2.3375,0.898 C2.318,0.898 2.2985,0.8985 2.279,0.9005 C2.0335,0.9195 1.8125,1.058 1.689,1.2715 C0.784,2.8305 0.7945,4.6875 1.5705,6.195 C1.4865,6.2105 1.404,6.241 1.3285,6.2855 C1.099,6.42 0.958,6.666 0.958,6.932 L0.958,6.9865 C0.958,8.493 1.6235,9.877 2.697,10.8255 C2.6905,10.832 2.6845,10.8385 2.6785,10.8455 C2.5025,11.0435 2.4445,11.32 2.5255,11.5725 C2.9875,13.0095 4.044,14.135 5.3735,14.708 C4.297,15.224 3.1085,15.499 1.9065,15.499 C1.5835,15.499 1.264,15.48 0.9445,15.442 C0.9145,15.438 0.885,15.4365 0.8555,15.4365 C0.5425,15.4365 0.258,15.633 0.15,15.933 C0.032,16.262 0.157,16.629 0.451,16.818 C2.5525,18.166 4.9795,18.8835 7.4725,18.8945 C7.498,18.897 7.524,18.8985 7.55,18.8985 C12.5055,18.8985 15.6085,16.558 17.339,14.5955 C19.4925,12.1525 20.727,8.918 20.727,5.721 C20.727,5.655 20.727,5.5885 20.7265,5.5215 C21.5185,4.8975 22.2035,4.1565 22.7665,3.3135 C22.952,3.036 22.9315,2.6695 22.717,2.414 C22.571,2.2405 22.359,2.1465 22.143,2.1465 C22.0775,2.1465 22.0115,2.155 21.947,2.1725 C22.0745,1.925 22.1825,1.6665 22.269,1.3985 C22.3645,1.1015 22.267,0.7765 22.0235,0.582 C21.8875,0.4735 21.7215,0.418 21.555,0.418 C21.423,0.418 21.2915,0.4525 21.1725,0.5225 C20.4955,0.9235 19.771,1.2205 19.014,1.408 C18.0805,0.573 16.858,0.1015 15.5965,0.1015 L15.5965,0.1015 Z" id="Shape"></path>
        </g>
    </g>
</svg>