<?xml version="1.0" encoding="UTF-8"?>
<svg width="40px" height="24px" viewBox="0 0 40 24" version="1.1" xmlns="http://www.w3.org/2000/svg" xmlns:xlink="http://www.w3.org/1999/xlink">
    <!-- Generator: Sketch 63.1 (92452) - https://sketch.com -->
    <title>videophone</title>
    <desc>Created with Sketch.</desc>
    <defs>
        <polygon id="path-1" points="0 23.9849 39.561 23.9849 39.561 -0.0001 0 -0.0001"></polygon>
        <polygon id="path-3" points="0 23.9849 39.561 23.9849 39.561 -0.0001 0 -0.0001"></polygon>
    </defs>
    <g id="Page-1" stroke="none" stroke-width="1" fill="currentColor" fill-rule="evenodd">
        <g id="videophone">
            <path d="M7.3413,15.67 C8.8273,16.061 13.3723,17.099 19.7803,17.099 C26.1963,17.099 30.7353,16.062 32.2183,15.67 L32.2183,15.656 L32.7823,15.503 C34.3693,15.096 38.0603,13.676 38.0603,9.299 C38.0603,4.923 34.3693,3.503 32.7823,3.096 L32.2183,2.929 C30.7353,2.537 26.1963,1.5 19.7803,1.5 C13.3723,1.5 8.8273,2.538 7.3413,2.929 L7.3413,2.942 L6.7783,3.096 C5.1913,3.503 1.5003,4.923 1.5003,9.299 C1.5003,13.676 5.1913,15.096 6.7783,15.503 L7.3413,15.67 Z M19.7803,18.599 C11.6733,18.599 6.5783,17.021 6.3653,16.954 L6.2033,16.902 C2.3143,15.83 0.0003,13.001 0.0003,9.299 C0.0003,5.584 2.3333,2.747 6.2493,1.684 L6.3653,1.645 C6.5783,1.578 11.6733,0 19.7803,0 C27.8983,0 32.9823,1.578 33.1953,1.645 L33.3543,1.695 C37.2453,2.768 39.5603,5.597 39.5603,9.299 C39.5603,13.016 37.2273,15.853 33.3093,16.916 L33.1953,16.954 C32.9823,17.021 27.8983,18.599 19.7803,18.599 L19.7803,18.599 Z" id="Fill-1"></path>
            <path d="M17.5625,3.9038 C14.5865,3.9038 12.1665,6.3238 12.1665,9.2998 C12.1665,12.2748 14.5865,14.6948 17.5625,14.6948 L21.9985,14.6948 C24.9735,14.6948 27.3935,12.2748 27.3935,9.2998 C27.3935,6.3238 24.9735,3.9038 21.9985,3.9038 L17.5625,3.9038 Z M21.9985,16.1948 L17.5625,16.1948 C13.7605,16.1948 10.6665,13.1018 10.6665,9.2998 C10.6665,5.4968 13.7605,2.4038 17.5625,2.4038 L21.9985,2.4038 C25.8005,2.4038 28.8935,5.4968 28.8935,9.2998 C28.8935,13.1018 25.8005,16.1948 21.9985,16.1948 L21.9985,16.1948 Z" id="Fill-3"></path>
            <path d="M16.5166,9.2471 C16.5166,9.8851 15.9996,10.4031 15.3606,10.4031 C14.7226,10.4031 14.2046,9.8851 14.2046,9.2471 C14.2046,8.6081 14.7226,8.0911 15.3606,8.0911 C15.9996,8.0911 16.5166,8.6081 16.5166,9.2471" id="Fill-5"></path>
            <path d="M21.2251,9.2471 C21.2251,10.0451 20.5781,10.6911 19.7801,10.6911 C18.9821,10.6911 18.3351,10.0451 18.3351,9.2471 C18.3351,8.4491 18.9821,7.8021 19.7801,7.8021 C20.5781,7.8021 21.2251,8.4491 21.2251,9.2471" id="Fill-7"></path>
            <path d="M25.355,9.2471 C25.355,9.8851 24.838,10.4031 24.199,10.4031 C23.561,10.4031 23.043,9.8851 23.043,9.2471 C23.043,8.6081 23.561,8.0911 24.199,8.0911 C24.838,8.0911 25.355,8.6081 25.355,9.2471" id="Fill-9"></path>
            <path d="M10.876,22.4849 L28.685,22.4849 L28.685,22.3149 C28.685,21.7719 28.243,21.3309 27.701,21.3309 L11.86,21.3309 C11.317,21.3309 10.876,21.7719 10.876,22.3149 L10.876,22.4849 Z M29.435,23.9849 L10.126,23.9849 C9.712,23.9849 9.376,23.6489 9.376,23.2349 L9.376,22.3149 C9.376,20.9449 10.49,19.8309 11.86,19.8309 L27.701,19.8309 C29.07,19.8309 30.185,20.9449 30.185,22.3149 L30.185,23.2349 C30.185,23.6489 29.849,23.9849 29.435,23.9849 L29.435,23.9849 Z" id="Fill-11"></path>
            <g id="Fill-13-Clipped">
                <mask id="mask-2" fill="white">
                    <use xlink:href="#path-1"></use>
                </mask>
                <g id="path-1"></g>
                <polygon id="Fill-13" mask="url(#mask-2)" points="11.585 20.5129 13.085 20.5129 13.085 17.5409 11.585 17.5409"></polygon>
            </g>
            <g id="Fill-15-Clipped">
                <mask id="mask-4" fill="white">
                    <use xlink:href="#path-3"></use>
                </mask>
                <g id="path-1"></g>
                <polygon id="Fill-15" mask="url(#mask-4)" points="26.475 20.5129 27.975 20.5129 27.975 17.5409 26.475 17.5409"></polygon>
            </g>
        </g>
    </g>
</svg>