<?xml version="1.0" encoding="UTF-8"?>
<svg width="31px" height="21px" viewBox="0 0 31 21" version="1.1" xmlns="http://www.w3.org/2000/svg" xmlns:xlink="http://www.w3.org/1999/xlink">
    <!-- Generator: Sketch 60.1 (88133) - https://sketch.com -->
    <title>youtube</title>
    <desc>Created with Sketch.</desc>
    <g id="Page-1" stroke="none" stroke-width="1" fill="none" fill-rule="evenodd">
        <g id="youtube" transform="translate(1.000000, 1.000000)" stroke="#00A8E1" stroke-width="1.8">
            <path d="M28.3676964,4.313 C28.3676964,4.313 28.0916786,2.525575 27.2429107,1.7385 C26.1668036,0.705375 24.9601964,0.699675 24.4066071,0.6403 C20.4470714,0.377625 14.5051786,0.377625 14.5051786,0.377625 L14.4932679,0.377625 C14.4932679,0.377625 8.55241071,0.377625 4.59235714,0.6403 C4.03928571,0.70015 2.83319643,0.70585 1.75605357,1.7385 C0.907285714,2.525575 0.631785714,4.313 0.631785714,4.313 C0.631785714,4.313 0.348517857,6.4125 0.348517857,8.511525 L0.348517857,10.479925 C0.348517857,12.57895 0.631785714,14.67845 0.631785714,14.67845 C0.631785714,14.67845 0.907803571,16.465875 1.75605357,17.25295 C2.83267857,18.286075 4.24746429,18.2533 4.87666071,18.3616 C7.14125,18.560625 14.4994821,18.62285 14.4994821,18.62285 C14.4994821,18.62285 20.4470714,18.6143 24.4066071,18.352575 C24.9596786,18.29225 26.1662857,18.286075 27.2429107,17.253425 C28.0916786,16.46635 28.3676964,14.678925 28.3676964,14.678925 C28.3676964,14.678925 28.6509643,12.579425 28.6509643,10.4804 L28.6509643,8.512 C28.6509643,6.4125 28.3676964,4.313 28.3676964,4.313 Z M11.5777321,12.8649 L11.5766964,5.57555 L19.2244107,9.232575 L11.5777321,12.8649 Z" id="Shape"></path>
        </g>
    </g>
</svg>